<svg width="203" height="32" viewBox="0 0 203 32" fill="none" xmlns="http://www.w3.org/2000/svg">
<path d="M3.19613 14.7973C3.22695 14.4054 3.40829 14.083 3.7264 13.851C3.92947 13.7031 4.02067 13.5624 4.05257 13.4379C4.08395 13.3153 4.07047 13.1578 3.96371 12.9477C3.672 12.3737 3.59591 11.8079 3.8016 11.2807C3.98035 10.8226 4.24262 10.4115 4.58675 10.0493C4.86868 9.75251 5.07175 9.40754 5.19613 9.01119C5.37644 8.43715 5.82012 8.09216 6.44222 7.95943C6.66519 7.91186 6.82677 7.82961 6.9432 7.72505C7.0584 7.62152 7.14568 7.48108 7.19808 7.29048C7.27967 6.99392 7.43142 6.74386 7.66878 6.57076C7.90435 6.399 8.19289 6.32564 8.50765 6.32466C8.71041 6.32399 8.84744 6.26855 8.9471 6.17916C9.05158 6.08542 9.14615 5.92604 9.20687 5.66548C9.28716 5.32115 9.44553 5.01869 9.73421 4.85494C10.0251 4.68995 10.3641 4.71341 10.6952 4.82857C11.2167 5.00996 11.575 4.97702 11.826 4.82369C12.2284 4.57794 12.6632 4.4264 13.1278 4.37154C13.5902 4.31694 14.0552 4.3574 14.5194 4.4897C14.6776 4.53474 14.801 4.52788 14.9032 4.4897C15.0075 4.45069 15.1193 4.36778 15.2332 4.21236C15.3748 4.01904 15.4914 3.87052 15.577 3.77974C15.5991 3.75623 15.6234 3.73173 15.6483 3.71041C15.6694 3.69235 15.7076 3.66177 15.7576 3.63912C15.792 3.6236 15.9532 3.55865 16.1063 3.67623C16.1292 3.69385 16.1463 3.71432 16.1619 3.73384L16.203 3.72896L16.2127 3.82564C16.2352 3.8863 16.2381 3.93712 16.2381 3.95162L16.2381 4.05513L16.2362 4.05709L16.2694 4.36763L15.95 4.40084L15.8914 4.40767C15.8514 4.45962 15.804 4.51995 15.7518 4.59127C15.5833 4.8214 15.3773 4.998 15.1278 5.09127C14.8761 5.18529 14.6096 5.18397 14.3426 5.10787C13.9559 4.99768 13.5767 4.96607 13.203 5.01021C12.8315 5.05411 12.4853 5.17445 12.161 5.37252C11.6852 5.6631 11.1072 5.65262 10.4842 5.43599C10.243 5.35208 10.1172 5.37732 10.0516 5.41451C9.98392 5.45291 9.89318 5.55308 9.83285 5.81197C9.75293 6.15469 9.60848 6.44893 9.37581 6.65767C9.13842 6.87047 8.84023 6.96618 8.5096 6.96724C8.2909 6.96792 8.14565 7.01806 8.04769 7.08931C7.95163 7.15935 7.86891 7.27338 7.81722 7.46138C7.73634 7.75533 7.59043 8.00706 7.37288 8.20259C7.15646 8.3971 6.88536 8.52136 6.57601 8.58736C6.13359 8.6818 5.90602 8.89284 5.80843 9.20357C5.65504 9.69237 5.40274 10.123 5.05257 10.4917C4.76461 10.7948 4.54804 11.1353 4.40023 11.5141C4.27935 11.8239 4.30232 12.195 4.53695 12.6567C4.69329 12.9644 4.7558 13.2837 4.67562 13.5971C4.59592 13.9086 4.38825 14.1634 4.10531 14.3696C3.93732 14.492 3.85274 14.6448 3.83675 14.8481C3.81958 15.0677 3.88196 15.3667 4.06624 15.7592L4.10433 15.8413L4.08382 16.0307C4.06442 16.207 3.90566 16.3342 3.72933 16.3149C3.55304 16.2955 3.42586 16.1367 3.44515 15.9604L3.4471 15.9487C3.26381 15.5365 3.16845 15.1492 3.19613 14.7973Z" fill="#EBFD00"/>
<path d="M4.08789 15.9957C4.08802 22.3922 9.37893 27.5884 15.9189 27.5884L15.9189 28.231C9.03608 28.231 3.44544 22.7591 3.44531 15.9957L4.08789 15.9957Z" fill="#EBFD00"/>
<path d="M199.347 14.7969C199.316 14.405 199.135 14.0825 198.817 13.8506C198.613 13.7026 198.522 13.5619 198.49 13.4375C198.459 13.3149 198.472 13.1574 198.579 12.9473C198.871 12.3733 198.947 11.8075 198.741 11.2803C198.563 10.8221 198.3 10.4111 197.956 10.0488C197.674 9.75209 197.471 9.40711 197.347 9.01076C197.167 8.43672 196.723 8.09174 196.101 7.959C195.878 7.91143 195.716 7.82918 195.6 7.72463C195.485 7.62109 195.397 7.48065 195.345 7.29006C195.263 6.99349 195.112 6.74343 194.874 6.57033C194.639 6.39857 194.35 6.32522 194.035 6.32424C193.833 6.32356 193.696 6.26812 193.596 6.17873C193.491 6.085 193.397 5.92562 193.336 5.66506C193.256 5.32072 193.097 5.01826 192.809 4.85451C192.518 4.68952 192.179 4.71298 191.848 4.82814C191.326 5.00953 190.968 4.97659 190.717 4.82326C190.315 4.57751 189.88 4.42597 189.415 4.37111C188.953 4.31651 188.488 4.35697 188.024 4.48928C187.865 4.53431 187.742 4.52746 187.64 4.48928C187.535 4.45027 187.424 4.36735 187.31 4.21193C187.168 4.01861 187.052 3.87009 186.966 3.77931C186.944 3.7558 186.92 3.7313 186.895 3.70998C186.874 3.69192 186.835 3.66135 186.785 3.63869C186.751 3.62318 186.59 3.55823 186.437 3.6758C186.414 3.69343 186.397 3.71389 186.381 3.73342L186.34 3.72853L186.33 3.82521C186.308 3.88587 186.305 3.9367 186.305 3.95119L186.305 4.05471L186.307 4.05666L186.274 4.36721L186.593 4.40041L186.652 4.40724C186.692 4.45919 186.739 4.51953 186.791 4.59084C186.96 4.82097 187.166 4.99758 187.415 5.09084C187.667 5.18486 187.933 5.18354 188.2 5.10744C188.587 4.99725 188.966 4.96565 189.34 5.00978C189.711 5.05368 190.058 5.17402 190.382 5.37209C190.858 5.66267 191.436 5.65219 192.059 5.43556C192.3 5.35166 192.426 5.3769 192.491 5.41408C192.559 5.45248 192.65 5.55265 192.71 5.81154C192.79 6.15427 192.934 6.4485 193.167 6.65724C193.405 6.87004 193.703 6.96575 194.033 6.96681C194.252 6.9675 194.397 7.01764 194.495 7.08889C194.591 7.15892 194.674 7.27295 194.726 7.46096C194.807 7.7549 194.953 8.00663 195.17 8.20217C195.387 8.39667 195.658 8.52093 195.967 8.58693C196.409 8.68137 196.637 8.89241 196.735 9.20314C196.888 9.69194 197.14 10.1226 197.49 10.4912C197.778 10.7943 197.995 11.1349 198.143 11.5137C198.264 11.8235 198.241 12.1946 198.006 12.6563C197.85 12.964 197.787 13.2833 197.867 13.5967C197.947 13.9082 198.155 14.1629 198.438 14.3692C198.606 14.4916 198.69 14.6444 198.706 14.8477C198.723 15.0673 198.661 15.3663 198.477 15.7588L198.439 15.8408L198.459 16.0303C198.479 16.2066 198.637 16.3338 198.814 16.3145C198.99 16.2951 199.117 16.1363 199.098 15.96L199.096 15.9483C199.279 15.5361 199.375 15.1488 199.347 14.7969Z" fill="#EBFD00"/>
<path d="M198.455 15.9952C198.455 22.3918 193.164 27.588 186.624 27.588L186.624 28.2306C193.507 28.2306 199.098 22.7586 199.098 15.9952L198.455 15.9952Z" fill="#EBFD00"/>
<path d="M5.84638 17.2142C5.88854 17.6305 6.12833 17.9418 6.50459 18.14C6.75993 18.2745 6.86533 18.4087 6.90205 18.5199C6.93758 18.6276 6.93225 18.785 6.80634 19.0209C6.47553 19.6403 6.39092 20.2458 6.66962 20.7826C6.90581 21.2374 7.23831 21.6181 7.66279 21.9232C8.00059 22.166 8.25393 22.4792 8.42646 22.8675C8.55133 23.1486 8.74849 23.3667 9.01826 23.5013C9.28231 23.633 9.5916 23.6718 9.92548 23.6449C10.1758 23.6248 10.3564 23.6642 10.487 23.7367C10.6145 23.8075 10.7235 23.9259 10.8054 24.1175C10.9329 24.416 11.1315 24.656 11.4235 24.7699C11.7104 24.8817 12.0261 24.8483 12.3395 24.7337C12.5474 24.6578 12.6884 24.6743 12.7956 24.7308C12.9135 24.7931 13.0472 24.9338 13.1726 25.2152C13.3254 25.558 13.5515 25.8601 13.8991 25.9388C14.2517 26.0186 14.5805 25.836 14.8532 25.5853C15.0931 25.3648 15.2651 25.2522 15.3757 25.2103C15.3916 25.2043 15.4048 25.202 15.4147 25.1996L15.6208 25.5502L15.7761 25.5707L15.8757 25.5843L16.194 25.6263L16.279 24.9896L16.0153 24.9535L15.9265 24.8011L15.9108 24.7748L15.8894 24.7503C15.7957 24.6453 15.6723 24.577 15.53 24.557C15.3953 24.5381 15.2646 24.5656 15.1481 24.6097C14.9207 24.6959 14.6749 24.8753 14.4177 25.1117C14.1932 25.318 14.0778 25.3203 14.0407 25.3119C13.9985 25.3022 13.8885 25.243 13.7595 24.9535C13.6028 24.602 13.3896 24.3177 13.0954 24.1625C12.7903 24.0015 12.4534 24.0079 12.1188 24.1302C11.89 24.2138 11.7463 24.2061 11.6569 24.1712C11.5728 24.1384 11.4787 24.0585 11.3962 23.8656C11.268 23.5656 11.0711 23.3265 10.7985 23.1752C10.5289 23.0255 10.2136 22.9769 9.87373 23.0043C9.61724 23.0249 9.43422 22.9903 9.30537 22.9261C9.1823 22.8647 9.08479 22.7651 9.01435 22.6068C8.79624 22.1159 8.46965 21.7121 8.03779 21.4017C7.69281 21.1538 7.42829 20.8493 7.23994 20.4867C7.09407 20.2057 7.09928 19.8356 7.37275 19.3236C7.5487 18.9941 7.62178 18.6488 7.5124 18.3177C7.40408 17.9903 7.14092 17.749 6.80439 17.5716C6.58884 17.4581 6.50237 17.3201 6.48505 17.1498C6.46502 16.9512 6.53416 16.6578 6.75849 16.2494L6.80927 16.1556L6.78095 15.9505C6.75613 15.7749 6.59335 15.6523 6.41767 15.6771C6.24295 15.7018 6.12117 15.8629 6.14423 16.0375C5.92778 16.4558 5.80998 16.8535 5.84638 17.2142Z" fill="#EBFD00"/>
<path d="M6.7832 15.9959C6.7832 11.0597 10.8665 7.04677 15.917 7.04669L15.917 6.40411C10.5237 6.40419 6.14063 10.6928 6.14063 15.9959L6.7832 15.9959Z" fill="#EBFD00"/>
<path d="M196.625 17.2059C196.584 17.5959 196.394 17.9123 196.069 18.1317C195.864 18.2702 195.762 18.4084 195.72 18.538C195.679 18.6661 195.682 18.8291 195.768 19.0448C196.007 19.6405 196.024 20.2107 195.759 20.7177C195.528 21.1598 195.215 21.5401 194.823 21.8573C194.499 22.1192 194.24 22.4368 194.044 22.8114C193.765 23.3471 193.268 23.6097 192.633 23.6259C192.195 23.637 191.914 23.8085 191.733 24.1366C191.585 24.4046 191.38 24.6122 191.11 24.7235C190.842 24.834 190.545 24.8347 190.242 24.7597C190.046 24.7113 189.894 24.7295 189.767 24.7919C189.635 24.8567 189.497 24.9854 189.365 25.2138C189.189 25.5168 188.95 25.7582 188.627 25.829C188.303 25.9001 187.989 25.7775 187.71 25.5712C187.48 25.4014 187.311 25.3141 187.199 25.2811C187.16 25.2697 187.135 25.2676 187.121 25.2675L186.989 25.4442L186.908 25.5526L186.774 25.5702L186.674 25.5839L186.356 25.6259L186.271 24.9891L186.556 24.9501L186.647 24.829L186.666 24.8036L186.689 24.7821C186.894 24.598 187.155 24.5988 187.378 24.664C187.598 24.7282 187.838 24.8678 188.091 25.0546C188.294 25.2045 188.419 25.2165 188.49 25.2011C188.563 25.185 188.677 25.1186 188.809 24.8915C188.984 24.5898 189.205 24.3516 189.484 24.2147C189.768 24.0755 190.078 24.057 190.396 24.1356C190.606 24.1876 190.756 24.1737 190.865 24.1288C190.972 24.0848 191.077 23.9957 191.17 23.8261C191.472 23.2791 191.973 22.9996 192.617 22.9833C193.063 22.972 193.322 22.806 193.474 22.5145C193.71 22.0625 194.025 21.6763 194.419 21.3583C194.744 21.0954 195 20.7828 195.19 20.4198C195.346 20.1215 195.36 19.7553 195.171 19.2841C195.044 18.9665 195.01 18.6457 195.109 18.3407C195.207 18.0373 195.422 17.7927 195.71 17.5985C195.878 17.4851 195.965 17.3397 195.986 17.1395C196.008 16.9222 195.953 16.6214 195.779 16.2225L195.743 16.1395L195.755 16.0487L195.769 15.9501C195.794 15.7744 195.957 15.6519 196.132 15.6766C196.308 15.7015 196.431 15.8643 196.406 16.0399L196.404 16.0516C196.576 16.468 196.661 16.8569 196.625 17.2059Z" fill="#EBFD00"/>
<path d="M195.764 15.9955C195.764 11.0592 191.68 7.04634 186.63 7.04626L186.63 6.40369C192.023 6.40376 196.406 10.6924 196.406 15.9955L195.764 15.9955Z" fill="#EBFD00"/>
<path d="M8.47121 15.9126C8.34163 15.4945 8.28523 15.1116 8.33352 14.7739C8.3868 14.4015 8.56336 14.0948 8.86574 13.8813C9.05117 13.7505 9.16405 13.6101 9.22512 13.4653C9.28588 13.3212 9.305 13.1488 9.26711 12.937C9.16046 12.3405 9.25952 11.8008 9.59524 11.352C9.89498 10.9513 10.2644 10.6252 10.6997 10.3755C11.0709 10.1625 11.4072 9.90121 11.7085 9.59128C12.1137 9.17469 12.6382 9.03088 13.2329 9.13718C13.6527 9.2121 13.9997 9.12769 14.3013 8.89401C14.5194 8.72492 14.7565 8.60694 15.0073 8.58933C15.2148 8.57483 15.4044 8.63251 15.5718 8.74167L15.7554 8.70847L16.1704 8.63425L16.2827 9.26706L16.228 9.27683C16.2203 9.35667 16.189 9.48097 16.0669 9.56589C15.9173 9.66981 15.7586 9.62593 15.6968 9.60398C15.5614 9.55575 15.4141 9.44152 15.2759 9.3198C15.1905 9.2446 15.1199 9.22621 15.0523 9.23093C14.9733 9.2365 14.8562 9.27753 14.6958 9.40183C14.2401 9.75516 13.7053 9.87461 13.1196 9.76999C12.7087 9.69655 12.4074 9.79374 12.1685 10.0395C11.8258 10.392 11.4426 10.6901 11.0191 10.9331C10.6595 11.1393 10.3569 11.4066 10.1099 11.7368C9.89893 12.0188 9.81887 12.3702 9.89992 12.8237C9.95596 13.137 9.93364 13.4385 9.81692 13.7153C9.70045 13.9913 9.49932 14.2198 9.23586 14.4057C9.0896 14.509 8.9996 14.6529 8.96926 14.8647C8.9372 15.0889 8.97236 15.3951 9.105 15.7964L9.13137 15.8755L9.11574 15.9565L9.09719 16.0551C9.06426 16.2295 8.89655 16.3439 8.72219 16.311C8.54784 16.2781 8.43341 16.1104 8.46633 15.936L8.47121 15.9126Z" fill="#EBFD00"/>
<path d="M9.10352 15.9951C9.10352 19.6714 12.1449 22.6628 15.9102 22.6631L15.9102 23.3057C11.802 23.3054 8.46094 20.0382 8.46094 15.9951L9.10352 15.9951Z" fill="#EBFD00"/>
<path d="M194.074 15.927C194.231 15.5043 194.303 15.1132 194.255 14.7678C194.2 14.3801 193.996 14.0742 193.66 13.8742C193.45 13.7494 193.333 13.6151 193.276 13.4807C193.219 13.3474 193.204 13.1784 193.262 12.9563C193.424 12.3361 193.358 11.769 193.01 11.303C192.706 10.8948 192.326 10.57 191.873 10.3303C191.495 10.1304 191.162 9.86986 190.872 9.54807C190.676 9.33098 190.439 9.18004 190.164 9.10861C189.891 9.03791 189.6 9.0498 189.299 9.12619C188.872 9.23503 188.537 9.15406 188.253 8.90158C188.039 8.71239 187.798 8.57569 187.533 8.56076C187.319 8.5488 187.13 8.61909 186.967 8.74045L186.372 8.634L186.259 9.26682L186.312 9.27658C186.313 9.343 186.325 9.4973 186.458 9.60373C186.619 9.73247 186.797 9.67533 186.863 9.64768C186.942 9.61447 187.014 9.56083 187.076 9.50998C187.141 9.45591 187.212 9.38868 187.288 9.31076C187.381 9.21406 187.448 9.1997 187.497 9.20236C187.559 9.2059 187.668 9.24262 187.827 9.38303C188.285 9.78967 188.844 9.90536 189.458 9.74924C189.678 9.69308 189.857 9.693 190.003 9.73068C190.145 9.7677 190.275 9.8464 190.394 9.97873C190.734 10.3556 191.127 10.6622 191.572 10.8977C191.942 11.0933 192.249 11.3564 192.496 11.6877C192.7 11.9613 192.766 12.3147 192.641 12.7942C192.556 13.1217 192.561 13.4408 192.685 13.7326C192.809 14.0231 193.036 14.2515 193.332 14.427C193.501 14.5275 193.591 14.6632 193.619 14.8576C193.649 15.0704 193.604 15.3714 193.443 15.7785L193.409 15.8655L193.426 15.9563L193.445 16.0549C193.478 16.2293 193.646 16.3437 193.82 16.3108C193.994 16.2778 194.109 16.1101 194.076 15.9358L194.074 15.927Z" fill="#EBFD00"/>
<path d="M193.439 15.9949C193.439 19.6711 190.398 22.6626 186.633 22.6628L186.633 23.3054C190.741 23.3052 194.082 20.0379 194.082 15.9949L193.439 15.9949Z" fill="#EBFD00"/>
<path d="M0.267731 17.1908C0.29276 17.6176 0.532635 17.9433 0.912262 18.1615C1.18262 18.3168 1.27029 18.4535 1.29117 18.5472C1.31076 18.6358 1.29185 18.7814 1.11441 19.0091C0.669356 19.5804 0.462052 20.1706 0.636872 20.7445C0.783161 21.2244 1.03381 21.6562 1.3859 22.0365C1.65864 22.3311 1.81628 22.6776 1.85953 23.0873C1.89224 23.3968 2.0186 23.6657 2.24429 23.8734C2.46398 24.0754 2.75662 24.2006 3.0939 24.2699C3.3518 24.3229 3.50533 24.4136 3.5939 24.514C3.67883 24.6104 3.73433 24.7495 3.7316 24.9642C3.72726 25.2977 3.81567 25.6052 4.04801 25.8285C4.27538 26.0469 4.59035 26.1355 4.93472 26.1468C5.16944 26.1547 5.27673 26.2265 5.33414 26.307C5.40204 26.4023 5.45399 26.5851 5.42203 26.9144C5.38437 27.3023 5.43195 27.6917 5.70718 27.9339C5.98696 28.1801 6.37715 28.1666 6.74722 28.0658C7.39467 27.8894 7.71808 27.9916 7.88101 28.1742C8.20474 28.5369 8.59558 28.7972 9.04898 28.9515C9.49948 29.1048 9.98018 29.1471 10.4855 29.0834C10.6368 29.0644 10.7559 29.0974 10.8634 29.1791C10.9801 29.2677 11.103 29.4294 11.215 29.6986C11.4797 30.335 11.8347 30.8292 12.2961 31.1478C12.716 31.4378 13.1618 31.6613 13.633 31.8177C14.123 31.9805 14.6261 32.0227 15.1369 31.9427C15.6373 31.8643 16.0836 31.6383 16.1632 31.1371L16.1681 31.1009L16.1662 31.0638L16.1613 31.0003L16.2072 31.0043L16.2609 30.3636L15.9406 30.3373L15.841 30.3285L15.467 30.2972L15.5207 31.058C15.4994 31.1324 15.4169 31.2475 15.0373 31.307C14.6275 31.3711 14.2278 31.3387 13.8351 31.2084C13.4238 31.0717 13.0328 30.875 12.6613 30.6185C12.3312 30.3905 12.0411 30.0125 11.8078 29.4515C11.6707 29.1221 11.4909 28.8488 11.2521 28.6673C11.0044 28.4792 10.7148 28.4065 10.4045 28.4457C9.98605 28.4984 9.60487 28.4627 9.25601 28.3441C8.90991 28.2263 8.61235 28.0277 8.3605 27.7455C7.94781 27.2831 7.29905 27.2493 6.57828 27.4457C6.2646 27.5311 6.15921 27.4754 6.13199 27.4515C6.10045 27.4238 6.02891 27.3151 6.06168 26.9769C6.10021 26.58 6.05524 26.2127 5.85758 25.9349C5.64922 25.6424 5.32211 25.5173 4.95523 25.5052C4.69826 25.4967 4.56343 25.4327 4.49332 25.3656C4.42824 25.303 4.37135 25.1912 4.37418 24.973C4.37856 24.6362 4.28826 24.3306 4.07535 24.0892C3.86606 23.8519 3.56879 23.7119 3.22379 23.641C2.95826 23.5864 2.78581 23.4991 2.67886 23.4007C2.57792 23.3079 2.51594 23.1876 2.4982 23.0199C2.44067 22.4749 2.22617 21.9981 1.85758 21.6C1.56835 21.2876 1.36782 20.9406 1.25113 20.558C1.16315 20.2693 1.23815 19.8965 1.62125 19.4046C1.85776 19.1011 1.99676 18.7595 1.91812 18.4066C1.84049 18.0592 1.57301 17.7995 1.23257 17.6039C1.00164 17.4711 0.919261 17.3225 0.909333 17.1537C0.897739 16.956 0.982233 16.6669 1.23843 16.2689L1.298 16.1761L1.28824 16.0668L1.27945 15.9671C1.26378 15.7904 1.10754 15.6595 0.930817 15.6752C0.756336 15.6906 0.628028 15.843 0.639801 16.017C0.391257 16.4258 0.246191 16.8213 0.267731 17.1908Z" fill="#EBFD00"/>
<path d="M1.2832 15.9959C1.2832 8.08184 7.8292 1.65509 15.917 1.65509L15.917 1.01251C7.48634 1.01251 0.640625 7.71502 0.640626 15.9959L1.2832 15.9959Z" fill="#EBFD00"/>
<path d="M201.901 16.0614C202.177 16.8863 202.172 17.6159 201.692 18.1191C201.542 18.2759 201.463 18.4273 201.433 18.5732C201.403 18.7185 201.417 18.8841 201.493 19.0771C201.705 19.6141 201.745 20.1411 201.588 20.6435C201.447 21.0954 201.24 21.5183 200.969 21.912C200.737 22.2494 200.567 22.617 200.459 23.0155C200.316 23.5453 199.972 23.9438 199.461 24.2079C199.098 24.3954 198.885 24.6648 198.796 25.0263C198.655 25.5964 198.281 25.9825 197.714 26.164C197.533 26.2219 197.4 26.3131 197.302 26.4316C197.202 26.5516 197.125 26.7161 197.082 26.9404C197.022 27.2564 196.89 27.531 196.661 27.7265C196.432 27.9224 196.14 28.0078 195.82 28.0136C195.344 28.0223 194.996 28.1509 194.745 28.37C194.398 28.6735 194.012 28.9139 193.588 29.0898C193.166 29.2649 192.721 29.3729 192.257 29.415C191.924 29.4452 191.622 29.6085 191.348 29.9443C191.002 30.367 190.604 30.6908 190.15 30.9071C189.725 31.1101 189.284 31.2685 188.829 31.3808C188.363 31.4958 187.889 31.5369 187.41 31.5038C187.174 31.4875 186.965 31.4524 186.798 31.3876C186.641 31.3266 186.461 31.2118 186.395 30.9989L186.337 31.0038L186.283 30.3632L186.604 30.3368L186.703 30.328L187.101 30.2948L187.049 30.6904L187.036 30.79C187.115 30.8198 187.25 30.848 187.455 30.8622C187.868 30.8907 188.274 30.8558 188.676 30.7568C189.088 30.655 189.487 30.5113 189.873 30.3271C190.231 30.1562 190.557 29.8959 190.851 29.537C191.215 29.091 191.666 28.8236 192.199 28.7753C192.601 28.739 192.981 28.6456 193.342 28.496C193.701 28.3471 194.028 28.1444 194.322 27.8866C194.713 27.5447 195.219 27.3827 195.809 27.372C196.022 27.3681 196.156 27.313 196.243 27.2382C196.332 27.1628 196.409 27.036 196.45 26.8202C196.509 26.5126 196.624 26.2409 196.808 26.0204C196.992 25.7984 197.234 25.6439 197.519 25.5527C197.883 25.4359 198.087 25.2155 198.172 24.872C198.308 24.3202 198.649 23.905 199.166 23.6376C199.535 23.4467 199.748 23.1843 199.839 22.8476C199.966 22.3793 200.166 21.9454 200.44 21.5478C200.674 21.2065 200.853 20.8417 200.975 20.4521C201.081 20.113 201.063 19.7377 200.896 19.3124C200.782 19.0242 200.744 18.7321 200.803 18.4452C200.861 18.1589 201.01 17.9022 201.227 17.6757C201.465 17.4265 201.549 16.9829 201.274 16.2011L201.25 16.1357L201.256 16.0663L201.265 15.9667C201.28 15.79 201.437 15.6591 201.613 15.6747C201.79 15.6904 201.921 15.8466 201.905 16.0234L201.901 16.0614Z" fill="#EBFD00"/>
<path d="M201.264 15.9955C201.264 8.08141 194.718 1.65466 186.63 1.65466L186.63 1.01208C195.061 1.01208 201.906 7.71459 201.906 15.9955L201.264 15.9955Z" fill="#EBFD00"/>
<path d="M88.4475 14.9524C90.1833 14.9524 91.5904 16.3595 91.5904 18.0952C91.5904 19.831 90.1833 21.2381 88.4475 21.2381C86.7118 21.2381 85.3047 19.831 85.3047 18.0952C85.3047 16.3595 86.7118 14.9524 88.4475 14.9524Z" fill="#EBFD00"/>
<path d="M174.017 31.8682C172.352 31.8682 170.958 31.5956 169.837 31.0504C168.717 30.4749 167.838 29.6873 167.202 28.6878C166.596 27.6579 166.233 26.4615 166.112 25.0984C166.021 23.7354 166.172 22.2512 166.566 20.6458L171.927 19.9643C171.715 21.2364 171.625 22.4632 171.655 23.6445C171.685 24.7955 171.882 25.7345 172.246 26.4615C172.609 27.1581 173.245 27.5065 174.154 27.5065C174.608 27.5065 174.987 27.4004 175.29 27.1884C175.593 26.9461 175.82 26.5978 175.971 26.1434C176.153 25.6588 176.244 25.0681 176.244 24.3715C176.244 23.069 176.017 21.9937 175.562 21.1456C175.108 20.2975 174.532 19.5705 173.836 18.9647C173.139 18.3589 172.412 17.7985 171.655 17.2836C170.989 16.7687 170.322 16.2386 169.656 15.6934C168.989 15.1482 168.384 14.5424 167.838 13.876C167.293 13.1793 166.854 12.3918 166.521 11.5134C166.218 10.635 166.066 9.62028 166.066 8.46927C166.066 6.95477 166.369 5.63716 166.975 4.51644C167.581 3.36542 168.459 2.47187 169.61 1.83578C170.792 1.1997 172.215 0.881653 173.881 0.881653C175.759 0.881653 177.289 1.27542 178.47 2.06296C179.651 2.85049 180.484 4.00151 180.969 5.516C181.454 7.00021 181.575 8.77216 181.333 10.8319L176.062 11.5134C176.153 10.8167 176.198 10.1049 176.198 9.37796C176.198 8.651 176.123 7.99977 175.971 7.42427C175.82 6.81847 175.562 6.33383 175.199 5.97035C174.866 5.60687 174.426 5.42513 173.881 5.42513C173.457 5.42513 173.094 5.54629 172.791 5.78861C172.488 6.00064 172.246 6.31868 172.064 6.74274C171.912 7.13651 171.837 7.62115 171.837 8.19666C171.837 9.07506 172.018 9.83231 172.382 10.4684C172.776 11.1045 173.26 11.6497 173.836 12.1041C174.442 12.5584 175.032 12.9976 175.608 13.4217C176.486 13.9972 177.304 14.6181 178.061 15.2845C178.849 15.9206 179.53 16.6475 180.106 17.4654C180.712 18.2529 181.181 19.1767 181.514 20.2369C181.847 21.2667 182.014 22.4632 182.014 23.8262C182.014 25.371 181.741 26.7644 181.196 28.0062C180.681 29.2178 179.833 30.172 178.652 30.8686C177.501 31.535 175.956 31.8682 174.017 31.8682Z" fill="white"/>
<path d="M155.223 31.3684V1.38144H161.084V31.3684H155.223ZM156.449 31.3684V26.416H167.944V31.3684H156.449Z" fill="white"/>
<path d="M147.426 31.3684V1.38144H153.332V31.3684H147.426Z" fill="white"/>
<path d="M128.289 31.3684L133.287 1.38144H141.511L146.508 31.3684H140.511L137.467 5.87948H137.149L134.286 31.3684H128.289ZM132.514 25.7345V21.7817H142.01V25.7345H132.514Z" fill="white"/>
<path d="M112.855 31.3684V1.38144H120.034C121.034 1.38144 121.973 1.5026 122.851 1.74492C123.76 1.98724 124.578 2.35071 125.305 2.83535C126.032 3.31999 126.653 3.91064 127.167 4.60731C127.713 5.30398 128.122 6.1218 128.394 7.06079C128.697 7.99978 128.849 9.04478 128.849 10.1958C128.849 11.1954 128.727 12.1343 128.485 13.0128C128.273 13.8912 127.91 14.6787 127.395 15.3754C126.88 16.072 126.228 16.6627 125.441 17.1473C124.653 17.6017 123.699 17.9197 122.579 18.1014V18.4649C124.063 18.5255 125.199 18.8133 125.986 19.3282C126.774 19.8431 127.349 20.5701 127.713 21.5091C128.076 22.448 128.334 23.5839 128.485 24.9167L129.394 31.3684H123.396L122.806 25.8254C122.715 24.8864 122.579 24.0231 122.397 23.2356C122.245 22.4178 121.942 21.7817 121.488 21.3273C121.034 20.873 120.307 20.6307 119.307 20.6004H118.626V31.3684H112.855ZM118.626 16.5567H119.171C120.473 16.5567 121.443 16.1175 122.079 15.2391C122.715 14.3607 123.033 12.9673 123.033 11.0591C123.033 9.30224 122.76 8.04521 122.215 7.28796C121.67 6.50043 120.822 6.10666 119.671 6.10666H118.626V16.5567Z" fill="white"/>
<path d="M101.751 31.8682C99.9642 31.8682 98.5708 31.2321 97.5713 29.9599C96.602 28.6878 95.9053 26.9007 95.4813 24.5986C95.0875 22.2966 94.8906 19.6008 94.8906 16.5112C94.8906 14.1486 95.0118 12.0132 95.2541 10.1049C95.5267 8.16637 95.9811 6.51557 96.6171 5.15252C97.2532 3.75919 98.1316 2.69904 99.2524 1.97209C100.373 1.24513 101.797 0.881653 103.523 0.881653C105.159 0.881653 106.477 1.1997 107.476 1.83578C108.506 2.44158 109.278 3.2897 109.793 4.38013C110.308 5.47057 110.611 6.69731 110.702 8.06035C110.823 9.4234 110.763 10.8167 110.52 12.2404L105.023 12.9219C105.204 11.3771 105.265 10.0443 105.204 8.92361C105.144 7.80289 104.947 6.93963 104.614 6.33383C104.311 5.69774 103.872 5.3797 103.296 5.3797C102.66 5.3797 102.145 5.80376 101.751 6.65187C101.388 7.4697 101.13 8.63586 100.979 10.1504C100.827 11.6346 100.752 13.4368 100.752 15.5571C100.752 17.7077 100.797 19.5402 100.888 21.0547C101.009 22.5692 101.176 23.7959 101.388 24.7349C101.63 25.6436 101.903 26.31 102.206 26.7341C102.539 27.1278 102.902 27.3247 103.296 27.3247C103.841 27.3247 104.296 27.037 104.659 26.4615C105.053 25.8557 105.356 25.0378 105.568 24.008C105.78 22.9478 105.901 21.7514 105.931 20.4186H103.569V16.2386H111.156V20.873V31.3684H107.249L107.476 22.5995H107.022C107.022 24.326 106.885 25.9011 106.613 27.3247C106.34 28.718 105.825 29.8236 105.068 30.6415C104.311 31.4593 103.205 31.8682 101.751 31.8682Z" fill="white"/>
<path d="M73.7211 31.3684V21.2365L67.6328 1.38144H74.2209L76.8106 15.8751H76.9924L79.5822 1.38144H85.7613L79.7185 21.2365V31.3684H73.7211Z" fill="white"/>
<path d="M59.1484 31.3684V1.38144H65.0095V31.3684H59.1484ZM60.3752 31.3684V26.416H71.8702V31.3684H60.3752Z" fill="white"/>
<path d="M48.9634 31.8682C47.3581 31.8682 46.0253 31.5199 44.9652 30.8232C43.905 30.1265 43.0569 29.1118 42.4208 27.7791C41.815 26.4463 41.391 24.8409 41.1486 22.963C40.9063 21.085 40.7852 18.9799 40.7852 16.6475C40.7852 13.1036 41.0123 10.1655 41.4667 7.83318C41.9513 5.50086 42.7994 3.75919 44.011 2.60818C45.2226 1.45716 46.9037 0.881653 49.0543 0.881653C50.6899 0.881653 52.0378 1.21484 53.098 1.88122C54.1884 2.51731 55.0517 3.48658 55.6878 4.78905C56.3239 6.09151 56.7782 7.74231 57.0508 9.74144C57.3234 11.7103 57.4597 14.0123 57.4597 16.6475C57.4597 19.0101 57.3234 21.1304 57.0508 23.0084C56.7782 24.8864 56.3239 26.4917 55.6878 27.8245C55.0517 29.127 54.1884 30.1265 53.098 30.8232C52.0076 31.5199 50.6294 31.8682 48.9634 31.8682ZM49.0997 27.3247C49.7358 27.3247 50.2356 26.9764 50.5991 26.2797C50.9626 25.5528 51.22 24.3866 51.3715 22.7812C51.5229 21.1456 51.5986 18.995 51.5986 16.3295C51.5986 13.664 51.5078 11.5437 51.326 9.96861C51.1746 8.36325 50.902 7.21223 50.5082 6.51557C50.1447 5.8189 49.6601 5.47057 49.0543 5.47057C48.4485 5.47057 47.9639 5.83405 47.6004 6.561C47.2672 7.25767 47.0249 8.39354 46.8734 9.96861C46.722 11.5437 46.6462 13.6488 46.6462 16.2841C46.6462 18.2832 46.6765 19.9946 46.7371 21.4182C46.828 22.8115 46.9643 23.9474 47.146 24.8258C47.3278 25.6739 47.5701 26.31 47.873 26.7341C48.2062 27.1278 48.6151 27.3247 49.0997 27.3247Z" fill="white"/>
<path d="M33.3195 31.3684V1.38144H39.0897V31.3684H33.3195ZM23.1875 31.3684V1.38144H28.9577V31.3684H23.1875ZM26.7314 18.4195V13.6034H35.7729V18.4195H26.7314Z" fill="white"/>
</svg>
