<svg xmlns="http://www.w3.org/2000/svg" width="487" height="104" fill="none" viewBox="0 0 487 104"><path fill="#fff" d="M486.026 64.908q0 1.224-.648 2.16-.576.864-.432 2.16a5 5 0 0 0-1.656 1.512q-.648.936-1.224 1.944a45.8 45.8 0 0 1-10.224 4.968 32.7 32.7 0 0 1-11.161 1.945q-.36 0-.648-.36a8 8 0 0 1-.576-.648 9 9 0 0 0-.648-.72.98.98 0 0 0-.72-.289q-.504 0-.792.216v-.288q.072-.072.072-.216 0-.864-.216-1.8a7 7 0 0 1-.216-1.728q0-1.008.36-1.656h.864q.72 0 1.368-.072a7.7 7.7 0 0 1 1.513-.144q.791 0 1.44.432 3.96-.144 7.488-1.44 3.6-1.368 7.272-2.664.576-.792.648-1.728a6.1 6.1 0 0 1 .576-1.872q-1.872-1.584-3.816-2.448-1.872-.936-4.392-.648a7.2 7.2 0 0 0-3.24-1.08 44 44 0 0 1-3.384-.432q-.432-.072-.936-.144a3 3 0 0 0-.937-.144q-.36 0-.719.216-.29.144-.145.504-.36-.576-1.008-.648a2.14 2.14 0 0 1-1.008-.576q-2.304-.144-4.032-.792-1.728-.72-3.816-1.584a5 5 0 0 0-1.152-.288 4.6 4.6 0 0 1-1.008-.432q-1.296-.648-2.088-1.728a8.6 8.6 0 0 1-1.224-2.376 14.2 14.2 0 0 1-.72-2.808q-.216-1.44-.432-2.664.648-1.152 1.224-2.376.504-1.224.864-2.592.432-.216.864-.36t.936-.36a.8.8 0 0 1-.072-.36q0-.36.216-.72.288-.36.144-.72a59 59 0 0 0 3.024-2.952 18 18 0 0 0 2.592-3.456q1.08-.36 1.728-1.08l1.296-1.44a7.7 7.7 0 0 1 1.44-1.369q.792-.648 2.016-.792.288-.504.793-.791.504-.36 1.008-.648a6.5 6.5 0 0 0 .936-.648q.432-.36.648-1.009 1.152 0 2.088-.431 1.008-.433 1.944-.937a34 34 0 0 1 1.872-.936 5.4 5.4 0 0 1 2.16-.432q.288 0 .576.072.288 0 .648.072.504.504.648 1.224.216.648.288 1.44.072.793.072 1.585.072.791.288 1.44a33 33 0 0 1-1.44 2.448 4.86 4.86 0 0 1-1.944 1.872h-.144a1.3 1.3 0 0 1-.936-.216 1.8 1.8 0 0 0-1.008-.288q-.36 0-.576.216l-.36.36q-.144.144-.432.288-.216.144-.648 0-1.008.36-.792 1.224-1.368.144-2.304.864-.936.648-1.728 1.512a46 46 0 0 1-1.585 1.512q-.792.648-1.872.72a15.6 15.6 0 0 1-3.024 3.816 15.6 15.6 0 0 0-2.88 3.744q.216.576.288 1.224t.216 1.368q.648.864 1.512 1.512.936.648 1.8 1.296h.216q1.44 0 2.664.576 1.224.504 2.593.504.72 0 1.224-.288 1.872.432 3.672.72 1.872.288 3.744.432.936.144 1.872.144 1.008 0 1.872.216a10.5 10.5 0 0 1 1.584.576q.792.288 1.584.648a27 27 0 0 1 3.096 1.584 11.4 11.4 0 0 1 2.664 2.088 8.2 8.2 0 0 1 1.8 2.736q.648 1.512.648 3.528"/><path fill="#fff" d="M452.127 55.476q0 .792-.576 1.224-.576.36-.576 1.008 0 .288.288.72-1.008 0-1.368.648t-.72 1.44h-.936q-.36 0-.576.144t-.432.432q-.144.216-.432.72-1.368.288-2.664.936-1.224.576-2.448 1.296-1.152.648-2.376 1.368-1.224.648-2.52 1.08-.648 1.08-1.872 1.728h-.216a.98.98 0 0 1-.648-.072q-.216-.216-.576-.216-.216 0-.288.072-2.16 1.44-4.824 1.44a12 12 0 0 1-1.368-.072 6.3 6.3 0 0 0-1.368-.144q-.216 0-.288.144l-.144.288q-.072.144-.216.288-.072.144-.504.144a6 6 0 0 1-1.584-.216 3.8 3.8 0 0 0-1.656-.072q-1.656-.936-2.592-1.8t-1.728-2.592a6 6 0 0 0-1.008-1.512 5.1 5.1 0 0 1-.864-1.584 25 25 0 0 1-.216-1.008 115 115 0 0 1-.288-1.656q-.144-.864-.288-1.656a15 15 0 0 1-.072-1.08q0-.864.072-1.656l.288-1.728q.432-2.736.576-5.472a18.8 18.8 0 0 1 1.224-5.4 8.5 8.5 0 0 1-.144-1.512v-1.584q0-1.368-.36-2.304.576-.936.576-2.088 0-1.296-1.08-1.512v-.216q0-1.512-1.008-2.376 0-2.52 1.224-3.744 1.296-1.296 3.384-2.232.288-.432.216-.72.504.144.936.288t.864.144q.72 0 1.296-.216.216.864 1.08 1.08.936.144 1.512.432v.936a8.9 8.9 0 0 0 1.08 4.248 3.6 3.6 0 0 0-.36 1.224q-.072.648-.072 1.224 0 .864.072 1.728t.072 1.656q0 .864-.216 1.728a2.73 2.73 0 0 1-.792 1.512q-.072.936-.144 2.16 0 1.152-.144 2.376a13 13 0 0 1-.36 2.376q-.288 1.152-.864 1.872-.072 1.08-.144 2.232v2.088q0 1.584.144 3.744.216 2.16 1.008 3.6.36.576 1.368.864 1.08.288 1.728.288.792 0 1.584-.216.864-.288 1.224-.936.432.072.576.432t.504.576a293 293 0 0 1 8.208-3.312 76 76 0 0 0 8.064-3.672 2.7 2.7 0 0 0 1.224.288q.72 0 1.44-.144t1.44-.144h.504q.144.432.144.648m-43.868 8.64q-.36.576-.864 1.08-.504.432-.936.936a2.9 2.9 0 0 1-1.152.216h-1.152a3.6 3.6 0 0 0-1.008 0 .98.98 0 0 0-.72.288q-.576-.144-.865-.504-.288-.432-1.008-.504a1.2 1.2 0 0 0-.576 0 27 27 0 0 1-2.016-2.592 282 282 0 0 0-1.656-2.592 52 52 0 0 0-.432-5.4q-.072-.648-.216-1.296a13 13 0 0 1-.216-1.224q0-.72.072-1.368.144-.72.216-1.296.288-2.088.648-4.104t.648-4.104q.288-1.872.288-3.888 0-2.088-.648-3.888l-.072-.36q.144-.576.288-.936.216-.432.288-.936.144-.792-.36-1.152.216-.576.72-.72.504-.216.576-.864a1.2 1.2 0 0 0 0-.576q.576-.216 1.152-.36.648-.216 1.224-.072a3.9 3.9 0 0 1 1.657.648q.72.432 1.368 1.008 1.152 3.456.936 7.344a107 107 0 0 1-.72 7.704 85 85 0 0 0-.648 7.632q-.144 3.672 1.152 6.84l.144.072a.54.54 0 0 0 .576-.216q.216-.36.576-.288.288.144.36.144.288 1.44.936 2.736t1.44 2.592m-14.24 4.609q-.216 1.008-.936 1.656-.648.574-1.584.936a9 9 0 0 1-1.944.504q-.936.071-1.728.072h-.72a2.7 2.7 0 0 0-.648-.073q-.36 0-.36.36t-.36.505a4 4 0 0 0-.72-.216 3.7 3.7 0 0 0-.72-.072q-.504 0-1.008.072a5 5 0 0 1-.864.072q-.576 0-.864-.144l-.432-.288a3 3 0 0 0-.36-.432q-.144-.218-.504-.36-.504-.216-.864-.072-.288.144-.936-.433a7.5 7.5 0 0 1-1.512-1.727 95 95 0 0 1-1.152-2.233 54 54 0 0 0-1.224-2.304 9.2 9.2 0 0 0-1.512-2.016h-.576q-1.296 0-1.8 1.08a7 7 0 0 1-.72-.504 3 3 0 0 0-.792-.576 36 36 0 0 1-3.456.864q-1.8.36-3.6.36h-1.008q-.432 0-.936-.144-.72.288-1.296.72-.576.36-1.296.36-.432 0-1.008-.288-.432 0-.432.36.072.36-.432.36h-.648q-1.008 0-2.016.072a25 25 0 0 1-1.944.072q-1.368 0-2.808-.36a1.5 1.5 0 0 1-.792.216q-.288.144-.432.504l-.288.576q-.144.216-.432.432-.216.144-.648.073-.144.863-.72 1.367-.577.505-.577 1.513-.792.431-1.296 1.08-.504.647-1.008 1.368-.504.72-1.08 1.368a3.4 3.4 0 0 1-1.296 1.008q-.36.432-.216 1.368-.792.648-1.944 1.152t-2.16.504q-2.088 0-2.88-2.232 0-.72.144-1.512a7.8 7.8 0 0 1 .288-1.584q.216-.792.648-1.368.432-.65 1.224-.936 0-.648-.432-.865-.432-.287-.36-.936a11.5 11.5 0 0 0 3.384-2.448 27 27 0 0 0 2.592-3.168l2.448-3.456a18.8 18.8 0 0 1 2.737-3.096v-1.512q2.16-2.304 2.808-5.184.792-.144 1.008-.72.288-.576.288-1.368.36 0 .432-.288.144-.36.648-.216a24 24 0 0 1 1.44-3.168l1.584-2.88q.792-1.512 1.368-3.096.648-1.584.936-3.528 1.008-.072 1.08-.936.144-.936.288-1.656a6.1 6.1 0 0 0 1.584-2.376 28 28 0 0 0 1.008-2.808q.432-1.512.936-2.952a8.7 8.7 0 0 1 1.584-2.664v-.216q0-.36-.288-.432-.288-.144-.288-.504.072-.072.072-.144a2.54 2.54 0 0 0 1.296-1.152 2.48 2.48 0 0 1 1.296-1.225q1.512 1.224 2.664 1.513 1.152.216 3.024.36.936 1.008 1.008 2.448.144 1.368.504 2.736a125 125 0 0 0 1.224 4.536q.72 2.16 1.08 4.464.216 1.368.792 2.592t.792 2.52q.144 1.008 0 2.304-.144 1.224.288 2.16l.504 1.152q.36.792.576 1.656.288.864.504 1.728.576 2.16 1.008 4.68.504 2.448 1.512 4.464.36.72 1.08 1.008a9 9 0 0 0 1.728.432q.936.072 1.8.072a21 21 0 0 1 1.584-.072h.72q.432 0 .864.144.288.576.288 1.008 0 .864-.576 1.368t-.576 1.152q0 .36.288.792-.288-.072-.864-.072a9.4 9.4 0 0 0-3.24.576 6.7 6.7 0 0 0 1.512 2.088 33 33 0 0 0 2.088 1.512q.72-.576 1.512-.576.864 0 1.584.432.792.36 1.656.36.648 0 .936-.216.576.648.936 1.368.36.648.936 1.225m-22.536-11.52q-.144-1.225-.504-1.729a7.5 7.5 0 0 1-.504-1.368 14 14 0 0 1-.432-2.16 17 17 0 0 0-.288-2.232 90 90 0 0 0-1.152-4.896 32 32 0 0 0-1.512-4.752q.288-.432.288-.792v-.216a4.3 4.3 0 0 1-.936-1.728q-.288-1.08-.576-2.088a7.7 7.7 0 0 0-.648-1.944 3.14 3.14 0 0 0-1.224-1.512 2.2 2.2 0 0 0-.216 1.008q0 .504.072.936.144.432.144.936-.72.36-1.08 1.152-.288.72-1.008 1.152-.576 2.304-1.656 4.392a86 86 0 0 1-2.304 4.032 112 112 0 0 0-2.232 4.104 22 22 0 0 0-1.728 4.248q-.936.648-1.296 1.656a7.3 7.3 0 0 0-.288 2.016 3.6 3.6 0 0 0 1.44.432h1.656q.792 0 1.512.144t1.296.72a8.8 8.8 0 0 1 2.016-.36q1.152-.144 1.872-.648 1.44.504 3.096.504.864 0 1.656-.144a17 17 0 0 0 1.656-.36q.648.144 1.008.504.36.288 1.08.216.36-.288.432-.576.072-.36.36-.648"/><path fill="#fff" d="M366.797 61.452q-.144 1.08-.792 1.656-.576.576-1.368 1.08a3.7 3.7 0 0 0-.72-.072 2.7 2.7 0 0 0-.648-.072 12.5 12.5 0 0 0-4.248.576 22.4 22.4 0 0 1-4.032.936q-.72.144-1.368.144a3.6 3.6 0 0 0-1.224.072q-2.304.36-4.896.576a95 95 0 0 0-5.184.576 60 60 0 0 0-5.112.792q-2.448.432-4.608 1.297l-.432-.288a.7.7 0 0 0-.504-.216q-.72 0-1.368.216t-1.296.144a5.8 5.8 0 0 1-1.584.647q-.792.144-1.656.288a9 9 0 0 0-1.584.288 4.2 4.2 0 0 0-1.513.793q-.576-.289-1.44-.288-.792-.072-1.08-.576-1.656.792-3.528 1.007-1.8.216-3.672.144a24 24 0 0 1-2.808-.36 25.5 25.5 0 0 1-3.168-.791 24 24 0 0 1-2.952-1.296q-1.368-.792-2.088-1.873a4.7 4.7 0 0 1-.72-1.584 1.96 1.96 0 0 0-1.008-1.296q.216-1.656.504-3.24t.576-3.24a35 35 0 0 0 5.184-5.472q1.368-.648 2.52-1.584 1.224-.936 2.376-1.872a465 465 0 0 1 2.376-1.944 18 18 0 0 1 2.592-1.656q.216-.504.576-.792.432-.36.864-.648.432-.36.792-.72.36-.432.504-1.008a16.7 16.7 0 0 0 4.393-3.816 11.8 11.8 0 0 0 2.448-5.184 6.04 6.04 0 0 0-2.809-1.296 22 22 0 0 0-3.168-.504 32 32 0 0 0-3.024 0q-1.512.072-3.096-.072-1.584.504-3.312.648l-3.312.288a19.6 19.6 0 0 0-3.312.432 9.7 9.7 0 0 0-3.096 1.152q-.288 0-.576-.072a1.6 1.6 0 0 0-.504-.072 8.9 8.9 0 0 0-4.32.936 313 313 0 0 0-3.96 1.872q-.144.288-.144.432 0 .432.144.864.216.36.216.792-.072.072-.072.144t-.072.144a2.6 2.6 0 0 1-.216.648q-.072.288-.216.648-.792 2.304-.864 4.536a47 47 0 0 0 0 3.672q.072 1.8 0 3.672a20.3 20.3 0 0 1-.72 4.32q.36 1.728.648 3.672.288 1.872.72 3.744a46 46 0 0 0 1.008 3.672 17.8 17.8 0 0 0 1.656 3.313q-.072.144.072.216a.64.64 0 0 0 .288.072h.576q.36 0 .288.288.144.216.216.431.072.144.288.288.144.217 0 .576a6.3 6.3 0 0 1-.72 2.665 7.2 7.2 0 0 0-.792 2.664 6.6 6.6 0 0 1-1.584.216q-1.224-.072-2.16-.72a8 8 0 0 1-1.728-1.44 49 49 0 0 1-1.512-1.728 8.3 8.3 0 0 0-1.584-1.584 110 110 0 0 1-1.008-4.465q-.432-2.448-1.512-4.176.288-.648.288-1.584a9.2 9.2 0 0 0-.288-2.808 9.7 9.7 0 0 1-.144-2.88q0-.792.144-1.584.216-.792.288-1.584a6.6 6.6 0 0 0-.288-2.376 7.8 7.8 0 0 1-.216-2.376q.072-.576.216-1.08.216-.576.576-1.008-.36-.864-.216-1.656.072-1.224.288-2.304t.288-2.16q0-.576-.072-1.08a7 7 0 0 0-.216-1.08l-.648-.216q-.432 0-.864.216-.36.216-.648.504l-.504.504a.77.77 0 0 1-.432.144h-.36a.64.64 0 0 0-.288-.072q-.144 0-.576.288-.36.288-.936.648a12 12 0 0 0-1.008.648q-.504.288-.792.36-.792-.144-1.296-.504a13 13 0 0 0-.864-.792 3.7 3.7 0 0 0-.792-.72q-.432-.36-1.08-.288a2.1 2.1 0 0 1-.216-.936 3.6 3.6 0 0 1 0-1.008v-1.152a4.15 4.15 0 0 1 1.368-1.512 8 8 0 0 1 1.728-1.08l1.872-.864a8 8 0 0 0 1.728-1.08h.648q1.296.072 2.232-.504a13 13 0 0 0 1.872-1.296l1.728-1.584a7.3 7.3 0 0 1 2.016-1.224q.792.36 1.656.648.864.216 1.8.288.936 0 1.944-.288t1.584-1.08q.36.144.576.216h.648q1.08.072 2.16-.288 1.08-.432 2.088-1.008 1.44.072 2.808-.144 1.44-.288 2.808-.576 1.44-.288 2.808-.504 1.44-.288 2.88-.216a19 19 0 0 0 4.68-.432 17 17 0 0 1 4.68-.36q1.656.072 3.241.288 1.656.144 3.312.072.936.432 1.656.792.792.288 1.944.144a25.2 25.2 0 0 1 4.176 4.536v1.224a12.4 12.4 0 0 1-.576 3.24 29 29 0 0 1-1.224 3.168 43 43 0 0 1-1.44 3.024q-.792 1.44-1.512 2.88-4.68 4.248-9.361 8.424a195 195 0 0 1-9.648 8.064 5 5 0 0 1-.432 1.296q-.216.576-.288 1.224 0 .36.072.576.504.144.864.576.432.36.288 1.008h.648q.36 0 .36.288l1.152.072q2.736.144 5.472-.144t5.473-.648q2.808-.36 5.544-.648a53 53 0 0 1 5.472-.432q.648-.216 1.368-.36t1.296-.576h.216q.504 0 .72.288.288.288.792.36.36 0 .72-.144.432-.144.864-.216a10 10 0 0 1 2.088-.36 32 32 0 0 0 2.232-.216q4.176-.36 8.28-.432a43.7 43.7 0 0 0 8.208-1.08q.36.504 1.008.72.648.144 1.368.36.72.144 1.296.36.648.216.864.864"/><path fill="#fff" d="M302.324 43.515a13 13 0 0 1-.504 1.944 7.5 7.5 0 0 1-.864 2.016 5.6 5.6 0 0 1-1.296 1.512q-.792.576-1.872.576a9 9 0 0 1-1.584-.144 6.3 6.3 0 0 0-1.656-.216q-.36 0-.792.288a1.4 1.4 0 0 1-.72.216q-.36 0-.648-.072-.216-.144-.576-.144-.216 0-.792.144t-1.224.288-1.224.36a13 13 0 0 0-.792.216 60 60 0 0 1-3.888 1.152q-1.944.504-4.032.648-.432-.144-1.296-.288-.864-.216-1.296-.216-.864 0-1.152.72-.216.72-.936 1.08c-.576.336 6.299-1.56 5.435-1.512q-1.296.072-2.592.216a10 10 0 0 0-2.448.576q-1.08.36-1.584 1.44a4 4 0 0 0-.792-.072 4 4 0 0 0-.792-.072q-2.304 0-4.32.936a60 60 0 0 1-4.104 1.584q.36.648.504 1.584l.288 1.872q.144.864.36 1.728.288.792.936 1.224 0 .432-.216.72-.144.288-.36.504l-.504.504q-.216.217-.288.648a7.4 7.4 0 0 0-.216 1.8q0 .864-1.008 1.296.072.217.072.793 0 .72-.216 1.368a3.5 3.5 0 0 0-.144 1.44 18.5 18.5 0 0 0-2.088 2.808q-.792 1.44-1.224 3.096a290 290 0 0 1-5.473 5.328 98 98 0 0 1-5.688 5.256 81 81 0 0 1-5.976 4.752 48 48 0 0 1-6.408 4.032h-.504q-1.656 0-2.592.576t-2.376 1.008q-1.08-.288-2.592-.288-.864 0-1.8.072-.864.072-1.8.072a8 8 0 0 1-2.232-.288 29 29 0 0 1-1.872-.648q-.864-.36-1.8-.72a9 9 0 0 0-2.016-.504q-4.464-4.464-7.056-10.44-2.592-5.904-2.592-12.168 0-2.88.792-5.617.792-2.807.792-5.616a43 43 0 0 0 2.232-5.328l2.016-5.472a88 88 0 0 1 2.16-5.328 32.6 32.6 0 0 1 2.88-5.04q.36-1.872 1.152-3.24t1.728-3.024q0-1.584.648-2.88.72-1.368.864-3.024a9.2 9.2 0 0 0 1.872-2.448q.72-1.368 1.368-2.808t1.44-2.736a7.5 7.5 0 0 1 2.304-2.304q.144-.504.144-1.08.072-.648.36-1.008l1.512-1.656a22 22 0 0 0 1.296-1.873q.648-1.006 1.368-1.8.432-.43.936-.72.504-.288.864-.648t.216-.936q-.072-.576.288-.936.144-.144.432-.288t.504-.288a11.5 11.5 0 0 0 1.584-1.296q.648-.648 1.8-.936a20 20 0 0 0 1.8-1.584 23 23 0 0 1 1.728-1.44 7 7 0 0 1 1.872-1.008q1.008-.432 2.52-.432.288 0 .576.072h.576q2.952 2.736 3.672 6.696a10 10 0 0 0-1.296 2.16 24 24 0 0 1-1.008 2.305 7.9 7.9 0 0 0-2.304 1.296q-1.08.791-2.16 1.656a13.4 13.4 0 0 1-2.16 1.512q-1.08.648-2.448.648-.576.504-1.872 1.656-1.224 1.08-2.592 2.304-1.296 1.224-2.448 2.304-1.08 1.08-1.368 1.512-.216.36-.36.648a9 9 0 0 0-.288.648l-1.872 3.168a201 201 0 0 1-3.24 5.4 37 37 0 0 0-2.88 5.472 19 19 0 0 0-.936 2.592q-.36 1.296-.72 2.736a7 7 0 0 1-.36.864q-.216.432-.36.792a28 28 0 0 0-1.296 2.808q-.504 1.296-.576 3.024-1.8 4.032-3.384 8.136a49 49 0 0 0-2.304 8.353q.432 1.44.36 2.952v2.88q0 1.8.216 2.952.288 1.224.72 2.16a41 41 0 0 0 1.08 2.016q.576 1.08 1.224 2.52 1.08.864 1.944 1.8a26 26 0 0 1 1.656 2.16q2.736 1.368 5.544 1.368 2.016 0 4.104-.648a24.6 24.6 0 0 0 4.032-1.656 38 38 0 0 0 3.888-2.088 616 616 0 0 0 3.6-2.232q3.024-1.8 5.256-3.888a38 38 0 0 0 4.032-4.392 45 45 0 0 0 3.456-4.896 903 903 0 0 0 3.313-5.617 4.5 4.5 0 0 1 .288-.864l.432-1.08q.216-.576.36-1.008.216-.504.216-.648 0-.576-.288-.792-.216-.288-.216-.576 0-.576.288-.792t.648-.432a2.7 2.7 0 0 0 .72-.504q.36-.288.36-1.08-.144-.072-.504-.072t-.72.072-.72.072q-.864 0-1.44-.576-.36.144-.72.504-.36.288-.721.648-.288.36-.576.648t-.504.288q-.36 0-.576-.144-.144-.144-.432-.144-1.224 0-2.16.576a9.7 9.7 0 0 1-2.016.936h-.432a1.4 1.4 0 0 0-.432-.072q-.792 0-1.584.288-.72.216-1.44.504-.648.288-1.368.504a3.7 3.7 0 0 1-1.44.144q-1.584.576-2.952 1.224-1.296.648-3.024.504-.504.216-1.08.504a5.4 5.4 0 0 0-1.008.576q-.432.144-.648.144-.36 0-.576-.36-.576.65-1.512.936-.936.216-1.944.432-1.008.144-1.944.433a2.3 2.3 0 0 0-1.368.936q-.792-.648-1.872-.648t-2.088.431q-1.008.36-2.16.36-.432 0-.576-.143a22 22 0 0 0-.648-1.584 2.25 2.25 0 0 0-1.152-1.153 88 88 0 0 0-.288-1.512 17 17 0 0 1-.072-1.512q0-1.944 1.152-3.528a16 16 0 0 1 2.016-.576 27 27 0 0 0 2.088-.648 18 18 0 0 0 3.168.288q2.952 0 5.76-.72a187 187 0 0 0 5.544-1.656 94 94 0 0 1 5.256-1.44q2.664-.648 5.328-1.44a85 85 0 0 0 4.968-1.44 20.2 20.2 0 0 1 5.113-1.08q1.728-1.224 4.176-1.656a71 71 0 0 0 4.608-.936q3.312-.792 6.552-1.584c2.16-.576-3.227 1.008-.971.576a70 70 0 0 0 7.272-1.944q3.6-1.152 7.2-2.448h.72q1.224 0 2.52-.288a12 12 0 0 1 2.592-.288q.36 0 .576.072h.576q.216 0 1.08-.288.864-.36 1.224-.504.936 1.008 2.088 1.8a10.4 10.4 0 0 1 2.016 1.8"/><path fill="#ebfd00" d="M405.682 13.466a7.599 7.599 0 1 1-15.198 0 7.599 7.599 0 0 1 15.198 0"/><path fill="#0c284a" d="M400.077 13.466a1.991 1.991 0 1 1-3.982.002 1.991 1.991 0 0 1 3.982-.002"/><path fill="#fff" d="M160.091 83.956 144.329 73.01V42.252l-4.05-4.707-4.378 2.627-1.533-2.08 14.668-9.96 8.428 9.96v28.022l12.698 7.99v-1.422l-.11-30.43-5.801-7.006 10.508-7.115 9.961 11.713V68.74q0 4.488.766 6.568t1.533 3.284q.875 1.203.875 3.174 0 2.408-1.313 3.722a10.6 10.6 0 0 1-3.065 2.298 40 40 0 0 0-3.175 1.97l-20.25 14.23q-1.751-2.517-4.597-4.269-2.737-1.642-6.568-1.642-4.597 0-8.319 2.737l-1.532-1.095q1.861-4.815 6.458-8.428 4.598-3.612 10.946-3.612 8.1 0 13.573 5.692 1.751-.11 2.846-1.533 1.095-1.313 1.095-3.174 0-2.299-.766-3.722-.657-1.312-1.533-2.955-.875-1.752-1.313-5.145zm-37.448 0-11.493-9.96-4.269 2.626-1.532-2.08 7.333-4.706V22.11q0-3.831-.875-5.254-.766-1.532-4.379-2.627v-1.642L125.27 0h2.08v70.82l4.269 4.27 3.065-2.627 1.642 2.08zm-65.705-7.443-1.97-2.299 5.582-4.597V41.485l24.629-14.12 15.762 12.04v29.883L76.86 83.956 61.426 72.9zm30.43-.876V44.112L74.78 35.684v31.525zm-70.073 8.319L6.02 74.433 1.86 77.06 0 74.542l7.334-4.706V19.922q0-1.314-.657-2.846-.657-1.642-4.597-2.846v-1.642L19.922 0h2.08v40.61l13.682-12.807 11.603 9.742 4.269-3.503 1.97 2.299-4.707 3.83v31.307q0 4.269-.985 8.647-.876 4.27-3.393 7.99-2.409 3.723-6.896 5.911-4.488 2.3-11.603 2.299-1.752 0-3.393-.328V93.37q4.05 0 6.677-3.175 2.736-3.064 4.05-7.99 1.314-5.036 1.313-10.727V43.565l-6.458-5.363-6.13 5.692V70.82l3.613 3.612 3.393-2.408 1.97 2.517z"/></svg>