<svg width="487" height="193" viewBox="0 0 487 193" fill="none" xmlns="http://www.w3.org/2000/svg">
<path d="M486.026 153.641C486.026 154.457 485.81 155.177 485.378 155.801C484.994 156.377 484.85 157.097 484.946 157.961C484.274 158.345 483.722 158.849 483.29 159.473C482.858 160.097 482.45 160.745 482.066 161.417C478.898 163.481 475.49 165.137 471.842 166.385C468.242 167.681 464.522 168.329 460.681 168.329C460.441 168.329 460.225 168.209 460.033 167.969C459.841 167.777 459.649 167.561 459.457 167.321C459.265 167.081 459.049 166.841 458.809 166.601C458.617 166.409 458.377 166.313 458.089 166.313C457.753 166.313 457.489 166.385 457.297 166.529C457.297 166.433 457.297 166.337 457.297 166.241C457.345 166.193 457.369 166.121 457.369 166.025C457.369 165.449 457.297 164.849 457.153 164.225C457.009 163.649 456.937 163.073 456.937 162.497C456.937 161.825 457.057 161.273 457.297 160.841H458.161C458.641 160.841 459.097 160.817 459.529 160.769C460.009 160.673 460.513 160.625 461.042 160.625C461.57 160.625 462.049 160.769 462.482 161.057C465.122 160.961 467.618 160.481 469.97 159.617C472.37 158.705 474.794 157.817 477.242 156.953C477.626 156.425 477.842 155.849 477.89 155.225C477.986 154.553 478.178 153.929 478.466 153.353C477.218 152.297 475.946 151.481 474.65 150.905C473.402 150.281 471.938 150.065 470.258 150.257C469.25 149.633 468.17 149.273 467.018 149.177C465.914 149.081 464.786 148.937 463.634 148.745C463.346 148.697 463.034 148.649 462.698 148.601C462.41 148.505 462.097 148.457 461.761 148.457C461.521 148.457 461.281 148.529 461.042 148.673C460.849 148.769 460.801 148.937 460.897 149.177C460.657 148.793 460.321 148.577 459.889 148.529C459.505 148.433 459.169 148.241 458.881 147.953C457.345 147.857 456.001 147.593 454.849 147.161C453.697 146.681 452.425 146.153 451.033 145.577C450.649 145.433 450.265 145.337 449.881 145.289C449.545 145.193 449.209 145.049 448.873 144.857C448.009 144.425 447.313 143.849 446.785 143.129C446.257 142.409 445.849 141.617 445.561 140.753C445.225 139.841 444.985 138.905 444.841 137.945C444.697 136.985 444.553 136.097 444.409 135.281C444.841 134.512 445.249 133.72 445.633 132.904C445.969 132.088 446.257 131.224 446.497 130.312C446.785 130.168 447.073 130.048 447.361 129.952C447.649 129.856 447.961 129.736 448.297 129.592C448.249 129.496 448.225 129.376 448.225 129.232C448.225 128.992 448.297 128.752 448.441 128.512C448.633 128.272 448.681 128.032 448.585 127.792C449.641 126.832 450.649 125.848 451.609 124.84C452.617 123.784 453.481 122.632 454.201 121.384C454.921 121.144 455.497 120.784 455.929 120.304C456.361 119.824 456.793 119.344 457.225 118.864C457.657 118.336 458.137 117.88 458.665 117.496C459.193 117.064 459.865 116.8 460.681 116.704C460.873 116.368 461.138 116.104 461.474 115.912C461.81 115.672 462.146 115.456 462.482 115.264C462.818 115.072 463.13 114.856 463.418 114.616C463.706 114.376 463.922 114.04 464.066 113.608C464.834 113.608 465.53 113.464 466.154 113.176C466.826 112.888 467.474 112.576 468.098 112.24C468.722 111.904 469.346 111.592 469.97 111.304C470.642 111.016 471.362 110.872 472.13 110.872C472.322 110.872 472.514 110.896 472.706 110.944C472.898 110.944 473.114 110.968 473.354 111.016C473.69 111.352 473.906 111.76 474.002 112.24C474.146 112.672 474.242 113.152 474.29 113.68C474.338 114.208 474.362 114.736 474.362 115.264C474.41 115.792 474.506 116.272 474.65 116.704C474.218 117.52 473.738 118.336 473.21 119.152C472.73 119.968 472.082 120.592 471.266 121.024H471.122C470.786 121.072 470.474 121 470.186 120.808C469.898 120.616 469.562 120.52 469.178 120.52C468.938 120.52 468.746 120.592 468.602 120.736L468.242 121.096C468.146 121.192 468.002 121.288 467.81 121.384C467.666 121.48 467.45 121.48 467.162 121.384C466.49 121.624 466.226 122.032 466.37 122.608C465.458 122.704 464.69 122.992 464.066 123.472C463.442 123.904 462.866 124.408 462.338 124.984C461.81 125.512 461.281 126.016 460.753 126.496C460.225 126.928 459.601 127.168 458.881 127.216C458.065 128.656 457.057 129.928 455.857 131.032C454.705 132.136 453.745 133.384 452.977 134.777C453.121 135.161 453.217 135.569 453.265 136.001C453.313 136.433 453.385 136.889 453.481 137.369C453.913 137.945 454.417 138.449 454.993 138.881C455.617 139.313 456.217 139.745 456.793 140.177H457.009C457.969 140.177 458.857 140.369 459.673 140.753C460.489 141.089 461.353 141.257 462.266 141.257C462.746 141.257 463.154 141.161 463.49 140.969C464.738 141.257 465.962 141.497 467.162 141.689C468.41 141.881 469.658 142.025 470.906 142.121C471.53 142.217 472.154 142.265 472.778 142.265C473.45 142.265 474.074 142.337 474.65 142.481C475.178 142.625 475.706 142.817 476.234 143.057C476.762 143.249 477.29 143.465 477.818 143.705C478.922 144.185 479.954 144.713 480.914 145.289C481.922 145.865 482.81 146.561 483.578 147.377C484.346 148.145 484.946 149.057 485.378 150.113C485.81 151.121 486.026 152.297 486.026 153.641Z" fill="white"/>
<path d="M452.127 144.209C452.127 144.737 451.935 145.145 451.551 145.433C451.167 145.673 450.975 146.009 450.975 146.441C450.975 146.633 451.071 146.873 451.263 147.161C450.591 147.161 450.135 147.377 449.895 147.809C449.655 148.241 449.415 148.721 449.175 149.249H448.239C447.999 149.249 447.807 149.297 447.663 149.393C447.519 149.489 447.375 149.633 447.231 149.825C447.135 149.969 446.991 150.209 446.799 150.545C445.887 150.737 444.999 151.049 444.135 151.481C443.319 151.865 442.503 152.297 441.687 152.777C440.919 153.209 440.127 153.665 439.311 154.145C438.495 154.577 437.655 154.937 436.791 155.225C436.359 155.945 435.735 156.521 434.919 156.953H434.703C434.463 157.001 434.247 156.977 434.055 156.881C433.911 156.737 433.719 156.665 433.479 156.665C433.335 156.665 433.239 156.689 433.191 156.737C431.751 157.697 430.143 158.177 428.367 158.177C427.887 158.177 427.431 158.153 426.999 158.105C426.567 158.009 426.111 157.961 425.631 157.961C425.487 157.961 425.391 158.009 425.343 158.105L425.199 158.393C425.151 158.489 425.079 158.585 424.983 158.681C424.935 158.777 424.767 158.825 424.479 158.825C423.951 158.825 423.423 158.753 422.895 158.609C422.367 158.465 421.815 158.441 421.239 158.537C420.135 157.913 419.271 157.313 418.647 156.737C418.023 156.161 417.447 155.297 416.919 154.145C416.679 153.617 416.343 153.113 415.911 152.633C415.527 152.153 415.239 151.625 415.047 151.049C414.999 150.857 414.927 150.521 414.831 150.041C414.735 149.513 414.639 148.961 414.543 148.385C414.447 147.809 414.351 147.257 414.255 146.729C414.207 146.201 414.183 145.841 414.183 145.649C414.183 145.073 414.207 144.521 414.255 143.993C414.351 143.417 414.447 142.841 414.543 142.265C414.831 140.441 415.023 138.617 415.119 136.793C415.263 134.921 415.671 133.121 416.343 131.393C416.247 130.865 416.199 130.361 416.199 129.881V128.297C416.199 127.385 416.079 126.616 415.839 125.992C416.223 125.368 416.415 124.672 416.415 123.904C416.415 123.04 416.055 122.536 415.335 122.392V122.176C415.335 121.168 414.999 120.376 414.327 119.8C414.327 118.12 414.735 116.872 415.551 116.056C416.415 115.192 417.543 114.448 418.935 113.824C419.127 113.536 419.199 113.296 419.151 113.104C419.487 113.2 419.799 113.296 420.087 113.392C420.375 113.488 420.663 113.536 420.951 113.536C421.431 113.536 421.863 113.464 422.247 113.32C422.391 113.896 422.751 114.256 423.327 114.4C423.951 114.496 424.455 114.64 424.839 114.832V115.768C424.839 117.256 425.199 118.672 425.919 120.016C425.727 120.4 425.607 120.808 425.559 121.24C425.511 121.672 425.487 122.08 425.487 122.464C425.487 123.04 425.511 123.616 425.559 124.192C425.607 124.768 425.631 125.32 425.631 125.848C425.631 126.424 425.559 127 425.415 127.577C425.319 128.153 425.055 128.657 424.623 129.089C424.575 129.713 424.527 130.433 424.479 131.249C424.479 132.017 424.431 132.809 424.335 133.625C424.287 134.441 424.167 135.233 423.975 136.001C423.783 136.769 423.495 137.393 423.111 137.873C423.063 138.593 423.015 139.337 422.967 140.105C422.967 140.825 422.967 141.521 422.967 142.193C422.967 143.249 423.015 144.497 423.111 145.937C423.255 147.377 423.591 148.577 424.119 149.537C424.359 149.921 424.815 150.209 425.487 150.401C426.207 150.593 426.783 150.689 427.215 150.689C427.743 150.689 428.271 150.617 428.799 150.473C429.375 150.281 429.783 149.969 430.023 149.537C430.311 149.585 430.503 149.729 430.599 149.969C430.695 150.209 430.863 150.401 431.103 150.545C433.839 149.393 436.575 148.289 439.311 147.233C442.047 146.177 444.735 144.953 447.375 143.561C447.759 143.753 448.167 143.849 448.599 143.849C449.079 143.849 449.559 143.801 450.039 143.705C450.519 143.609 450.999 143.561 451.479 143.561H451.983C452.079 143.849 452.127 144.065 452.127 144.209Z" fill="white"/>
<path d="M408.259 152.849C408.019 153.233 407.731 153.593 407.395 153.929C407.059 154.217 406.747 154.529 406.459 154.865C406.123 155.009 405.739 155.081 405.307 155.081C404.923 155.081 404.539 155.081 404.155 155.081C403.819 155.033 403.483 155.033 403.147 155.081C402.859 155.081 402.619 155.177 402.427 155.369C402.043 155.273 401.755 155.105 401.562 154.865C401.37 154.577 401.034 154.409 400.554 154.361C400.362 154.313 400.17 154.313 399.978 154.361C399.258 153.545 398.586 152.681 397.962 151.769C397.386 150.857 396.834 149.993 396.306 149.177C396.258 147.401 396.114 145.601 395.874 143.777C395.826 143.345 395.754 142.913 395.658 142.481C395.562 142.049 395.49 141.641 395.442 141.257C395.442 140.777 395.466 140.321 395.514 139.889C395.61 139.409 395.682 138.977 395.73 138.593C395.922 137.201 396.138 135.833 396.378 134.489C396.618 133.145 396.834 131.777 397.026 130.385C397.218 129.137 397.314 127.841 397.314 126.496C397.314 125.104 397.098 123.808 396.666 122.608L396.594 122.248C396.69 121.864 396.786 121.552 396.882 121.312C397.026 121.024 397.122 120.712 397.17 120.376C397.266 119.848 397.146 119.464 396.81 119.224C396.954 118.84 397.194 118.6 397.53 118.504C397.866 118.36 398.058 118.072 398.106 117.64C398.154 117.448 398.154 117.256 398.106 117.064C398.49 116.92 398.874 116.8 399.258 116.704C399.69 116.56 400.098 116.536 400.482 116.632C401.107 116.728 401.659 116.944 402.139 117.28C402.619 117.568 403.075 117.904 403.507 118.288C404.275 120.592 404.587 123.04 404.443 125.632C404.299 128.177 404.059 130.745 403.723 133.337C403.387 135.929 403.171 138.473 403.075 140.969C402.979 143.417 403.363 145.697 404.227 147.809L404.371 147.881C404.611 147.929 404.803 147.857 404.947 147.665C405.091 147.425 405.283 147.329 405.523 147.377C405.715 147.473 405.835 147.521 405.883 147.521C406.075 148.481 406.387 149.393 406.819 150.257C407.251 151.121 407.731 151.985 408.259 152.849Z" fill="white"/>
<path d="M394.019 157.457C393.875 158.129 393.563 158.681 393.083 159.113C392.651 159.497 392.123 159.809 391.499 160.049C390.875 160.289 390.227 160.457 389.555 160.553C388.931 160.601 388.355 160.625 387.827 160.625C387.587 160.625 387.347 160.625 387.107 160.625C386.915 160.577 386.699 160.553 386.459 160.553C386.219 160.553 386.099 160.673 386.099 160.913C386.099 161.153 385.979 161.321 385.739 161.417C385.499 161.321 385.259 161.249 385.019 161.201C384.779 161.153 384.539 161.129 384.299 161.129C383.963 161.129 383.627 161.153 383.291 161.201C383.003 161.249 382.715 161.273 382.427 161.273C382.043 161.273 381.755 161.225 381.563 161.129C381.419 161.033 381.275 160.937 381.131 160.841C381.035 160.697 380.915 160.553 380.771 160.409C380.675 160.265 380.507 160.145 380.267 160.049C379.931 159.905 379.643 159.881 379.403 159.977C379.211 160.073 378.899 159.929 378.467 159.545C377.891 159.065 377.387 158.489 376.955 157.817C376.571 157.097 376.187 156.353 375.803 155.585C375.419 154.817 375.011 154.049 374.579 153.281C374.147 152.513 373.643 151.841 373.067 151.265H372.491C371.627 151.265 371.027 151.625 370.691 152.345C370.451 152.201 370.211 152.033 369.971 151.841C369.731 151.601 369.467 151.409 369.179 151.265C368.075 151.601 366.923 151.889 365.723 152.129C364.523 152.369 363.323 152.489 362.123 152.489H361.115C360.827 152.489 360.515 152.441 360.179 152.345C359.699 152.537 359.267 152.777 358.883 153.065C358.499 153.305 358.067 153.425 357.587 153.425C357.299 153.425 356.963 153.329 356.579 153.137C356.291 153.137 356.147 153.257 356.147 153.497C356.195 153.737 356.051 153.857 355.715 153.857H355.067C354.395 153.857 353.723 153.881 353.051 153.929C352.427 153.977 351.779 154.001 351.107 154.001C350.195 154.001 349.259 153.881 348.299 153.641C348.059 153.785 347.795 153.857 347.507 153.857C347.315 153.953 347.171 154.121 347.075 154.361C346.979 154.553 346.883 154.745 346.787 154.937C346.691 155.081 346.547 155.225 346.355 155.369C346.211 155.465 345.995 155.489 345.707 155.441C345.611 156.017 345.371 156.473 344.987 156.809C344.603 157.145 344.41 157.649 344.41 158.321C343.882 158.609 343.45 158.969 343.114 159.401C342.778 159.833 342.442 160.289 342.106 160.769C341.77 161.249 341.41 161.705 341.026 162.137C340.69 162.569 340.258 162.905 339.73 163.145C339.49 163.433 339.418 163.889 339.514 164.513C338.986 164.945 338.338 165.329 337.57 165.665C336.802 166.001 336.082 166.169 335.41 166.169C334.018 166.169 333.058 165.425 332.53 163.937C332.53 163.457 332.578 162.953 332.674 162.425C332.722 161.849 332.818 161.321 332.962 160.841C333.106 160.313 333.322 159.857 333.61 159.473C333.898 159.041 334.306 158.729 334.834 158.537C334.834 158.105 334.69 157.817 334.402 157.673C334.114 157.481 333.994 157.169 334.042 156.737C335.338 156.113 336.466 155.297 337.426 154.289C338.386 153.281 339.25 152.225 340.018 151.121C340.834 149.969 341.65 148.817 342.466 147.665C343.282 146.513 344.194 145.481 345.203 144.569V143.057C346.643 141.521 347.579 139.793 348.011 137.873C348.539 137.777 348.875 137.537 349.019 137.153C349.211 136.769 349.307 136.313 349.307 135.785C349.547 135.785 349.691 135.689 349.739 135.497C349.835 135.257 350.051 135.185 350.387 135.281C350.819 134.129 351.299 133.073 351.827 132.113C352.355 131.153 352.883 130.193 353.411 129.233C353.939 128.225 354.395 127.193 354.779 126.137C355.211 125.081 355.523 123.905 355.715 122.609C356.387 122.561 356.747 122.248 356.795 121.672C356.891 121.048 356.987 120.496 357.083 120.016C357.803 119.344 358.331 118.552 358.667 117.64C359.051 116.728 359.387 115.792 359.675 114.832C359.963 113.824 360.275 112.84 360.611 111.88C360.995 110.872 361.523 109.984 362.195 109.216V109C362.195 108.76 362.099 108.616 361.907 108.568C361.715 108.472 361.619 108.304 361.619 108.064C361.667 108.016 361.691 107.968 361.691 107.92C362.267 107.68 362.699 107.296 362.987 106.768C363.275 106.192 363.707 105.784 364.283 105.544C365.291 106.36 366.179 106.864 366.947 107.056C367.715 107.2 368.723 107.32 369.971 107.416C370.595 108.088 370.931 108.904 370.979 109.864C371.075 110.776 371.243 111.688 371.483 112.6C371.867 114.136 372.275 115.648 372.707 117.136C373.187 118.576 373.547 120.064 373.787 121.6C373.931 122.513 374.195 123.377 374.579 124.193C374.963 125.009 375.227 125.849 375.371 126.713C375.467 127.385 375.467 128.153 375.371 129.017C375.275 129.833 375.371 130.553 375.659 131.177L376.163 132.329C376.403 132.857 376.595 133.409 376.739 133.985C376.931 134.561 377.099 135.137 377.243 135.713C377.627 137.153 377.963 138.713 378.251 140.393C378.587 142.025 379.091 143.513 379.763 144.857C380.003 145.337 380.363 145.673 380.843 145.865C381.371 146.057 381.947 146.201 382.571 146.297C383.195 146.345 383.795 146.369 384.371 146.369C384.995 146.321 385.523 146.297 385.955 146.297H386.675C386.963 146.297 387.251 146.345 387.539 146.441C387.731 146.825 387.827 147.161 387.827 147.449C387.827 148.025 387.635 148.481 387.251 148.817C386.867 149.153 386.675 149.537 386.675 149.969C386.675 150.209 386.771 150.473 386.963 150.761C386.771 150.713 386.483 150.689 386.099 150.689C384.995 150.689 383.915 150.881 382.859 151.265C383.243 152.081 383.747 152.777 384.371 153.353C385.043 153.881 385.739 154.385 386.459 154.865C386.939 154.481 387.443 154.289 387.971 154.289C388.547 154.289 389.075 154.433 389.555 154.721C390.083 154.961 390.635 155.081 391.211 155.081C391.643 155.081 391.955 155.009 392.147 154.865C392.531 155.297 392.843 155.753 393.083 156.233C393.323 156.665 393.635 157.073 394.019 157.457ZM371.483 145.937C371.387 145.121 371.219 144.545 370.979 144.209C370.787 143.825 370.619 143.369 370.475 142.841C370.283 142.169 370.139 141.449 370.043 140.681C369.995 139.913 369.899 139.169 369.755 138.449C369.419 136.817 369.035 135.185 368.603 133.553C368.219 131.921 367.715 130.337 367.091 128.801C367.283 128.513 367.379 128.249 367.379 128.009V127.793C366.947 127.313 366.635 126.737 366.443 126.065C366.251 125.345 366.059 124.649 365.867 123.977C365.723 123.257 365.507 122.609 365.219 122.032C364.979 121.408 364.571 120.904 363.995 120.52C363.851 120.808 363.779 121.144 363.779 121.528C363.779 121.864 363.803 122.176 363.851 122.465C363.947 122.753 363.995 123.065 363.995 123.401C363.515 123.641 363.155 124.025 362.915 124.553C362.723 125.033 362.387 125.417 361.907 125.705C361.523 127.241 360.971 128.705 360.251 130.097C359.531 131.441 358.763 132.785 357.947 134.129C357.179 135.473 356.435 136.841 355.715 138.233C354.995 139.577 354.419 140.993 353.987 142.481C353.363 142.913 352.931 143.465 352.691 144.137C352.499 144.809 352.403 145.481 352.403 146.153C352.835 146.393 353.315 146.537 353.843 146.585C354.419 146.585 354.971 146.585 355.499 146.585C356.027 146.585 356.531 146.633 357.011 146.729C357.491 146.825 357.923 147.065 358.307 147.449C358.931 147.257 359.603 147.137 360.323 147.089C361.091 146.993 361.715 146.777 362.195 146.441C363.155 146.777 364.187 146.945 365.291 146.945C365.867 146.945 366.419 146.897 366.947 146.801C367.523 146.705 368.075 146.585 368.603 146.441C369.035 146.537 369.371 146.705 369.611 146.945C369.851 147.137 370.211 147.209 370.691 147.161C370.931 146.969 371.075 146.777 371.123 146.585C371.171 146.345 371.291 146.129 371.483 145.937Z" fill="white"/>
<path d="M366.797 150.185C366.701 150.905 366.437 151.457 366.005 151.841C365.621 152.225 365.165 152.585 364.637 152.921C364.397 152.873 364.157 152.849 363.917 152.849C363.725 152.801 363.509 152.777 363.269 152.777C361.781 152.729 360.365 152.921 359.021 153.353C357.725 153.785 356.381 154.097 354.989 154.289C354.509 154.385 354.053 154.433 353.621 154.433C353.237 154.385 352.829 154.409 352.397 154.505C350.861 154.745 349.229 154.937 347.501 155.081C345.773 155.225 344.045 155.417 342.317 155.657C340.589 155.849 338.885 156.113 337.205 156.449C335.573 156.737 334.037 157.169 332.597 157.745C332.453 157.649 332.309 157.553 332.165 157.457C332.021 157.313 331.853 157.241 331.661 157.241C331.181 157.241 330.725 157.313 330.293 157.457C329.861 157.601 329.429 157.649 328.997 157.601C328.517 157.889 327.989 158.105 327.413 158.249C326.885 158.345 326.333 158.441 325.757 158.537C325.229 158.585 324.701 158.681 324.173 158.825C323.645 158.969 323.141 159.233 322.66 159.617C322.276 159.425 321.796 159.329 321.22 159.329C320.692 159.281 320.332 159.089 320.14 158.753C319.036 159.281 317.86 159.617 316.612 159.761C315.412 159.905 314.188 159.953 312.94 159.905C312.124 159.857 311.188 159.737 310.132 159.545C309.076 159.353 308.02 159.089 306.964 158.753C305.908 158.369 304.924 157.937 304.012 157.457C303.1 156.929 302.404 156.305 301.924 155.585C301.588 155.105 301.348 154.577 301.204 154.001C301.06 153.425 300.724 152.993 300.196 152.705C300.34 151.601 300.508 150.521 300.7 149.465C300.892 148.409 301.084 147.329 301.276 146.225C302.236 145.409 303.148 144.545 304.012 143.633C304.876 142.721 305.692 141.761 306.46 140.753C307.372 140.321 308.212 139.793 308.98 139.169C309.796 138.545 310.588 137.921 311.356 137.297C312.172 136.625 312.964 135.977 313.732 135.353C314.548 134.729 315.412 134.177 316.324 133.697C316.468 133.361 316.66 133.097 316.9 132.905C317.188 132.665 317.476 132.449 317.764 132.257C318.052 132.017 318.316 131.777 318.556 131.537C318.796 131.249 318.964 130.913 319.06 130.529C320.74 129.521 322.204 128.249 323.453 126.713C324.701 125.177 325.517 123.449 325.901 121.528C325.085 120.856 324.149 120.424 323.092 120.232C322.084 119.992 321.028 119.824 319.924 119.728C318.964 119.68 317.956 119.68 316.9 119.728C315.892 119.776 314.86 119.752 313.804 119.656C312.748 119.992 311.644 120.208 310.492 120.304C309.388 120.4 308.284 120.496 307.18 120.592C306.076 120.64 304.972 120.784 303.868 121.024C302.812 121.216 301.78 121.6 300.772 122.176C300.58 122.176 300.388 122.152 300.196 122.104C300.052 122.056 299.884 122.032 299.692 122.032C298.156 121.984 296.716 122.296 295.372 122.969C294.028 123.593 292.708 124.217 291.412 124.841C291.316 125.033 291.268 125.177 291.268 125.273C291.268 125.561 291.316 125.849 291.412 126.137C291.556 126.377 291.628 126.641 291.628 126.929C291.58 126.977 291.556 127.025 291.556 127.073C291.556 127.121 291.532 127.169 291.484 127.217C291.436 127.457 291.364 127.673 291.268 127.865C291.22 128.057 291.148 128.273 291.052 128.513C290.524 130.049 290.236 131.561 290.188 133.049C290.14 134.297 290.14 135.521 290.188 136.721C290.236 137.921 290.236 139.145 290.188 140.393C290.092 141.929 289.852 143.369 289.468 144.713C289.708 145.865 289.924 147.089 290.116 148.385C290.308 149.633 290.548 150.881 290.836 152.129C291.124 153.377 291.46 154.601 291.844 155.801C292.276 156.953 292.828 158.057 293.5 159.113C293.452 159.209 293.476 159.281 293.572 159.329C293.668 159.377 293.764 159.401 293.86 159.401H294.436C294.676 159.401 294.772 159.497 294.724 159.689C294.82 159.833 294.892 159.977 294.94 160.121C294.988 160.217 295.084 160.313 295.228 160.409C295.324 160.553 295.324 160.745 295.228 160.985C295.18 161.945 294.94 162.833 294.508 163.649C294.076 164.465 293.812 165.353 293.716 166.313C293.14 166.457 292.612 166.529 292.132 166.529C291.316 166.481 290.596 166.241 289.972 165.809C289.348 165.425 288.772 164.945 288.244 164.369C287.716 163.793 287.212 163.217 286.732 162.641C286.252 162.017 285.724 161.489 285.148 161.057C284.812 159.713 284.476 158.225 284.14 156.593C283.852 154.961 283.348 153.569 282.628 152.417C282.82 151.985 282.916 151.457 282.916 150.833C282.964 149.873 282.868 148.937 282.628 148.025C282.436 147.065 282.388 146.105 282.484 145.145C282.484 144.617 282.532 144.089 282.628 143.561C282.772 143.033 282.868 142.505 282.916 141.977C282.964 141.161 282.868 140.369 282.628 139.601C282.436 138.833 282.364 138.041 282.412 137.225C282.46 136.841 282.532 136.481 282.628 136.145C282.772 135.761 282.964 135.425 283.204 135.137C282.964 134.561 282.892 134.009 282.988 133.481C283.036 132.665 283.132 131.897 283.276 131.177C283.42 130.457 283.516 129.737 283.564 129.017C283.564 128.633 283.54 128.273 283.492 127.937C283.444 127.553 283.372 127.193 283.276 126.857L282.628 126.641C282.34 126.641 282.052 126.713 281.764 126.857C281.524 127.001 281.308 127.169 281.116 127.361C280.924 127.553 280.756 127.721 280.612 127.865C280.468 127.961 280.324 128.009 280.18 128.009C280.084 128.009 279.964 128.009 279.82 128.009C279.724 127.961 279.628 127.937 279.532 127.937C279.436 127.937 279.244 128.033 278.956 128.225C278.716 128.417 278.404 128.633 278.02 128.873C277.684 129.065 277.348 129.281 277.012 129.521C276.676 129.713 276.412 129.833 276.22 129.881C275.692 129.785 275.26 129.617 274.924 129.377C274.636 129.089 274.348 128.825 274.06 128.585C273.82 128.297 273.556 128.057 273.268 127.865C272.98 127.625 272.62 127.529 272.188 127.577C272.044 127.289 271.972 126.977 271.972 126.641C271.924 126.305 271.924 125.969 271.972 125.633V124.481C272.308 123.857 272.764 123.353 273.34 122.969C273.868 122.536 274.444 122.176 275.068 121.888L276.94 121.024C277.564 120.736 278.14 120.376 278.668 119.944H279.316C280.18 119.992 280.924 119.824 281.548 119.44C282.22 119.056 282.844 118.624 283.42 118.144C283.996 117.616 284.572 117.088 285.148 116.56C285.772 116.032 286.444 115.624 287.164 115.336C287.692 115.576 288.244 115.792 288.82 115.984C289.396 116.128 289.996 116.224 290.62 116.272C291.244 116.272 291.892 116.176 292.564 115.984C293.236 115.792 293.764 115.432 294.148 114.904C294.388 115 294.58 115.072 294.724 115.12C294.916 115.12 295.132 115.12 295.372 115.12C296.092 115.168 296.812 115.072 297.532 114.832C298.252 114.544 298.948 114.208 299.62 113.824C300.58 113.872 301.516 113.824 302.428 113.68C303.388 113.488 304.324 113.296 305.236 113.104C306.196 112.912 307.132 112.744 308.044 112.6C309.004 112.408 309.964 112.336 310.924 112.384C312.508 112.432 314.068 112.288 315.604 111.952C317.14 111.616 318.7 111.496 320.284 111.592C321.388 111.64 322.468 111.736 323.525 111.88C324.629 111.976 325.733 112 326.837 111.952C327.461 112.24 328.013 112.504 328.493 112.744C329.021 112.936 329.669 112.984 330.437 112.888C331.973 114.184 333.365 115.696 334.613 117.424V118.648C334.565 119.752 334.373 120.832 334.037 121.888C333.701 122.945 333.293 124.001 332.813 125.057C332.381 126.065 331.901 127.073 331.373 128.081C330.845 129.041 330.341 130.001 329.861 130.961C326.741 133.793 323.621 136.601 320.5 139.385C317.38 142.169 314.164 144.857 310.852 147.449C310.756 147.929 310.612 148.361 310.42 148.745C310.276 149.129 310.18 149.537 310.132 149.969C310.132 150.209 310.156 150.401 310.204 150.545C310.54 150.641 310.828 150.833 311.068 151.121C311.356 151.361 311.452 151.697 311.356 152.129H312.004C312.244 152.129 312.364 152.225 312.364 152.417L313.516 152.489C315.34 152.585 317.164 152.537 318.988 152.345C320.812 152.153 322.636 151.937 324.461 151.697C326.333 151.457 328.181 151.241 330.005 151.049C331.829 150.809 333.653 150.665 335.477 150.617C335.909 150.473 336.365 150.353 336.845 150.257C337.325 150.161 337.757 149.969 338.141 149.681H338.357C338.693 149.681 338.933 149.777 339.077 149.969C339.269 150.161 339.533 150.281 339.869 150.329C340.109 150.329 340.349 150.281 340.589 150.185C340.877 150.089 341.165 150.017 341.453 149.969C342.125 149.777 342.821 149.657 343.541 149.609C344.309 149.561 345.053 149.489 345.773 149.393C348.557 149.153 351.317 149.009 354.053 148.961C356.789 148.865 359.525 148.505 362.261 147.881C362.501 148.217 362.837 148.457 363.269 148.601C363.701 148.697 364.157 148.817 364.637 148.961C365.117 149.057 365.549 149.177 365.933 149.321C366.365 149.465 366.653 149.753 366.797 150.185Z" fill="white"/>
<path d="M302.324 132.248C302.228 132.824 302.06 133.472 301.82 134.192C301.628 134.912 301.34 135.584 300.956 136.208C300.62 136.784 300.188 137.288 299.66 137.72C299.132 138.104 298.508 138.296 297.788 138.296C297.26 138.296 296.732 138.248 296.204 138.152C295.676 138.008 295.124 137.936 294.548 137.936C294.308 137.936 294.044 138.032 293.756 138.224C293.516 138.368 293.276 138.44 293.036 138.44C292.796 138.44 292.58 138.416 292.388 138.368C292.244 138.272 292.052 138.224 291.812 138.224C291.668 138.224 291.404 138.272 291.02 138.368C290.636 138.464 290.228 138.56 289.796 138.656C289.364 138.752 288.956 138.872 288.572 139.016C288.188 139.112 287.924 139.184 287.78 139.232C286.484 139.664 285.188 140.048 283.892 140.384C282.596 140.72 281.252 140.936 279.86 141.032C279.572 140.936 279.14 140.84 278.564 140.744C277.988 140.6 277.556 140.528 277.268 140.528C276.692 140.528 276.308 140.768 276.116 141.248C275.972 141.728 275.66 142.088 275.18 142.328C274.604 142.664 281.479 140.768 280.615 140.816C279.751 140.864 278.887 140.936 278.023 141.032C277.159 141.128 276.343 141.32 275.575 141.608C274.855 141.848 274.327 142.328 273.991 143.048C273.751 143 273.487 142.976 273.199 142.976C272.959 142.928 272.695 142.904 272.407 142.904C270.871 142.904 269.431 143.216 268.087 143.84C266.743 144.416 265.375 144.944 263.983 145.424C264.223 145.856 264.391 146.384 264.487 147.008C264.583 147.632 264.679 148.256 264.775 148.88C264.871 149.456 264.991 150.032 265.135 150.608C265.327 151.136 265.639 151.544 266.071 151.832C266.071 152.12 265.999 152.36 265.855 152.552C265.759 152.744 265.639 152.912 265.495 153.056L264.991 153.56C264.847 153.704 264.751 153.92 264.703 154.208C264.559 154.784 264.487 155.384 264.487 156.008C264.487 156.584 264.151 157.016 263.479 157.304C263.527 157.448 263.551 157.712 263.551 158.096C263.551 158.576 263.479 159.032 263.335 159.464C263.191 159.896 263.143 160.376 263.191 160.904C262.375 161.816 261.679 162.752 261.103 163.712C260.575 164.672 260.167 165.704 259.879 166.808C258.103 168.584 256.278 170.36 254.406 172.136C252.582 173.96 250.686 175.713 248.718 177.393C246.798 179.073 244.806 180.657 242.742 182.145C240.678 183.681 238.542 185.025 236.334 186.177H235.83C234.726 186.177 233.862 186.369 233.238 186.753C232.614 187.137 231.822 187.473 230.862 187.761C230.142 187.569 229.278 187.473 228.27 187.473C227.694 187.473 227.094 187.497 226.47 187.545C225.894 187.593 225.294 187.617 224.67 187.617C223.854 187.617 223.11 187.521 222.438 187.329C221.814 187.137 221.19 186.921 220.566 186.681C219.99 186.441 219.39 186.201 218.766 185.961C218.142 185.721 217.47 185.553 216.75 185.457C213.774 182.481 211.422 179.001 209.694 175.017C207.966 171.08 207.102 167.024 207.102 162.848C207.102 160.928 207.366 159.056 207.894 157.232C208.422 155.36 208.686 153.488 208.686 151.616C209.55 149.888 210.294 148.112 210.918 146.288C211.59 144.464 212.262 142.64 212.934 140.816C213.606 138.992 214.326 137.216 215.094 135.488C215.91 133.712 216.87 132.032 217.974 130.448C218.214 129.2 218.598 128.12 219.126 127.208C219.654 126.296 220.23 125.288 220.854 124.184C220.854 123.128 221.07 122.168 221.502 121.304C221.982 120.391 222.27 119.383 222.366 118.279C223.134 117.559 223.758 116.743 224.238 115.831C224.718 114.919 225.174 113.983 225.606 113.023C226.038 112.063 226.518 111.151 227.046 110.287C227.622 109.375 228.39 108.607 229.35 107.983C229.446 107.647 229.494 107.287 229.494 106.903C229.542 106.471 229.662 106.135 229.854 105.895L231.366 104.239C231.846 103.615 232.278 102.991 232.662 102.367C233.094 101.695 233.55 101.095 234.03 100.567C234.318 100.279 234.63 100.039 234.966 99.8471C235.302 99.6551 235.59 99.4391 235.83 99.1991C236.07 98.9591 236.142 98.6471 236.046 98.2631C235.998 97.8791 236.094 97.5671 236.334 97.3271C236.43 97.2311 236.574 97.1351 236.766 97.0391C236.958 96.9431 237.126 96.8471 237.27 96.7511C237.894 96.319 238.422 95.887 238.854 95.455C239.286 95.023 239.886 94.711 240.654 94.519C241.326 93.991 241.926 93.463 242.454 92.935C243.03 92.407 243.606 91.927 244.182 91.4949C244.758 91.0629 245.382 90.7269 246.054 90.4869C246.726 90.1989 247.566 90.0549 248.574 90.0549C248.766 90.0549 248.958 90.0789 249.15 90.1269C249.342 90.1269 249.534 90.1269 249.726 90.1269C251.694 91.951 252.918 94.183 253.398 96.8231C252.87 97.4951 252.438 98.2151 252.102 98.9831C251.814 99.7511 251.478 100.519 251.094 101.287C250.278 101.575 249.51 102.007 248.79 102.583C248.07 103.111 247.35 103.663 246.63 104.239C245.958 104.815 245.238 105.319 244.47 105.751C243.75 106.183 242.934 106.399 242.022 106.399C241.638 106.735 241.014 107.287 240.15 108.055C239.334 108.775 238.47 109.543 237.558 110.359C236.694 111.175 235.878 111.943 235.11 112.663C234.39 113.383 233.934 113.887 233.742 114.175C233.598 114.415 233.478 114.631 233.382 114.823C233.286 115.015 233.19 115.231 233.094 115.471L231.222 118.639C230.166 120.463 229.086 122.264 227.982 124.04C226.878 125.768 225.918 127.592 225.102 129.512C224.718 130.376 224.406 131.24 224.166 132.104C223.926 132.968 223.686 133.88 223.446 134.84C223.35 135.128 223.23 135.416 223.086 135.704C222.942 135.992 222.822 136.256 222.726 136.496C222.198 137.504 221.766 138.44 221.43 139.304C221.094 140.168 220.902 141.176 220.854 142.328C219.654 145.016 218.526 147.728 217.47 150.464C216.462 153.152 215.694 155.936 215.166 158.816C215.454 159.776 215.574 160.76 215.526 161.768C215.526 162.728 215.526 163.688 215.526 164.648C215.526 165.848 215.598 166.832 215.742 167.6C215.934 168.416 216.174 169.136 216.462 169.76C216.798 170.432 217.158 171.104 217.542 171.776C217.926 172.496 218.334 173.336 218.766 174.296C219.486 174.872 220.134 175.473 220.71 176.097C221.286 176.769 221.838 177.489 222.366 178.257C224.19 179.169 226.038 179.625 227.91 179.625C229.254 179.625 230.622 179.409 232.014 178.977C233.406 178.545 234.75 177.993 236.046 177.321C237.39 176.697 238.686 176.001 239.934 175.233C241.182 174.464 242.382 173.72 243.534 173C245.55 171.8 247.302 170.504 248.79 169.112C250.278 167.72 251.622 166.256 252.822 164.72C254.07 163.184 255.222 161.552 256.278 159.824C257.335 158.048 258.439 156.176 259.591 154.208C259.639 153.968 259.735 153.68 259.879 153.344L260.311 152.264C260.455 151.88 260.575 151.544 260.671 151.256C260.815 150.92 260.887 150.704 260.887 150.608C260.887 150.224 260.791 149.96 260.599 149.816C260.455 149.624 260.383 149.432 260.383 149.24C260.383 148.856 260.479 148.592 260.671 148.448C260.863 148.304 261.079 148.16 261.319 148.016C261.607 147.872 261.847 147.704 262.039 147.512C262.279 147.32 262.399 146.96 262.399 146.432C262.303 146.384 262.135 146.36 261.895 146.36C261.655 146.36 261.415 146.384 261.175 146.432C260.935 146.48 260.695 146.504 260.455 146.504C259.879 146.504 259.399 146.312 259.015 145.928C258.775 146.024 258.535 146.192 258.295 146.432C258.055 146.624 257.814 146.84 257.574 147.08C257.382 147.32 257.19 147.536 256.998 147.728C256.806 147.92 256.638 148.016 256.494 148.016C256.254 148.016 256.062 147.968 255.918 147.872C255.822 147.776 255.678 147.728 255.486 147.728C254.67 147.728 253.95 147.92 253.326 148.304C252.702 148.688 252.03 149 251.31 149.24C251.166 149.24 251.022 149.24 250.878 149.24C250.734 149.192 250.59 149.168 250.446 149.168C249.918 149.168 249.39 149.264 248.862 149.456C248.382 149.6 247.902 149.768 247.422 149.96C246.99 150.152 246.534 150.32 246.054 150.464C245.574 150.608 245.094 150.656 244.614 150.608C243.558 150.992 242.574 151.4 241.662 151.832C240.798 152.264 239.79 152.432 238.638 152.336C238.302 152.48 237.942 152.648 237.558 152.84C237.222 152.984 236.886 153.176 236.55 153.416C236.262 153.512 236.046 153.56 235.902 153.56C235.662 153.56 235.47 153.44 235.326 153.2C234.942 153.632 234.438 153.944 233.814 154.136C233.19 154.28 232.542 154.424 231.87 154.568C231.198 154.664 230.55 154.808 229.926 155C229.35 155.144 228.894 155.456 228.558 155.936C228.03 155.504 227.406 155.288 226.686 155.288C225.966 155.288 225.27 155.432 224.598 155.72C223.926 155.96 223.206 156.08 222.438 156.08C222.15 156.08 221.958 156.032 221.862 155.936C221.67 155.408 221.454 154.88 221.214 154.352C220.974 153.824 220.59 153.44 220.062 153.2C219.966 152.672 219.87 152.168 219.774 151.688C219.726 151.16 219.702 150.656 219.702 150.176C219.702 148.88 220.086 147.704 220.854 146.648C221.526 146.408 222.198 146.216 222.87 146.072C223.59 145.88 224.286 145.664 224.958 145.424C225.486 145.52 226.014 145.592 226.542 145.64C227.07 145.688 227.598 145.712 228.126 145.712C230.094 145.712 232.014 145.472 233.886 144.992C235.758 144.464 237.606 143.912 239.43 143.336C241.158 142.808 242.91 142.328 244.686 141.896C246.462 141.464 248.238 140.984 250.014 140.456C251.694 140.024 253.35 139.544 254.982 139.016C256.614 138.44 258.319 138.08 260.095 137.936C261.247 137.12 262.639 136.568 264.271 136.28C265.951 135.992 267.487 135.68 268.879 135.344C271.087 134.816 273.271 134.288 275.431 133.76C277.591 133.184 272.204 134.768 274.46 134.336C276.956 133.808 279.38 133.16 281.732 132.392C284.132 131.624 286.532 130.808 288.932 129.944H289.652C290.468 129.944 291.308 129.848 292.172 129.656C293.036 129.464 293.9 129.368 294.764 129.368C295.004 129.368 295.196 129.392 295.34 129.44C295.532 129.44 295.724 129.44 295.916 129.44C296.06 129.44 296.42 129.344 296.996 129.152C297.572 128.912 297.98 128.744 298.22 128.648C298.844 129.32 299.54 129.92 300.308 130.448C301.076 130.976 301.748 131.576 302.324 132.248Z" fill="white"/>
<path d="M405.682 102.198C405.682 106.395 402.28 109.797 398.083 109.797C393.886 109.797 390.484 106.395 390.484 102.198C390.484 98.0019 393.886 94.5998 398.083 94.5998C402.28 94.5998 405.682 98.0019 405.682 102.198Z" fill="#EBFD00"/>
<path d="M400.077 102.199C400.077 103.299 399.186 104.191 398.086 104.191C396.986 104.191 396.094 103.299 396.094 102.199C396.094 101.099 396.986 100.207 398.086 100.207C399.186 100.207 400.077 101.099 400.077 102.199Z" fill="#0C284A"/>
<path d="M235.332 2.35375C234.497 1.31273 232.923 -0.208079 230.66 0.0236746C228.461 0.24899 226.744 1.4851 225.464 3.09301C224.799 2.70026 223.873 2.33356 222.773 2.42309C221.406 2.5344 220.411 3.29125 219.794 4.09887C219.227 4.84054 218.909 5.69751 218.709 6.4436C218.609 6.81502 218.528 7.20843 218.459 7.6184C218.388 7.57994 218.317 7.54128 218.245 7.5061C217.326 7.06087 215.789 6.71642 214.318 7.68578C213.404 8.28769 212.932 9.14884 212.676 9.84203C212.275 9.39891 211.873 9.00107 211.472 8.67407C211.114 8.38166 210.635 8.04186 210.053 7.80785C209.475 7.57483 208.514 7.33948 207.436 7.70727C206.304 8.09348 205.663 8.92968 205.341 9.59496C205.04 10.2184 204.935 10.8437 204.891 11.3049C204.803 12.2378 204.898 13.3219 205.062 14.4192C205.195 15.3048 205.268 16.0336 205.297 16.6184C203.82 16.8083 202.441 17.4966 201.374 18.8196C200.62 19.7537 200.144 20.8515 199.857 22.0207C196.959 19.789 194.18 18.1436 191.684 17.7219C189.643 17.377 187.665 17.3649 185.816 17.802C183.427 18.3667 181.696 19.9401 180.857 22.2248C179.973 24.6328 180.533 27.5325 181.502 30.3088C181.937 31.5562 182.36 32.7607 182.768 33.9221C181.072 33.1218 179.425 32.5117 178.035 32.427C177.223 32.3775 175.727 32.4618 174.597 33.6809C173.442 34.9278 173.5 36.4535 173.642 37.2834C173.837 38.4221 174.073 39.5617 174.348 40.7024C172.839 40.3927 171.43 40.2217 170.165 40.2502C168.907 40.2786 167.522 40.5087 166.32 41.2483L166.082 41.4026L165.901 41.5334C165.018 42.2089 164.426 43.1964 164.29 44.3635C164.162 45.4552 164.465 46.4321 164.783 47.1467C165.293 48.2948 166.177 49.4907 167.25 50.7004C166.453 50.9679 165.398 51.538 164.81 52.7756C164.117 54.2346 164.55 55.6139 164.895 56.3567C165.074 56.7411 165.299 57.1091 165.547 57.4592C165.394 57.5262 165.242 57.5992 165.093 57.6838C164.102 58.2502 163.118 59.3466 163.07 60.9631C163.037 62.0903 163.491 63.0107 163.891 63.6213C163.688 63.6469 163.49 63.6759 163.297 63.7092C162.526 63.8429 161.647 64.0739 160.864 64.5334C160.036 65.0194 159.071 65.924 158.82 67.3791C158.622 68.5263 158.965 69.5054 159.337 70.1916C158.719 70.7177 158.086 71.5173 157.899 72.6584C157.667 74.0755 158.253 75.2166 158.765 75.9065C159.507 76.9055 160.679 77.7546 161.952 78.4973C161.667 78.6885 161.398 78.897 161.15 79.1252C160.253 79.9502 159.578 81.1099 159.53 82.4778C159.128 82.6988 158.473 82.9929 157.469 83.3235C156.612 83.6058 155.67 83.9851 154.918 84.5452C154.232 85.0559 152.711 86.5586 153.445 88.7678C153.727 89.6169 154.26 90.1865 154.651 90.5227C155.057 90.8717 155.498 91.1314 155.888 91.3274C156.384 91.5764 156.95 91.7966 157.56 91.9973C157.945 93.008 158.848 93.788 159.994 93.9582C160.369 94.0139 160.737 93.9953 161.088 93.9211L162.716 93.9914H162.782C163.035 93.9914 163.359 93.9826 163.687 93.9348C163.848 93.9113 164.105 93.8655 164.396 93.7639C164.62 93.6857 165.249 93.4469 165.788 92.8245C166.512 91.9864 166.747 90.8289 166.393 89.7698C166.131 88.9836 165.633 88.5222 165.455 88.3645C165.051 88.0078 164.615 87.7988 164.432 87.7131C164.164 87.5874 163.829 87.4558 163.437 87.3176C163.526 87.2546 163.613 87.1906 163.698 87.1252C164.629 86.4052 165.74 85.1383 165.787 83.4163C166.028 83.3018 166.349 83.1713 166.766 83.0354C167.518 82.7907 168.528 82.3702 169.302 81.553C169.729 81.1029 170.128 80.4847 170.303 79.6955C170.481 78.8969 170.379 78.1453 170.151 77.5198C169.742 76.3973 168.906 75.6173 168.299 75.134C167.621 74.594 166.79 74.0883 165.88 73.6096C165.568 73.4453 165.292 73.2895 165.047 73.1457C165.363 72.6348 165.603 72.0493 165.72 71.383C165.825 70.7867 165.815 70.2142 165.727 69.6741C165.852 69.6691 165.983 69.6642 166.121 69.6614C167.116 69.6411 168.101 69.551 168.967 69.3166C169.715 69.1144 171.06 68.6247 171.839 67.2766C172.761 65.6826 172.249 64.1162 171.767 63.2532C171.567 62.8941 171.322 62.5577 171.056 62.2434C171.91 61.717 172.72 60.8358 172.978 59.5403C173.227 58.2888 172.845 57.1947 172.481 56.4739C172.46 56.432 172.438 56.3905 172.416 56.3489C172.569 56.3036 172.723 56.2524 172.874 56.1907C173.423 55.966 174.056 55.5804 174.561 54.928C175.087 54.2493 175.327 53.4716 175.359 52.7297C175.415 51.4226 174.83 50.3189 174.405 49.6448C173.919 48.8752 173.259 48.0846 172.507 47.2922C172.25 47.0206 172.022 46.7673 171.818 46.5354C172.29 46.5994 172.828 46.694 173.437 46.8274C174.318 47.0203 175.179 47.1499 175.983 47.1702C176.752 47.1895 177.696 47.1165 178.599 46.718C179.613 46.2707 180.514 45.4285 180.915 44.1829C181.27 43.0771 181.108 42.0249 180.89 41.2678C180.737 40.7351 180.596 40.2032 180.463 39.6731C180.588 39.7341 180.718 39.7969 180.851 39.8635C181.923 40.4003 182.917 40.8367 183.806 41.134C184.625 41.4077 185.657 41.6697 186.692 41.5832C187.246 41.537 187.959 41.3782 188.642 40.9202C189.372 40.4309 189.866 39.7332 190.118 38.967C190.552 37.6454 190.193 36.3756 189.94 35.6643C189.135 33.3999 188.268 30.9365 187.339 28.2737C186.447 25.7146 186.566 24.6131 186.661 24.3557C186.757 24.0943 186.848 24.0024 186.88 23.9729C186.912 23.9451 186.999 23.8751 187.238 23.8186C188.101 23.6146 189.219 23.5752 190.654 23.8176C191.584 23.9747 193.39 24.824 196.245 27.0422C197.046 27.6648 197.823 28.2023 198.562 28.6096C199.257 28.9928 200.138 29.3851 201.102 29.4885C202.183 29.6043 203.592 29.3527 204.622 28.1487C205.492 27.131 205.648 25.9196 205.667 25.1526C205.705 23.6096 206.008 22.9563 206.157 22.7414C206.213 22.7413 206.303 22.7458 206.432 22.7688C207.579 22.9723 208.906 22.7372 209.952 21.7395C210.836 20.8959 211.173 19.8246 211.323 19.0705C211.414 18.6109 211.466 18.1114 211.484 17.5803C212.11 18.0367 212.99 18.5242 214.056 18.5881C214.884 18.6377 215.752 18.4244 216.503 17.8801C217.201 17.3731 217.604 16.7211 217.837 16.1965C217.989 15.8515 218.099 15.4898 218.178 15.1262C219.185 15.5547 220.583 15.7274 221.921 14.9143C223.089 14.2039 223.628 13.0717 223.895 12.3118C224.186 11.4841 224.344 10.5476 224.432 9.60082C224.439 9.52383 224.45 9.44934 224.458 9.37719C225.088 9.5317 225.768 9.58554 226.485 9.47875C228.159 9.22917 229.365 8.211 230.171 7.11157C230.377 6.82913 230.561 6.63479 230.714 6.49731C231.118 7.07685 231.64 8.02346 232.252 9.44946C232.672 10.4283 233.171 11.3979 233.795 12.1516C234.313 12.7786 235.677 14.1449 237.73 13.7502C239.561 13.3981 240.433 11.8785 240.765 11.2161C241.004 10.7402 241.205 10.2055 241.38 9.63696L242.136 10.8997L244.279 10.5813C245.967 10.3305 247.133 8.75812 246.882 7.06957C246.779 6.37405 246.449 5.77032 245.981 5.31469C245.433 4.46193 244.853 3.69165 244.232 3.07739C243.534 2.38736 242.323 1.43207 240.678 1.42895C238.792 1.42548 237.588 2.63268 236.965 3.60278C236.83 3.8136 236.71 4.03644 236.596 4.26586C236.192 3.54641 235.772 2.90266 235.332 2.35375Z" fill="#EBFD00"/>
<path d="M244.844 3.09887C244.399 2.9745 243.828 2.92102 243.206 3.08129C242.58 3.24264 242.095 3.57077 241.753 3.91625C241.151 4.52397 240.966 5.20209 240.909 5.43188C240.871 5.58487 240.845 5.72892 240.829 5.85571L240.801 6.177L240.79 6.37426L240.782 6.52758L240.789 6.68188L240.8 6.89184C240.787 6.95049 240.775 7.00956 240.766 7.06957C240.537 8.61187 241.491 10.0557 242.944 10.4856C243.115 10.7224 243.306 10.9538 243.523 11.1663C244.203 11.8313 245.441 12.5895 247.036 12.2493L247.213 12.2122L247.389 12.1741C248.401 11.9583 249.145 11.3969 249.636 10.9172C249.703 10.8512 249.77 10.7841 249.834 10.7151C250.471 11.0303 251.232 11.2033 252.114 11.0784C252.72 11.5488 253.389 11.9468 254.126 12.2268L254.296 12.2913L254.465 12.3557C255.418 12.7177 256.367 12.7404 257.24 12.5461C257.764 12.996 258.462 13.3786 259.347 13.4817C260.596 13.6269 261.604 13.1439 262.241 12.7043L262.385 12.6047C262.802 12.6999 263.222 12.7895 263.643 12.8684L263.998 12.9348C264.305 12.9924 264.607 13.074 264.903 13.1809L265.073 13.2424L265.242 13.3039C266.298 13.6849 267.307 13.6139 268.171 13.3586C268.688 13.8878 269.345 14.3405 270.164 14.5989L270.215 14.6907C270.49 15.1804 270.939 15.7469 271.644 16.1516C272.378 16.5726 273.164 16.6884 273.868 16.6145C274.597 16.5379 275.219 16.2611 275.712 15.9602C275.992 16.4519 276.382 16.9507 276.927 17.3635C277.679 17.9335 278.553 18.2069 279.429 18.2229L279.626 18.2258L279.823 18.2297C279.882 18.2308 279.915 18.2376 279.928 18.2405C279.938 18.243 279.939 18.2434 279.939 18.2434L280.101 18.3245L280.263 18.4045C280.335 18.44 280.42 18.4979 280.521 18.6096L280.645 18.7454C280.646 18.7476 280.647 18.7498 280.647 18.7522C280.661 18.8058 280.676 18.8815 280.69 18.9817L280.774 19.5608C280.843 20.0316 281.012 20.7254 281.493 21.386C282.039 22.1358 282.856 22.6558 283.81 22.8088C284.538 22.9255 285.174 22.8016 285.631 22.6555C285.71 23.12 285.885 23.7178 286.298 24.2922C286.858 25.0734 287.687 25.5747 288.606 25.7288C289.417 25.8645 290.116 25.7036 290.569 25.552L291.122 25.3664C291.53 25.2297 291.72 25.227 291.746 25.2268L292.158 25.2698C292.463 25.3018 292.766 25.3399 293.067 25.3821C293.429 26.1855 293.965 26.9432 294.734 27.5432L294.877 27.6545L295.02 27.7659C295.016 27.7623 295.014 27.7608 295.018 27.7659C295.023 27.7719 295.041 27.7946 295.065 27.844L295.152 28.0207L295.239 28.1985C295.818 29.379 296.791 30.2666 298.048 30.718L298.225 30.7805C298.17 30.9774 298.119 31.1821 298.085 31.3928C298.008 31.868 297.923 32.826 298.439 33.8088C299.076 35.0193 300.211 35.5316 301.145 35.6379C301.349 35.6611 301.547 35.6655 301.734 35.6584C301.989 36.0452 302.339 36.4107 302.816 36.7151C303.042 36.8591 303.272 36.97 303.499 37.0569C303.502 37.1383 303.504 37.2204 303.513 37.303C303.62 38.3886 304.171 39.5802 305.397 40.2971L305.56 40.3918L305.723 40.4875C305.791 40.5272 305.847 40.5664 305.894 40.6047L305.883 40.7454C305.817 41.5373 305.924 42.5832 306.598 43.5442C307.05 44.187 307.626 44.6028 308.197 44.8694C308.348 45.4477 308.631 46.0301 309.1 46.5491C309.823 47.3481 310.723 47.7073 311.448 47.8674L311.927 47.9729C312.237 48.0415 312.556 48.102 312.883 48.1584C312.954 48.911 313.2 49.6994 313.748 50.4338L313.965 50.7248C314.097 50.9023 314.24 51.0649 314.388 51.2161C314.077 51.6531 313.787 52.1539 313.603 52.7034C313.436 53.204 313.283 53.9646 313.493 54.8313C313.723 55.7818 314.303 56.5049 314.989 56.9641L315.325 57.1887C315.692 57.4342 316.037 57.691 316.361 57.9573L316.513 58.0813L316.665 58.2063C317.429 58.8333 318.325 59.2168 319.194 59.4661C319.246 59.7089 319.312 59.9489 319.395 60.1858L319.329 60.2688C318.908 60.7894 318.419 61.5137 318.188 62.4055C317.964 63.271 317.995 64.3044 318.512 65.261C318.188 66.3031 318.116 67.5384 318.659 68.7678L318.73 68.928L318.801 69.0891C319.342 70.314 320.368 70.9203 321.017 71.2102C321.147 71.2681 321.28 71.3196 321.414 71.3684C321.42 71.665 321.463 71.9788 321.558 72.3069C321.724 72.878 322.001 73.3309 322.319 73.6907C322.116 74.0694 321.948 74.4813 321.841 74.926L321.785 75.1907L321.751 75.3762L321.718 75.5627C321.301 77.8693 322.813 79.3715 323.943 80.0647L324.178 80.2082L324.239 80.2454C324.134 80.3736 324.023 80.5049 323.903 80.637L323.55 81.0276C322.911 81.7327 322.096 83.1276 322.681 84.843C322.8 85.1918 322.962 85.497 323.145 85.7639C322.968 85.999 322.802 86.2461 322.657 86.509L322.555 86.7014L322.378 87.0569C321.449 88.9126 322.403 90.5377 322.906 91.1907C323.461 91.9107 324.223 92.5153 324.947 93.0129C325.617 93.7267 326.613 94.1129 327.655 93.9582C329.344 93.7075 330.509 92.1351 330.259 90.4465L330.046 89.0159L329.255 88.4719C329.859 87.9377 330.888 86.7645 330.616 85.0129C330.495 84.2339 330.152 83.6341 329.761 83.1809C329.844 83.0603 329.929 82.941 330.008 82.8186L330.263 82.4221C330.657 81.8137 331.004 81.0046 331.02 80.0383C331.037 79.0342 330.693 78.1541 330.187 77.4631L330.065 77.2971L329.944 77.1311C329.554 76.5982 329.091 76.1392 328.59 75.7414C329.061 75.2612 330.262 73.8572 329.698 71.926C329.488 71.208 329.102 70.6775 328.678 70.2864C328.859 69.4554 328.763 68.4866 328.185 67.6135C327.631 66.7762 326.86 66.379 326.407 66.1936C325.915 65.9919 325.414 65.8854 324.991 65.8215L324.802 65.7922C324.928 65.0681 324.898 64.2934 324.635 63.5364C325.04 63.0245 325.468 62.3656 325.705 61.5793C325.975 60.6815 326.013 59.5224 325.385 58.4123L325.294 58.2522L325.237 58.1516L325.235 57.7698C325.228 56.6442 324.764 55.602 323.931 54.843C323.199 54.1753 322.343 53.871 321.684 53.7161L321.103 53.5793C320.856 53.5211 320.698 53.4644 320.607 53.425C320.605 53.4242 320.603 53.422 320.601 53.4211C321.055 52.867 321.621 52.0436 321.807 51.05C321.945 50.3173 321.906 49.2959 321.25 48.3489C320.636 47.4632 319.785 47.0834 319.224 46.9202C319.37 46.0743 319.333 44.8751 318.482 43.7971C317.592 42.6699 316.347 42.3764 315.614 42.2922L315.329 42.259L315.044 42.2268C314.688 42.186 314.355 42.138 314.044 42.0862C313.896 41.5983 313.652 41.1064 313.269 40.6545C312.908 40.228 312.494 39.9188 312.077 39.6946C311.991 38.8058 311.687 37.8672 310.993 37.0383L310.879 36.9006L310.764 36.7639C310.53 36.4838 310.276 36.2259 310.007 35.9885C310.121 35.6194 310.226 35.1616 310.236 34.6545C310.249 34.0409 310.125 33.1366 309.481 32.3088C308.716 31.3251 307.72 31.0118 306.908 30.9426C306.527 30.2128 305.916 29.6508 305.176 29.3254C305.2 29.0662 305.204 28.7988 305.18 28.5286C305.122 27.884 304.879 26.9923 304.131 26.2483C303.375 25.4979 302.469 25.2598 301.802 25.2141L301.335 25.1829C300.996 25.1596 300.751 25.1074 300.581 25.0549C300.164 24.2268 299.583 23.4847 298.821 22.8909L298.678 22.7786L298.675 22.7756L298.612 22.6018L298.54 22.3977L298.441 22.1409C298.192 21.5423 297.804 20.9418 297.223 20.4416C296.553 19.8634 295.777 19.5508 295.017 19.428L294.814 19.3957L294.611 19.3625C294.013 19.2657 293.41 19.1851 292.805 19.1213L292.392 19.0784C292.219 19.0601 292.046 19.0515 291.874 19.0481C291.854 18.8908 291.83 18.7327 291.796 18.5754C291.616 17.7422 291.128 16.5857 289.906 15.8743L289.748 15.7825L289.591 15.6897C288.411 15.0027 287.203 15.1135 286.406 15.3313C286.241 15.3765 286.079 15.4318 285.921 15.4914C285.759 15.2288 285.571 14.9742 285.352 14.7336L285.223 14.5911L285.095 14.4495C284.508 13.8053 283.817 13.2693 283.023 12.8733L282.699 12.7112C282.063 12.3937 281.396 12.1993 280.719 12.1086C280.356 11.3974 279.893 10.7254 279.301 10.1448L279.16 10.0061L279.019 9.8684L278.815 9.6809C277.777 8.7959 276.483 8.6345 275.388 8.90942C274.831 9.04919 274.339 9.294 273.921 9.56078C273.509 9.2505 273.03 8.99586 272.478 8.82836L272.376 8.65844L272.194 8.37817C271.729 7.71564 270.978 7.01901 269.857 6.74633C268.772 6.48259 267.816 6.73404 267.132 7.05102L266.855 7.18969L266.711 7.26879C266.195 7.09726 265.67 6.95875 265.135 6.85864L264.78 6.79223C264.357 6.71308 263.936 6.62379 263.518 6.52465L263.344 6.48266L263.169 6.44164L262.865 6.38012C261.862 6.21316 260.949 6.41085 260.183 6.74633C259.853 6.51612 259.47 6.31463 259.025 6.1809C257.966 5.86243 256.965 6.03023 256.173 6.37621C256.086 6.32791 255.976 6.25674 255.845 6.14965L255.516 5.88207L255.31 5.72192C254.519 5.13853 253.561 4.77879 252.515 4.78051C251.962 4.04608 250.68 2.8151 248.706 3.26977C247.842 3.46877 247.234 3.94169 246.867 4.30102C246.813 4.35426 246.76 4.40856 246.71 4.46313C246.593 4.29763 246.449 4.11551 246.276 3.9436C246.113 3.78111 245.629 3.31864 244.844 3.09887ZM323.628 68.9455L324.408 69.6858L324.347 70.0911L323.566 69.3508L323.628 68.9455ZM323.957 69.7209L324.347 70.0911L324.408 69.6858L324.017 69.3157L323.957 69.7209ZM323.566 69.3508L323.957 69.7209L324.017 69.3157L323.628 68.9455L323.566 69.3508ZM320.632 58.1926L320.324 58.1946L320.37 57.9963L320.678 57.9954L320.632 58.1926ZM320.37 57.9963L320.324 58.1946L320.632 58.1926L320.678 57.9954L320.37 57.9963ZM314.879 46.1848L314.849 46.4436L314.568 46.3752L314.597 46.1165L314.879 46.1848ZM314.568 46.3752L314.849 46.4436L314.879 46.1848L314.597 46.1165L314.568 46.3752ZM312.653 43.5461L312.606 43.762L312.354 43.7639L312.401 43.5491L312.653 43.5461ZM312.401 43.5491L312.354 43.7639L312.606 43.762L312.653 43.5461L312.401 43.5491ZM306.02 35.217L305.645 35.0872L305.566 34.6741L305.941 34.8039L306.02 35.217ZM305.645 35.0872L306.02 35.217L305.941 34.8039L305.566 34.6741L305.645 35.0872ZM302.25 30.3987L302.645 31.6399L302.175 31.4436L301.779 30.2024L302.25 30.3987ZM302.175 31.4436L302.645 31.6399L302.448 31.0198L301.977 30.8235L302.175 31.4436ZM301.977 30.8235L302.448 31.0198L302.25 30.3987L301.779 30.2024L301.977 30.8235ZM301.242 29.9788L301.206 30.5022L300.977 30.4075L301.013 29.883L301.242 29.9788ZM300.977 30.4075L301.206 30.5022L301.242 29.9788L301.013 29.883L300.977 30.4075ZM276.361 14.5686L276.524 14.762L276.16 14.925L275.997 14.7317L276.361 14.5686ZM275.997 14.7317L276.16 14.925L276.524 14.762L276.361 14.5686L275.997 14.7317ZM266.863 8.28246L266.979 7.95922L267.095 8.17114L266.978 8.49535L266.863 8.28246ZM266.863 8.28246L266.978 8.49535L267.095 8.17114L266.979 7.95922L266.863 8.28246ZM246.012 7.44164L245.852 7.44946L245.999 7.38207L246.012 7.44164ZM245.852 7.44946L246.012 7.44164L245.999 7.38207L245.852 7.44946Z" fill="#EBFD00"/>
<path d="M252.97 29.78L253.213 29.8122C254.419 30.0091 255.426 30.7058 256.239 31.6872C256.336 31.8046 256.41 31.8633 256.454 31.8913C256.495 31.9167 256.516 31.9203 256.525 31.9216C256.535 31.9231 256.669 31.9422 256.985 31.7575C257.39 31.5198 257.918 31.3223 258.517 31.3796C259.151 31.4403 259.65 31.7651 260 32.1696C260.613 32.8774 260.883 33.9503 261.031 35.0134C261.048 35.1366 261.066 35.2475 261.085 35.3464C261.412 35.0467 261.782 34.7676 262.195 34.5964C262.711 34.3818 263.419 34.2936 264.087 34.7028C264.676 35.0635 264.954 35.6486 265.097 36.0886C265.202 36.4144 265.268 36.7764 265.311 37.1579C265.415 37.0441 265.528 36.9174 265.648 36.7741C266.109 36.2227 266.565 35.7487 267.007 35.4216C267.228 35.2577 267.5 35.0903 267.813 34.9851C268.131 34.8778 268.574 34.8099 269.048 34.9743C270.038 35.3177 270.271 36.2921 270.338 36.7185C270.423 37.2584 270.4 37.9058 270.324 38.5935C270.212 39.6206 270.217 40.2998 270.273 40.7067C271.391 40.6944 272.414 41.0885 273.196 41.9694C273.902 42.7653 274.288 43.8089 274.47 44.9694C274.699 44.8396 274.976 44.6607 275.302 44.4226C277.216 43.0247 278.981 42.0807 280.517 41.8972C281.813 41.7423 283.036 41.7964 284.163 42.1022C285.505 42.4663 286.491 43.3369 287.039 44.613C287.621 45.9669 287.445 47.6808 286.926 49.488C286.52 50.9011 286.138 52.2323 285.781 53.4821C286.058 53.3773 286.382 53.2404 286.754 53.0632C288.027 52.4578 289.215 52.0211 290.159 52.0105C290.655 52.0049 291.345 52.1148 291.866 52.6716C292.394 53.2355 292.451 53.9386 292.401 54.4401C292.288 55.5615 292.115 56.687 291.887 57.8171C292.1 57.8103 292.379 57.7818 292.732 57.7155C293.777 57.5192 294.73 57.4304 295.566 57.4851C296.392 57.5391 297.212 57.7401 297.88 58.2263C298.353 58.5704 298.676 59.0672 298.78 59.6628C298.875 60.2107 298.767 60.7354 298.608 61.1745C298.297 62.0342 297.639 62.9728 296.795 63.9538C296.657 64.1147 296.539 64.262 296.438 64.3942C296.801 64.4083 297.159 64.4534 297.489 64.5515C297.96 64.6916 298.558 64.9979 298.885 65.6589C299.211 66.3176 299.093 66.9782 298.922 67.4362C298.75 67.898 298.458 68.3428 298.132 68.7546C298.069 68.8341 298.015 68.907 297.968 68.9733C298.394 69.0455 298.847 69.173 299.241 69.4226C299.737 69.7362 300.157 70.2614 300.218 70.9851C300.271 71.6146 300.027 72.1596 299.79 72.5456C299.59 72.8726 299.326 73.1927 299.027 73.5065C299.061 73.5084 299.095 73.5119 299.131 73.5134C300.262 73.5618 301.379 73.7237 302.152 74.2253C302.591 74.5104 303.011 74.9677 303.145 75.6296C303.272 76.2584 303.089 76.8238 302.867 77.2419C302.784 77.3992 302.749 77.5106 302.735 77.5798C302.721 77.6449 302.727 77.6716 302.727 77.6716C302.727 77.6716 302.729 77.6761 302.731 77.6804C302.733 77.6854 302.739 77.6961 302.75 77.7126C302.775 77.7477 302.831 77.8134 302.948 77.8991C303.349 78.1924 303.758 78.6497 303.881 79.3064C304.004 79.9598 303.792 80.5325 303.531 80.9499C303.053 81.7179 302.146 82.3936 301.123 83.0065C300.946 83.113 300.792 83.2132 300.658 83.3044C301.279 83.574 301.842 83.907 302.272 84.3386C302.833 84.9017 303.174 85.649 303.089 86.5026C303.104 86.5166 303.121 86.5348 303.143 86.5534C303.4 86.7687 303.923 87.0613 304.837 87.3845C305.376 87.5751 305.921 87.8217 306.335 88.1726C306.773 88.5433 307.276 89.2398 307.05 90.1628C306.87 90.8976 306.301 91.3577 305.916 91.6149C305.534 91.8706 305.062 92.099 304.534 92.3132L304.599 92.987L304.609 93.0866C304.682 93.8637 304.111 94.5531 303.334 94.6267C303.008 94.6574 302.699 94.5742 302.443 94.4108L301.422 94.2067L301.379 94.195C301.19 94.1443 300.952 94.0637 300.723 93.9245C300.501 93.7895 300.157 93.5183 299.99 93.0388C299.809 92.5171 299.937 92.0439 300.102 91.7351C300.253 91.4532 300.459 91.2521 300.61 91.1237C300.916 90.8629 301.316 90.6366 301.723 90.4372C302.138 90.2339 302.641 90.0191 303.224 89.7937C302.477 89.4876 301.826 89.1378 301.328 88.7214C300.692 88.1887 300.125 87.373 300.262 86.3278C300.132 86.2002 299.811 85.9851 299.154 85.7468C298.69 85.5787 298.163 85.3199 297.777 84.8806C297.316 84.3571 297.138 83.6629 297.342 82.9597C297.511 82.3757 297.905 81.9227 298.262 81.5944C298.642 81.2455 299.123 80.9093 299.669 80.5817C300.133 80.3036 300.484 80.0605 300.736 79.8532C300.764 79.8297 300.79 79.8055 300.815 79.7839C300.4 79.3701 300.081 78.8556 299.955 78.2292C299.83 77.6078 299.92 77.0059 300.126 76.4538C299.848 76.4006 299.481 76.3587 299.011 76.3386C298.395 76.3122 297.813 76.2392 297.316 76.0837C296.85 75.9382 296.222 75.646 295.856 75.0056C295.446 74.2877 295.59 73.5512 295.826 73.0407C296.052 72.5532 296.424 72.1101 296.823 71.7185C296.848 71.6935 296.871 71.668 296.895 71.6442C296.115 71.4454 295.207 70.9847 294.947 69.8962C294.803 69.2971 294.934 68.734 295.117 68.2937C295.271 67.9242 295.494 67.5635 295.752 67.2146C295.296 67.2058 294.809 67.1442 294.372 66.944C293.749 66.6582 293.242 66.0929 293.161 65.2888C293.096 64.6348 293.341 64.0361 293.581 63.5954C293.84 63.1213 294.21 62.623 294.652 62.1101C295.33 61.3214 295.704 60.7511 295.878 60.3776C295.753 60.3471 295.591 60.3201 295.381 60.3064C294.864 60.2726 294.164 60.3228 293.253 60.4939C292.245 60.6832 291.138 60.7641 290.269 60.3415C289.766 60.097 289.345 59.6843 289.13 59.1062C288.93 58.5692 288.958 58.0262 289.054 57.571C289.237 56.7057 289.382 55.845 289.491 54.9899C289.48 54.9937 289.468 54.9977 289.455 55.0017C289.063 55.1295 288.569 55.331 287.968 55.6169C287.296 55.9364 286.681 56.1864 286.136 56.3483C285.619 56.502 285.035 56.6169 284.478 56.5437C283.838 56.4595 283.141 56.0976 282.829 55.2995C282.579 54.6595 282.694 54.0002 282.826 53.5349C283.25 52.0479 283.711 50.4389 284.208 48.7077C284.683 47.0538 284.622 46.1495 284.442 45.7292C284.228 45.2313 283.916 44.9647 283.422 44.8308C282.714 44.6388 281.865 44.5826 280.852 44.7038C280.078 44.7964 278.81 45.3617 276.97 46.7058C276.462 47.0767 275.977 47.3861 275.522 47.612C275.083 47.83 274.58 48.0173 274.059 48.0466C273.49 48.0785 272.847 47.9171 272.36 47.3903C271.922 46.9175 271.78 46.3292 271.737 45.863C271.634 44.7575 271.355 44.1559 271.08 43.8464C270.881 43.6213 270.622 43.4809 270.073 43.5485C269.49 43.6204 268.875 43.4798 268.375 43.0378C267.927 42.6409 267.704 42.1169 267.585 41.6677C267.395 40.9496 267.372 40.0394 267.448 39.0124C267.11 39.3867 266.778 39.7108 266.453 39.9665C266.053 40.2817 265.466 40.6559 264.763 40.6726C264.371 40.6818 263.974 40.5775 263.625 40.3405C263.291 40.114 263.073 39.8156 262.93 39.5407C262.664 39.0277 262.568 38.4152 262.534 37.8454C262.25 38.0792 261.935 38.286 261.588 38.4206C261.04 38.6336 260.36 38.6806 259.718 38.3161C259.142 37.9891 258.819 37.4528 258.63 37.0007C258.434 36.5315 258.31 35.9826 258.23 35.4011C258.17 34.9693 258.096 34.6412 258.021 34.4001C257.434 34.6735 256.783 34.8211 256.098 34.7165C255.243 34.5861 254.568 34.1029 254.06 33.489C253.579 32.9073 253.153 32.6792 252.789 32.6101C252.739 32.6456 252.652 32.7156 252.529 32.8532C252.19 33.2321 251.764 33.9041 251.269 34.9558C250.987 35.5543 250.667 36.109 250.288 36.5212C249.933 36.9069 249.254 37.449 248.326 37.2829C247.472 37.1298 246.99 36.4643 246.745 36.0339C246.469 35.5472 246.254 34.9334 246.075 34.2585C246.013 34.0233 245.951 33.8386 245.895 33.695C245.693 33.906 245.44 34.2214 245.142 34.6716L244.673 35.3786L243.83 35.2985L243.731 35.2888C242.954 35.2152 242.383 34.5258 242.456 33.7487C242.497 33.3196 242.726 32.9538 243.053 32.7243C243.417 32.2138 243.788 31.7696 244.175 31.4265C244.634 31.0189 245.283 30.6008 246.079 30.6022C246.964 30.6039 247.601 31.1118 247.997 31.6569C248.374 32.1757 248.626 32.8395 248.81 33.5368L248.811 33.5427C249.321 32.4863 249.853 31.6043 250.421 30.9685C250.962 30.3637 251.754 29.7451 252.765 29.7663L252.97 29.78Z" fill="#EBFD00"/>
<path d="M236.714 31.5163C237.73 31.3903 238.752 31.3604 239.778 31.4255C240.912 31.4975 241.986 31.8941 242.993 32.5437L243.622 32.4841L243.721 32.4743C244.499 32.401 245.188 32.9716 245.261 33.7487C245.274 33.8764 245.266 34.0012 245.245 34.1218L245.267 34.2302V34.3737C245.267 34.5662 245.236 34.8597 245.068 35.1618C244.883 35.4947 244.59 35.7333 244.257 35.8562C243.709 36.0577 243.212 35.894 243.047 35.8366C242.612 35.6859 242.126 35.3789 241.662 35.0524C240.914 34.526 240.23 34.2869 239.598 34.2468C238.747 34.1928 237.902 34.2178 237.061 34.322C236.206 34.4281 235.361 34.6008 234.528 34.8386C233.883 35.0228 233.242 35.395 232.605 36.0144C231.718 36.8783 230.749 37.5374 229.695 37.946C228.651 38.351 227.544 38.5156 226.392 38.4528C225.524 38.4055 224.679 38.4472 223.856 38.5759C223.298 38.6634 222.797 38.9336 222.33 39.4792C221.533 40.41 220.59 41.1108 219.5 41.53C218.731 41.8256 217.994 42.1846 217.287 42.6062C216.383 43.145 215.402 43.5396 214.349 43.7946C213.43 44.0175 212.497 44.2456 211.551 44.4792C210.805 44.6636 210.176 44.9858 209.641 45.4392C209.207 45.8075 208.842 46.3796 208.62 47.2751C208.42 48.0827 208.003 48.823 207.284 49.3298C206.578 49.8268 205.743 49.9856 204.916 49.9577C204.024 49.9277 203.771 50.1929 203.638 50.4372C203.061 51.4988 202.26 52.3611 201.246 53.0007C200.843 53.2546 200.555 53.6525 200.449 54.3874C200.232 55.8919 199.43 57.0769 198.053 57.736C197.527 57.9882 197.257 58.3367 197.143 58.8757C196.874 60.1493 196.243 61.2282 195.25 62.0495C194.489 62.6784 193.686 63.2975 192.841 63.906C192.408 64.2174 192.204 64.5973 192.209 65.2087C192.218 66.3912 192.062 67.5078 191.718 68.5446C191.373 69.5889 190.836 70.5467 190.119 71.4128C189.553 72.0969 189.043 72.8124 188.591 73.5593C188.281 74.071 188.154 74.6489 188.247 75.3581C188.386 76.4242 188.448 77.461 188.43 78.4665C188.408 79.6968 188.017 80.8382 187.298 81.863C186.859 82.4885 186.624 83.1203 186.56 83.7731C186.495 84.44 186.594 85.1494 186.896 85.9187C187.478 87.4004 187.168 88.8434 186.168 90.0573C185.855 90.4365 185.602 91.2325 185.914 92.8522L185.952 93.0515L185.933 93.2526L185.924 93.3522C185.85 94.1294 185.161 94.7 184.384 94.6267C183.644 94.5567 183.092 93.9285 183.104 93.198C182.774 91.3281 182.914 89.559 183.986 88.2585C184.406 87.7492 184.432 87.3771 184.265 86.9528C183.819 85.816 183.633 84.6577 183.747 83.4968C183.862 82.3221 184.286 81.2308 184.983 80.238C185.4 79.6447 185.592 79.0466 185.603 78.4167C185.618 77.562 185.566 76.6651 185.443 75.7253C185.274 74.4287 185.505 73.1963 186.173 72.0944C186.698 71.2276 187.287 70.3993 187.94 69.6101C188.443 69.0029 188.803 68.3532 189.034 67.6569C189.267 66.9532 189.389 66.1493 189.382 65.2321C189.369 63.7437 189.979 62.4819 191.189 61.611C191.986 61.0373 192.739 60.4569 193.448 59.8708C193.924 59.4772 194.233 58.9719 194.377 58.2917C194.676 56.8765 195.529 55.8096 196.833 55.1853C197.286 54.968 197.556 54.6358 197.65 53.9831C197.855 52.5604 198.529 51.371 199.738 50.6091C200.335 50.2328 200.804 49.7326 201.155 49.0866C201.951 47.6234 203.41 47.0776 205.011 47.1315C205.429 47.1456 205.599 47.0578 205.655 47.0183C205.697 46.9886 205.799 46.9018 205.876 46.5944C206.207 45.2602 206.829 44.1164 207.813 43.2819C208.697 42.5325 209.725 42.0188 210.874 41.7351C211.823 41.5005 212.76 41.2714 213.683 41.0476C214.474 40.8559 215.19 40.5642 215.839 40.1774C216.684 39.6734 217.566 39.2447 218.485 38.8913C219.083 38.6614 219.65 38.2616 220.182 37.6403C221.044 36.6341 222.132 35.9835 223.42 35.7819C224.444 35.6217 225.487 35.5718 226.547 35.6296C227.324 35.672 228.027 35.5608 228.674 35.3103C229.31 35.0633 229.965 34.6378 230.633 33.988C231.552 33.0934 232.592 32.4511 233.753 32.1198C234.725 31.8422 235.713 31.6405 236.714 31.5163Z" fill="#EBFD00"/>
<path d="M238.539 54.1708C237.849 54.242 237.244 54.5743 236.727 55.0917C236.597 55.2217 236.497 55.2605 236.424 55.2714C236.348 55.2827 236.227 55.2745 236.038 55.1815C235.812 55.0707 235.547 54.9988 235.261 55.0292C234.966 55.0604 234.717 55.1941 234.521 55.3807C234.164 55.7213 233.97 56.2514 233.847 56.8016C233.808 56.9784 233.763 57.1028 233.725 57.1883C233.697 57.1679 233.66 57.1446 233.622 57.1112C233.417 56.935 233.184 56.7757 232.926 56.6903C232.651 56.5991 232.324 56.588 232.015 56.7548C231.727 56.9103 231.554 57.1669 231.449 57.4012C231.342 57.6391 231.275 57.9163 231.232 58.2089C231.23 58.2195 231.229 58.23 231.227 58.2401C231.123 58.153 230.996 58.0309 230.846 57.8641C230.601 57.5911 230.354 57.357 230.109 57.1991C229.889 57.0572 229.51 56.8749 229.09 57.0165C228.648 57.1658 228.472 57.5632 228.401 57.8241C228.324 58.1047 228.305 58.4404 228.316 58.7948C228.335 59.427 228.278 59.7998 228.207 59.9852C228.206 59.9875 228.204 59.9899 228.204 59.9921C227.54 59.9746 226.939 60.1819 226.458 60.6434C225.995 61.0886 225.704 61.6986 225.537 62.4051C225.511 62.3962 225.481 62.3883 225.448 62.3739C225.309 62.3138 225.131 62.2145 224.911 62.0643C223.908 61.3817 222.977 60.9412 222.154 60.8856C221.452 60.8383 220.792 60.8984 220.18 61.079C219.482 61.2852 218.942 61.7225 218.589 62.3612C218.211 63.0461 218.181 63.9346 218.343 64.9081C218.485 65.7621 218.614 66.5638 218.728 67.3133C218.721 67.3116 218.714 67.3113 218.707 67.3094C218.526 67.2619 218.289 67.1736 217.99 67.035C217.338 66.7335 216.723 66.5247 216.217 66.5438C215.946 66.5542 215.629 66.6337 215.38 66.8807C215.13 67.1292 215.049 67.4464 215.04 67.7206C215.019 68.3886 215.032 69.0631 215.079 69.743C215.079 69.7505 215.078 69.7573 215.079 69.7635C215.051 69.7695 215.011 69.7763 214.956 69.7792C214.835 69.7854 214.67 69.7764 214.452 69.7401C213.413 69.5672 212.445 69.5931 211.775 70.0819C211.546 70.2486 211.382 70.4787 211.301 70.7557C211.225 71.0203 211.236 71.2884 211.287 71.5331C211.385 72.0083 211.66 72.5311 212.032 73.078C212.163 73.2705 212.249 73.4248 212.303 73.5438C212.295 73.5439 212.286 73.5449 212.278 73.5448C212.002 73.5426 211.727 73.5697 211.48 73.6532C211.227 73.7386 210.959 73.9001 210.792 74.1923C210.626 74.4841 210.622 74.797 210.676 75.0575C210.729 75.3128 210.846 75.564 210.987 75.8016C211.074 75.9489 211.119 76.058 211.141 76.1317C211.107 76.1423 211.061 76.1557 210.999 76.1659C210.54 76.2416 209.899 76.4751 209.762 77.1639C209.703 77.4626 209.769 77.7456 209.865 77.9764C209.962 78.2101 210.109 78.4418 210.284 78.6678C210.312 78.705 210.338 78.7392 210.359 78.7704C210.273 78.7849 210.163 78.7987 210.024 78.8046C209.435 78.8295 208.865 78.9238 208.46 79.2001C208.237 79.3526 208.046 79.5742 207.959 79.8719C207.875 80.1616 207.914 80.444 207.997 80.6844C208.064 80.8796 208.055 80.9957 208.036 81.0624C208.018 81.1253 207.972 81.2139 207.832 81.3202C207.623 81.4783 207.436 81.7008 207.356 81.9989C207.276 82.2966 207.324 82.5827 207.423 82.8241C207.608 83.2711 208.016 83.6869 208.497 84.0721C208.676 84.2164 208.802 84.3365 208.885 84.4325C208.062 84.7459 207.282 85.308 207.33 86.2743L207.328 86.2762C207.321 86.289 207.297 86.3273 207.229 86.3856C207.083 86.5103 206.807 86.6648 206.345 86.8231C206.062 86.9203 205.781 87.0497 205.564 87.2382C205.33 87.4413 205.125 87.7622 205.172 88.1766C205.213 88.538 205.433 88.8094 205.625 88.9901C205.83 89.1821 206.095 89.3594 206.396 89.5262C206.483 89.5747 206.558 89.6202 206.621 89.662C206.546 89.6936 206.458 89.7288 206.354 89.7626C206.024 89.8697 205.729 89.991 205.489 90.1356C205.262 90.2725 205.003 90.4778 204.869 90.787C204.711 91.15 204.783 91.5123 204.961 91.7938C205.119 92.0426 205.359 92.2358 205.599 92.3885C205.852 92.5492 206.035 92.6827 206.164 92.788L206.123 92.8339L206.106 93.0682L206.098 93.1678C206.069 93.5526 206.358 93.8881 206.743 93.9169C207.072 93.9414 207.364 93.7332 207.459 93.4315L207.521 93.3622L207.558 93.3202L207.588 93.2723C207.761 92.998 207.747 92.7018 207.667 92.4764C207.596 92.2753 207.468 92.1112 207.354 91.9882C207.129 91.7467 206.795 91.4969 206.394 91.2391C206.496 91.1933 206.626 91.1427 206.786 91.0907C207.119 90.9823 207.425 90.8511 207.666 90.6805C207.901 90.5143 208.171 90.2394 208.216 89.829C208.262 89.4145 208.054 89.0874 207.855 88.8758C207.653 88.6607 207.378 88.4732 207.075 88.3046C206.969 88.2456 206.88 88.1903 206.806 88.1415C207.337 87.9589 207.799 87.7368 208.136 87.4491C208.488 87.1487 208.752 86.7299 208.724 86.2059L208.732 86.1561C208.74 86.1353 208.757 86.1087 208.791 86.0731C208.879 85.9825 209.062 85.8582 209.401 85.7313C209.65 85.6382 209.911 85.4989 210.106 85.2753C210.323 85.0258 210.424 84.7083 210.375 84.3719C210.332 84.071 210.18 83.8127 210.016 83.6063C209.847 83.3938 209.626 83.1856 209.372 82.9813C209.16 82.8118 209.003 82.6651 208.892 82.5409C208.828 82.4689 208.786 82.41 208.758 82.3661C209.049 82.1246 209.273 81.8198 209.379 81.4452C209.487 81.0668 209.458 80.6813 209.344 80.3124C209.38 80.2997 209.425 80.284 209.485 80.2704C209.631 80.2369 209.828 80.2109 210.083 80.2001C210.401 80.1866 210.702 80.1459 210.962 80.0585C211.218 79.9725 211.509 79.8159 211.693 79.5194C211.89 79.2025 211.886 78.8579 211.803 78.5721C211.725 78.3014 211.569 78.046 211.39 77.8143C211.308 77.7078 211.253 77.6183 211.212 77.5477C211.217 77.5469 211.222 77.5456 211.227 77.5448C211.71 77.4651 212.286 77.2363 212.491 76.6278C212.673 76.0849 212.447 75.5261 212.189 75.0897C212.158 75.0382 212.137 74.99 212.117 74.9491C212.16 74.9462 212.21 74.9418 212.267 74.9423C212.551 74.9445 212.857 74.9098 213.126 74.7782C213.428 74.6308 213.663 74.3689 213.742 74.0077C213.811 73.6892 213.739 73.3773 213.641 73.1219C213.54 72.8572 213.382 72.5788 213.188 72.2928C212.849 71.7935 212.697 71.4531 212.655 71.2489C212.649 71.2212 212.648 71.1991 212.647 71.1825C212.86 71.0606 213.325 70.9687 214.222 71.118C214.759 71.2074 215.32 71.2215 215.768 70.993C216.013 70.868 216.216 70.6739 216.341 70.413C216.462 70.1619 216.49 69.8944 216.473 69.6464C216.434 69.0772 216.422 68.5138 216.434 67.9559C216.493 67.9666 216.566 67.9836 216.655 68.0096C216.854 68.0682 217.102 68.1642 217.403 68.3036C217.745 68.4622 218.063 68.5844 218.349 68.66C218.625 68.733 218.928 68.7778 219.216 68.7274C219.536 68.6715 219.847 68.4928 220.022 68.1512C220.176 67.8515 220.173 67.5242 220.133 67.2596C220.012 66.458 219.875 65.5976 219.722 64.6786C219.579 63.8198 219.661 63.3121 219.813 63.037C219.99 62.7159 220.235 62.5196 220.576 62.4188C221.004 62.2924 221.496 62.2421 222.06 62.2801C222.502 62.3101 223.178 62.5755 224.124 63.2196C224.623 63.5598 225.159 63.8375 225.665 63.8387C225.953 63.8394 226.248 63.7504 226.487 63.5272C226.712 63.3166 226.824 63.0453 226.878 62.7958C227.005 62.2199 227.206 61.8642 227.426 61.6522C227.623 61.4637 227.867 61.3665 228.227 61.3895C228.515 61.4079 228.803 61.3321 229.046 61.1434C229.276 60.9655 229.418 60.7244 229.509 60.4901C229.685 60.0362 229.732 59.4334 229.712 58.7538C229.712 58.7346 229.713 58.7154 229.712 58.6971C229.742 58.7287 229.774 58.7618 229.806 58.7977C230.053 59.0726 230.298 59.3056 230.54 59.4745C230.769 59.6346 231.072 59.7924 231.419 59.788C231.826 59.7827 232.133 59.5621 232.322 59.2762C232.489 59.0222 232.571 58.7112 232.615 58.412C232.631 58.3005 232.65 58.2103 232.668 58.1385C232.681 58.1486 232.695 58.1573 232.708 58.1688C233.087 58.4955 233.692 58.851 234.328 58.5311C234.612 58.3878 234.802 58.1487 234.928 57.9149C235.055 57.6794 235.145 57.4017 235.211 57.1053C235.263 56.8751 235.319 56.7032 235.374 56.5799C235.401 56.5189 235.426 56.4758 235.445 56.4462C235.817 56.6246 236.218 56.7151 236.631 56.6532C237.056 56.5895 237.419 56.377 237.716 56.079C238.055 55.7401 238.375 55.5922 238.682 55.5604C238.645 55.5643 238.712 55.5323 238.909 55.7196C239.103 55.9049 239.343 56.2328 239.621 56.746C239.782 57.0454 239.967 57.3196 240.183 57.5204C240.4 57.7213 240.737 57.9235 241.158 57.8563C241.558 57.7925 241.82 57.5164 241.98 57.284C242.147 57.0411 242.28 56.7334 242.392 56.3944C242.467 56.1676 242.538 56.0369 242.588 55.9676C242.611 55.9808 242.64 55.9999 242.676 56.0272C242.81 56.1291 242.985 56.3073 243.201 56.5897L243.43 56.8915L243.808 56.8632L243.908 56.8553C244.292 56.8266 244.581 56.492 244.552 56.1073C244.532 55.8407 244.364 55.624 244.135 55.5233C243.935 55.2829 243.732 55.0754 243.523 54.9159C243.257 54.7132 242.923 54.5412 242.54 54.5428C242.126 54.5447 241.795 54.7461 241.559 55.0165C241.337 55.2711 241.181 55.6028 241.065 55.9559C241.026 56.0728 240.989 56.1724 240.953 56.2557C240.921 56.205 240.886 56.1479 240.85 56.0819C240.542 55.5116 240.22 55.0386 239.873 54.7079C239.528 54.3795 239.075 54.1154 238.539 54.1708Z" fill="#EBFD00"/>
<path d="M246.502 55.2714C246.113 55.1758 245.729 55.2309 245.377 55.3934C245.201 55.4746 245.032 55.5499 244.869 55.621L244.897 55.536L244.008 55.4696L243.908 55.4628C243.523 55.434 243.188 55.7225 243.159 56.1073C243.154 56.175 243.162 56.2404 243.176 56.3036L243.157 56.3612V56.4725C243.157 56.6242 243.192 56.8367 243.343 57.0282C243.5 57.2275 243.711 57.3133 243.885 57.3417C244.179 57.3896 244.474 57.2943 244.676 57.2157C245.069 57.0623 245.499 56.8769 245.964 56.662C246.067 56.6144 246.127 56.6184 246.169 56.6288C246.222 56.6418 246.321 56.6853 246.462 56.8309C246.962 57.3484 247.571 57.6784 248.275 57.6424C248.757 57.6178 249.246 57.5522 249.741 57.4471C250.117 57.3676 250.47 57.3649 250.807 57.4305C251.243 57.5156 251.681 57.599 252.119 57.6815C252.561 57.7647 253.006 57.8426 253.453 57.9159C253.721 57.9598 253.98 58.0946 254.236 58.371C254.647 58.8137 255.118 59.1444 255.653 59.3329C256.231 59.5365 256.854 59.5194 257.487 59.3446C257.924 59.2242 258.277 59.2252 258.567 59.3065C258.964 59.4175 259.346 59.5624 259.713 59.7411C260.087 59.9232 260.447 60.1327 260.792 60.369C261.056 60.5498 261.294 60.8181 261.494 61.202C261.775 61.7406 262.129 62.1945 262.565 62.5399C262.996 62.882 263.494 63.114 264.046 63.2411C264.459 63.3363 264.849 63.4683 265.217 63.6356C265.461 63.747 265.658 63.9361 265.805 64.2518C266.058 64.7975 266.414 65.2515 266.882 65.5858C267.208 65.8191 267.514 66.0767 267.798 66.3592C268.164 66.7233 268.586 67.0243 269.061 67.2626C269.474 67.4702 269.894 67.6788 270.319 67.8885C270.652 68.0525 270.915 68.2676 271.119 68.534C271.283 68.7484 271.398 69.0555 271.412 69.5067C271.425 69.9147 271.55 70.316 271.852 70.6317C272.147 70.9406 272.539 71.0917 272.94 71.1512C273.372 71.2154 273.46 71.3634 273.497 71.4794C273.678 72.0434 273.99 72.5276 274.429 72.9188C274.595 73.0666 274.699 73.2748 274.69 73.6346C274.669 74.3833 274.967 75.0222 275.594 75.4413C275.826 75.5965 275.929 75.7783 275.944 76.0399C275.983 76.6788 276.217 77.2468 276.652 77.7089C276.983 78.06 277.337 78.4062 277.714 78.7469C277.9 78.9155 277.975 79.1023 277.938 79.3915C277.864 79.9653 277.88 80.517 277.995 81.0399C278.112 81.5665 278.331 82.0576 278.646 82.5096C278.892 82.8642 279.112 83.2307 279.304 83.6083C279.433 83.8621 279.473 84.1423 279.402 84.4794C279.295 84.9936 279.229 85.497 279.207 85.9891C279.18 86.5944 279.345 87.1639 279.678 87.6815C279.879 87.9935 279.979 88.3028 279.998 88.6171C280.017 88.9386 279.958 89.2801 279.798 89.6493C279.652 89.9863 279.595 90.3469 279.656 90.7147C279.717 91.0784 279.885 91.4037 280.116 91.6883C280.267 91.8732 280.383 92.2402 280.227 92.9745L280.205 93.0721L280.221 93.2723C280.25 93.657 280.584 93.9454 280.969 93.9169C281.354 93.8881 281.642 93.5526 281.613 93.1678L281.612 93.1561C281.781 92.2775 281.716 91.4395 281.2 90.8055C281.088 90.6677 281.047 90.5614 281.034 90.4852C281.022 90.4131 281.028 90.3242 281.08 90.204C281.316 89.6584 281.428 89.0987 281.394 88.5331C281.359 87.9601 281.172 87.4212 280.853 86.9247C280.665 86.6338 280.589 86.3476 280.603 86.0507C280.621 85.6405 280.676 85.2127 280.77 84.7665C280.9 84.143 280.834 83.5352 280.55 82.9755C280.328 82.5396 280.075 82.1183 279.792 81.7118C279.577 81.4027 279.435 81.0788 279.359 80.7382C279.283 80.394 279.268 80.0064 279.324 79.5692C279.417 78.8473 279.193 78.1993 278.651 77.7098C278.301 77.3925 277.973 77.0733 277.669 76.7508C277.47 76.5392 277.359 76.2854 277.339 75.9559C277.296 75.2491 276.959 74.6722 276.37 74.2792C276.177 74.1501 276.079 73.9841 276.087 73.6717C276.106 72.9704 275.88 72.3408 275.358 71.8758C275.11 71.6543 274.933 71.3841 274.827 71.0526C274.577 70.2731 273.918 69.8833 273.145 69.7684C272.943 69.7384 272.877 69.683 272.861 69.6669C272.852 69.6574 272.814 69.6151 272.809 69.4628C272.787 68.793 272.61 68.1828 272.229 67.6844C271.887 67.2382 271.452 66.8884 270.937 66.6346C270.514 66.4266 270.098 66.2194 269.689 66.0135C269.34 65.8383 269.039 65.6226 268.783 65.368C268.445 65.0321 268.082 64.7253 267.694 64.4481C267.448 64.2719 267.238 64.019 267.072 63.663C266.8 63.0769 266.375 62.6278 265.796 62.3641C265.34 62.1565 264.861 61.9953 264.359 61.8798C263.996 61.7961 263.691 61.6491 263.433 61.4442C263.178 61.2426 262.941 60.9542 262.733 60.5555C262.445 60.0024 262.064 59.5461 261.581 59.2157C261.179 58.9408 260.76 58.6975 260.324 58.4852C259.881 58.2695 259.421 58.0943 258.943 57.9608C258.36 57.7977 257.743 57.8246 257.115 57.9979C256.684 58.1169 256.362 58.1009 256.117 58.0145C255.829 57.913 255.543 57.7251 255.261 57.4208C254.824 56.9498 254.295 56.6379 253.679 56.537C253.243 56.4655 252.809 56.3896 252.378 56.3085C251.943 56.2265 251.508 56.143 251.074 56.0585C250.541 55.9546 249.998 55.9649 249.451 56.0809C249.024 56.1716 248.608 56.2263 248.204 56.2469C248.023 56.2562 247.782 56.1867 247.467 55.8602C247.2 55.5843 246.881 55.3643 246.502 55.2714Z" fill="#EBFD00"/>
<path d="M160.091 172.689L144.329 161.743V130.984L140.279 126.278L135.901 128.905L134.368 126.825L149.036 116.864L157.464 126.825V154.847L170.162 162.837C170.162 162.472 170.162 161.998 170.162 161.414L170.052 130.984L164.251 123.979L174.759 116.864L184.72 128.576V157.474C184.72 160.466 184.975 162.655 185.486 164.041C185.997 165.428 186.508 166.522 187.019 167.325C187.602 168.128 187.894 169.186 187.894 170.5C187.894 172.105 187.456 173.346 186.581 174.221C185.705 175.17 184.683 175.936 183.516 176.52C182.348 177.177 181.29 177.833 180.341 178.49L160.091 192.72C158.924 191.042 157.391 189.619 155.494 188.451C153.67 187.356 151.48 186.809 148.926 186.809C145.861 186.809 143.089 187.721 140.607 189.546L139.075 188.451C140.316 185.24 142.468 182.431 145.533 180.023C148.598 177.614 152.247 176.41 156.479 176.41C161.879 176.41 166.404 178.308 170.052 182.102C171.22 182.029 172.168 181.519 172.898 180.57C173.628 179.694 173.993 178.636 173.993 177.396C173.993 175.863 173.737 174.623 173.227 173.674C172.789 172.798 172.278 171.813 171.694 170.718C171.11 169.551 170.673 167.836 170.381 165.574L160.091 172.689Z" fill="white"/>
<path d="M122.643 172.689L111.15 162.728L106.881 165.355L105.349 163.275L112.682 158.568V110.844C112.682 108.29 112.391 106.538 111.807 105.59C111.296 104.568 109.837 103.692 107.428 102.962V101.321L125.27 88.7327H127.35V159.553L131.619 163.822L134.684 161.195L136.326 163.275L122.643 172.689Z" fill="white"/>
<path d="M56.9381 165.245L54.9678 162.947L60.5502 158.349V130.218L85.1788 116.098L100.941 128.138V158.021L76.8598 172.689L61.4259 161.633L56.9381 165.245ZM87.368 164.37V132.845L74.7801 124.417V155.941L87.368 164.37Z" fill="white"/>
<path d="M17.2947 172.689L6.02032 163.166L1.86082 165.793L0 163.275L7.33384 158.568V108.654C7.33384 107.779 7.11492 106.83 6.67708 105.808C6.23924 104.714 4.70679 103.765 2.07975 102.962V101.321L19.9218 88.7327H22.0015V129.342L35.684 116.536L47.2868 126.278L51.5558 122.775L53.5261 125.073L48.8193 128.905V160.21C48.8193 163.056 48.4909 165.939 47.8341 168.858C47.2504 171.704 46.1193 174.367 44.4409 176.848C42.8354 179.329 40.5368 181.3 37.5449 182.759C34.553 184.291 30.6854 185.058 25.9421 185.058C24.7745 185.058 23.6434 184.948 22.5488 184.729V182.102C25.2488 182.102 27.4745 181.044 29.2259 178.928C31.0502 176.885 32.4002 174.221 33.2759 170.937C34.1516 167.581 34.5894 164.005 34.5894 160.21V132.298L28.1313 126.934L22.0015 132.626V159.553L25.6137 163.166L29.007 160.758L30.9773 163.275L17.2947 172.689Z" fill="white"/>
</svg>
