<svg xmlns="http://www.w3.org/2000/svg" width="487" height="193" fill="none" viewBox="0 0 487 193"><path fill="#fff" d="M486.026 153.641q0 1.224-.648 2.16-.576.864-.432 2.16a5 5 0 0 0-1.656 1.512q-.648.936-1.224 1.944a45.8 45.8 0 0 1-10.224 4.968 32.7 32.7 0 0 1-11.161 1.944q-.36 0-.648-.36a8 8 0 0 1-.576-.648 9 9 0 0 0-.648-.72.98.98 0 0 0-.72-.288q-.504 0-.792.216v-.288q.072-.072.072-.216 0-.864-.216-1.8a7 7 0 0 1-.216-1.728q0-1.008.36-1.656h.864q.72 0 1.368-.072a7.7 7.7 0 0 1 1.513-.144q.791 0 1.44.432 3.96-.144 7.488-1.44 3.6-1.368 7.272-2.664.576-.792.648-1.728a6.1 6.1 0 0 1 .576-1.872q-1.872-1.584-3.816-2.448-1.872-.936-4.392-.648a7.2 7.2 0 0 0-3.24-1.08 44 44 0 0 1-3.384-.432q-.432-.072-.936-.144a3 3 0 0 0-.937-.144q-.36 0-.719.216-.29.144-.145.504-.36-.576-1.008-.648a2.14 2.14 0 0 1-1.008-.576q-2.304-.144-4.032-.792-1.728-.72-3.816-1.584a5 5 0 0 0-1.152-.288 4.6 4.6 0 0 1-1.008-.432q-1.296-.648-2.088-1.728a8.6 8.6 0 0 1-1.224-2.376 14.2 14.2 0 0 1-.72-2.808q-.216-1.44-.432-2.664a37 37 0 0 0 1.224-2.377q.504-1.224.864-2.592.432-.216.864-.36t.936-.36a.8.8 0 0 1-.072-.36q0-.36.216-.72.288-.36.144-.72a59 59 0 0 0 3.024-2.952 18 18 0 0 0 2.592-3.456q1.08-.36 1.728-1.08l1.296-1.44a7.7 7.7 0 0 1 1.44-1.368q.792-.648 2.016-.792.288-.504.793-.792.504-.36 1.008-.648a6.5 6.5 0 0 0 .936-.648q.432-.36.648-1.008 1.152 0 2.088-.432 1.008-.432 1.944-.936a34 34 0 0 1 1.872-.936 5.4 5.4 0 0 1 2.16-.432q.288 0 .576.072.288 0 .648.072.504.504.648 1.224.216.648.288 1.44t.072 1.584q.072.792.288 1.44a33 33 0 0 1-1.44 2.448 4.86 4.86 0 0 1-1.944 1.872h-.144a1.3 1.3 0 0 1-.936-.216 1.8 1.8 0 0 0-1.008-.288q-.36 0-.576.216l-.36.36q-.144.144-.432.288-.216.144-.648 0-1.008.36-.792 1.224-1.368.144-2.304.864-.936.648-1.728 1.512a46 46 0 0 1-1.585 1.512q-.792.648-1.872.72a15.6 15.6 0 0 1-3.024 3.816 15.6 15.6 0 0 0-2.88 3.745q.216.576.288 1.224t.216 1.368q.648.864 1.512 1.512.936.648 1.8 1.296h.216q1.44 0 2.664.576 1.224.504 2.593.504.72 0 1.224-.288 1.872.432 3.672.72 1.872.288 3.744.432.936.144 1.872.144 1.008 0 1.872.216a10.5 10.5 0 0 1 1.584.576q.792.288 1.584.648a27 27 0 0 1 3.096 1.584 11.4 11.4 0 0 1 2.664 2.088 8.2 8.2 0 0 1 1.8 2.736q.648 1.512.648 3.528"/><path fill="#fff" d="M452.127 144.209q0 .792-.576 1.224-.576.36-.576 1.008 0 .288.288.72-1.008 0-1.368.648a20 20 0 0 0-.72 1.44h-.936q-.36 0-.576.144t-.432.432q-.144.216-.432.72-1.368.288-2.664.936-1.224.576-2.448 1.296-1.152.648-2.376 1.368-1.224.648-2.52 1.08-.648 1.08-1.872 1.728h-.216a.98.98 0 0 1-.648-.072q-.216-.216-.576-.216-.216 0-.288.072-2.16 1.44-4.824 1.44a12 12 0 0 1-1.368-.072 6.3 6.3 0 0 0-1.368-.144q-.216 0-.288.144l-.144.288q-.072.144-.216.288-.072.144-.504.144a6 6 0 0 1-1.584-.216 3.8 3.8 0 0 0-1.656-.072q-1.656-.936-2.592-1.8t-1.728-2.592a6 6 0 0 0-1.008-1.512 5.1 5.1 0 0 1-.864-1.584 25 25 0 0 1-.216-1.008q-.144-.792-.288-1.656t-.288-1.656a15 15 0 0 1-.072-1.08q0-.864.072-1.656l.288-1.728q.432-2.736.576-5.472a18.8 18.8 0 0 1 1.224-5.4 8.5 8.5 0 0 1-.144-1.512v-1.584q0-1.368-.36-2.305.576-.936.576-2.088 0-1.296-1.08-1.512v-.216q0-1.512-1.008-2.376 0-2.52 1.224-3.744 1.296-1.296 3.384-2.232.288-.432.216-.72.504.144.936.288t.864.144q.72 0 1.296-.216.216.864 1.08 1.08.936.144 1.512.432v.936a8.9 8.9 0 0 0 1.08 4.248 3.6 3.6 0 0 0-.36 1.224q-.072.648-.072 1.224 0 .864.072 1.728t.072 1.656q0 .864-.216 1.729a2.73 2.73 0 0 1-.792 1.512q-.072.936-.144 2.16 0 1.152-.144 2.376a13 13 0 0 1-.36 2.376q-.288 1.152-.864 1.872-.072 1.08-.144 2.232v2.088q0 1.584.144 3.744.216 2.16 1.008 3.6.36.576 1.368.864 1.08.288 1.728.288.792 0 1.584-.216.864-.288 1.224-.936.432.072.576.432t.504.576a293 293 0 0 1 8.208-3.312 76 76 0 0 0 8.064-3.672 2.7 2.7 0 0 0 1.224.288q.72 0 1.44-.144t1.44-.144h.504q.144.432.144.648m-43.868 8.64q-.36.576-.864 1.08-.504.432-.936.936a2.9 2.9 0 0 1-1.152.216h-1.152a3.6 3.6 0 0 0-1.008 0 .98.98 0 0 0-.72.288q-.576-.144-.865-.504-.288-.432-1.008-.504a1.2 1.2 0 0 0-.576 0 27 27 0 0 1-2.016-2.592 281 281 0 0 0-1.656-2.592 52 52 0 0 0-.432-5.4q-.072-.648-.216-1.296a13 13 0 0 1-.216-1.224q0-.72.072-1.368.144-.72.216-1.296.288-2.088.648-4.104t.648-4.104a25.6 25.6 0 0 0 .288-3.889q0-2.088-.648-3.888l-.072-.36q.144-.576.288-.936.216-.432.288-.936.144-.792-.36-1.152.216-.576.72-.72.504-.216.576-.864a1.2 1.2 0 0 0 0-.576q.576-.216 1.152-.36.648-.216 1.224-.072a3.9 3.9 0 0 1 1.657.648q.72.432 1.368 1.008 1.152 3.456.936 7.344a107 107 0 0 1-.72 7.705 85 85 0 0 0-.648 7.632q-.144 3.672 1.152 6.84l.144.072a.54.54 0 0 0 .576-.216q.216-.36.576-.288.288.144.36.144.288 1.44.936 2.736t1.44 2.592m-14.24 4.608q-.216 1.008-.936 1.656-.648.576-1.584.936a9 9 0 0 1-1.944.504q-.936.072-1.728.072h-.72a2.7 2.7 0 0 0-.648-.072q-.36 0-.36.36t-.36.504a4 4 0 0 0-.72-.216 3.7 3.7 0 0 0-.72-.072q-.504 0-1.008.072a5 5 0 0 1-.864.072q-.576 0-.864-.144l-.432-.288a3 3 0 0 0-.36-.432q-.144-.216-.504-.36-.504-.216-.864-.072-.288.144-.936-.432a7.5 7.5 0 0 1-1.512-1.728 96 96 0 0 1-1.152-2.232 54 54 0 0 0-1.224-2.304 9.2 9.2 0 0 0-1.512-2.016h-.576q-1.296 0-1.8 1.08a7 7 0 0 1-.72-.504 3 3 0 0 0-.792-.576 36 36 0 0 1-3.456.864q-1.8.36-3.6.36h-1.008q-.432 0-.936-.144-.72.288-1.296.72-.576.36-1.296.36-.432 0-1.008-.288-.432 0-.432.36.072.36-.432.36h-.648q-1.008 0-2.016.072a25 25 0 0 1-1.944.072q-1.368 0-2.808-.36a1.5 1.5 0 0 1-.792.216q-.288.144-.432.504l-.288.576q-.144.216-.432.432-.216.144-.648.072-.144.864-.72 1.368-.577.504-.577 1.512-.792.432-1.296 1.08t-1.008 1.368-1.08 1.368a3.4 3.4 0 0 1-1.296 1.008q-.36.432-.216 1.368-.792.648-1.944 1.152t-2.16.504q-2.088 0-2.88-2.232 0-.72.144-1.512a7.8 7.8 0 0 1 .288-1.584q.216-.792.648-1.368.432-.648 1.224-.936 0-.648-.432-.864-.432-.288-.36-.936a11.5 11.5 0 0 0 3.384-2.448 27 27 0 0 0 2.592-3.168l2.448-3.456a18.8 18.8 0 0 1 2.737-3.096v-1.512q2.16-2.304 2.808-5.184.792-.144 1.008-.72.288-.576.288-1.368.36 0 .432-.288.144-.36.648-.216a24 24 0 0 1 1.44-3.168l1.584-2.88a25 25 0 0 0 1.368-3.096q.648-1.584.936-3.528 1.008-.073 1.08-.937.144-.936.288-1.656a6.1 6.1 0 0 0 1.584-2.376 28 28 0 0 0 1.008-2.808q.432-1.512.936-2.952a8.7 8.7 0 0 1 1.584-2.664V109q0-.36-.288-.432-.288-.144-.288-.504.072-.072.072-.144a2.54 2.54 0 0 0 1.296-1.152 2.48 2.48 0 0 1 1.296-1.224q1.512 1.224 2.664 1.512 1.152.216 3.024.36.936 1.008 1.008 2.448.144 1.368.504 2.736a125 125 0 0 0 1.224 4.536q.72 2.16 1.08 4.464a9.6 9.6 0 0 0 .792 2.593q.576 1.224.792 2.52.144 1.008 0 2.304-.144 1.224.288 2.16l.504 1.152q.36.792.576 1.656.288.864.504 1.728.576 2.16 1.008 4.68.504 2.448 1.512 4.464.36.72 1.08 1.008a9 9 0 0 0 1.728.432q.936.072 1.8.072a21 21 0 0 1 1.584-.072h.72q.432 0 .864.144.288.576.288 1.008 0 .864-.576 1.368t-.576 1.152q0 .36.288.792-.288-.072-.864-.072a9.4 9.4 0 0 0-3.24.576 6.7 6.7 0 0 0 1.512 2.088 33 33 0 0 0 2.088 1.512q.72-.576 1.512-.576.864 0 1.584.432.792.36 1.656.36.648 0 .936-.216a6.3 6.3 0 0 1 .936 1.368q.36.648.936 1.224m-22.536-11.52q-.144-1.224-.504-1.728a7.5 7.5 0 0 1-.504-1.368 14 14 0 0 1-.432-2.16 17 17 0 0 0-.288-2.232 90 90 0 0 0-1.152-4.896 32 32 0 0 0-1.512-4.752q.288-.432.288-.792v-.216a4.3 4.3 0 0 1-.936-1.728q-.288-1.08-.576-2.088a7.7 7.7 0 0 0-.648-1.945 3.14 3.14 0 0 0-1.224-1.512 2.2 2.2 0 0 0-.216 1.008q0 .504.072.937.144.432.144.936-.72.36-1.08 1.152-.288.72-1.008 1.152-.576 2.304-1.656 4.392a86 86 0 0 1-2.304 4.032 112 112 0 0 0-2.232 4.104 22 22 0 0 0-1.728 4.248q-.936.648-1.296 1.656a7.3 7.3 0 0 0-.288 2.016 3.6 3.6 0 0 0 1.44.432h1.656q.792 0 1.512.144t1.296.72a8.8 8.8 0 0 1 2.016-.36q1.152-.144 1.872-.648 1.44.504 3.096.504.864 0 1.656-.144a17 17 0 0 0 1.656-.36q.648.144 1.008.504.36.288 1.08.216.36-.288.432-.576.072-.36.36-.648"/><path fill="#fff" d="M366.797 150.185q-.144 1.08-.792 1.656-.576.576-1.368 1.08a3.7 3.7 0 0 0-.72-.072 2.7 2.7 0 0 0-.648-.072 12.5 12.5 0 0 0-4.248.576 22.4 22.4 0 0 1-4.032.936q-.72.144-1.368.144a3.6 3.6 0 0 0-1.224.072q-2.304.36-4.896.576a95 95 0 0 0-5.184.576 60 60 0 0 0-5.112.792q-2.448.432-4.608 1.296l-.432-.288a.7.7 0 0 0-.504-.216q-.72 0-1.368.216a3 3 0 0 1-1.296.144 5.8 5.8 0 0 1-1.584.648q-.792.144-1.656.288a9 9 0 0 0-1.584.288 4.2 4.2 0 0 0-1.513.792q-.576-.288-1.44-.288-.792-.072-1.08-.576-1.656.792-3.528 1.008-1.8.216-3.672.144a24 24 0 0 1-2.808-.36 25.5 25.5 0 0 1-3.168-.792 24 24 0 0 1-2.952-1.296q-1.368-.792-2.088-1.872a4.7 4.7 0 0 1-.72-1.584 1.96 1.96 0 0 0-1.008-1.296q.216-1.656.504-3.24t.576-3.24a35 35 0 0 0 5.184-5.472q1.368-.648 2.52-1.584 1.224-.936 2.376-1.872a465 465 0 0 1 2.376-1.944 18 18 0 0 1 2.592-1.656q.216-.504.576-.792.432-.36.864-.648.432-.36.792-.72.36-.432.504-1.008a16.7 16.7 0 0 0 4.393-3.816 11.8 11.8 0 0 0 2.448-5.185 6.04 6.04 0 0 0-2.809-1.296 22 22 0 0 0-3.168-.504 32 32 0 0 0-3.024 0q-1.512.072-3.096-.072-1.584.504-3.312.648l-3.312.288a19.6 19.6 0 0 0-3.312.432 9.7 9.7 0 0 0-3.096 1.152q-.288 0-.576-.072a1.6 1.6 0 0 0-.504-.072 8.9 8.9 0 0 0-4.32.937 312 312 0 0 0-3.96 1.872q-.144.288-.144.432 0 .432.144.864.216.36.216.792-.072.072-.072.144t-.072.144a2.6 2.6 0 0 1-.216.648q-.072.288-.216.648-.792 2.304-.864 4.536a47 47 0 0 0 0 3.672q.072 1.8 0 3.672a20.3 20.3 0 0 1-.72 4.32q.36 1.728.648 3.672.288 1.872.72 3.744a46 46 0 0 0 1.008 3.672 17.8 17.8 0 0 0 1.656 3.312q-.072.144.072.216a.64.64 0 0 0 .288.072h.576q.36 0 .288.288.144.216.216.432.072.144.288.288.144.216 0 .576a6.3 6.3 0 0 1-.72 2.664 7.2 7.2 0 0 0-.792 2.664 6.6 6.6 0 0 1-1.584.216q-1.224-.072-2.16-.72a8 8 0 0 1-1.728-1.44 49 49 0 0 1-1.512-1.728 8.3 8.3 0 0 0-1.584-1.584 110 110 0 0 1-1.008-4.464q-.432-2.448-1.512-4.176.288-.648.288-1.584a9.2 9.2 0 0 0-.288-2.808 9.7 9.7 0 0 1-.144-2.88q0-.792.144-1.584.216-.792.288-1.584a6.6 6.6 0 0 0-.288-2.376 7.8 7.8 0 0 1-.216-2.376q.072-.576.216-1.08.216-.576.576-1.008-.36-.864-.216-1.656.072-1.224.288-2.304t.288-2.16q0-.576-.072-1.08a7 7 0 0 0-.216-1.08l-.648-.216q-.432 0-.864.216-.36.216-.648.504l-.504.504a.77.77 0 0 1-.432.144h-.36a.64.64 0 0 0-.288-.072q-.144 0-.576.288-.36.288-.936.648a12 12 0 0 0-1.008.648q-.504.288-.792.36-.792-.144-1.296-.504a13 13 0 0 0-.864-.792 3.7 3.7 0 0 0-.792-.72q-.432-.36-1.08-.288a2.1 2.1 0 0 1-.216-.936 3.6 3.6 0 0 1 0-1.008v-1.152a4.15 4.15 0 0 1 1.368-1.512 8 8 0 0 1 1.728-1.081l1.872-.864a8 8 0 0 0 1.728-1.08h.648q1.296.072 2.232-.504a13 13 0 0 0 1.872-1.296l1.728-1.584a7.3 7.3 0 0 1 2.016-1.224q.792.36 1.656.648.864.216 1.8.288.936 0 1.944-.288t1.584-1.08q.36.144.576.216h.648q1.08.072 2.16-.288 1.08-.432 2.088-1.008 1.44.072 2.808-.144 1.44-.288 2.808-.576 1.44-.288 2.808-.504 1.44-.288 2.88-.216a19 19 0 0 0 4.68-.432 17 17 0 0 1 4.68-.36q1.656.072 3.241.288 1.656.144 3.312.072.936.432 1.656.792.792.288 1.944.144a25.2 25.2 0 0 1 4.176 4.536v1.224a12.4 12.4 0 0 1-.576 3.24 29 29 0 0 1-1.224 3.169 43 43 0 0 1-1.44 3.024q-.792 1.44-1.512 2.88-4.68 4.248-9.361 8.424a195 195 0 0 1-9.648 8.064 5 5 0 0 1-.432 1.296q-.216.576-.288 1.224 0 .36.072.576.504.144.864.576.432.36.288 1.008h.648q.36 0 .36.288l1.152.072q2.736.144 5.472-.144t5.473-.648q2.808-.36 5.544-.648a53 53 0 0 1 5.472-.432q.648-.216 1.368-.36t1.296-.576h.216q.504 0 .72.288.288.288.792.36.36 0 .72-.144.432-.144.864-.216a10 10 0 0 1 2.088-.36 32 32 0 0 0 2.232-.216q4.176-.36 8.28-.432a43.7 43.7 0 0 0 8.208-1.08q.36.504 1.008.72.648.144 1.368.36.72.144 1.296.36.648.216.864.864"/><path fill="#fff" d="M302.324 132.248a13 13 0 0 1-.504 1.944 7.5 7.5 0 0 1-.864 2.016 5.6 5.6 0 0 1-1.296 1.512q-.792.576-1.872.576a9 9 0 0 1-1.584-.144 6.3 6.3 0 0 0-1.656-.216q-.36 0-.792.288a1.4 1.4 0 0 1-.72.216q-.36 0-.648-.072-.216-.144-.576-.144-.216 0-.792.144t-1.224.288-1.224.36a13 13 0 0 0-.792.216 60 60 0 0 1-3.888 1.152q-1.944.504-4.032.648-.432-.144-1.296-.288-.864-.216-1.296-.216-.864 0-1.152.72-.216.72-.936 1.08c-.576.336 6.299-1.56 5.435-1.512q-1.296.072-2.592.216a10 10 0 0 0-2.448.576q-1.08.36-1.584 1.44a4 4 0 0 0-.792-.072 4 4 0 0 0-.792-.072q-2.304 0-4.32.936a60 60 0 0 1-4.104 1.584q.36.648.504 1.584l.288 1.872q.144.864.36 1.728.288.792.936 1.224 0 .432-.216.72-.144.288-.36.504l-.504.504q-.216.216-.288.648a7.4 7.4 0 0 0-.216 1.8q0 .864-1.008 1.296.072.216.072.792 0 .72-.216 1.368t-.144 1.44a18.5 18.5 0 0 0-2.088 2.808 13.4 13.4 0 0 0-1.224 3.096 290 290 0 0 1-5.473 5.328 98 98 0 0 1-5.688 5.257 81 81 0 0 1-5.976 4.752 47.6 47.6 0 0 1-6.408 4.032h-.504q-1.656 0-2.592.576t-2.376 1.008q-1.08-.288-2.592-.288-.864 0-1.8.072-.864.072-1.8.072a8 8 0 0 1-2.232-.288 29 29 0 0 1-1.872-.648q-.864-.36-1.8-.72a9 9 0 0 0-2.016-.504q-4.464-4.464-7.056-10.44-2.592-5.905-2.592-12.169 0-2.88.792-5.616.792-2.808.792-5.616a43 43 0 0 0 2.232-5.328l2.016-5.472a88 88 0 0 1 2.16-5.328 32.6 32.6 0 0 1 2.88-5.04q.36-1.872 1.152-3.24t1.728-3.024q0-1.584.648-2.88a7.9 7.9 0 0 0 .864-3.025 9.2 9.2 0 0 0 1.872-2.448q.72-1.368 1.368-2.808t1.44-2.736a7.5 7.5 0 0 1 2.304-2.304q.144-.504.144-1.08.072-.648.36-1.008l1.512-1.656a22 22 0 0 0 1.296-1.872q.648-1.008 1.368-1.8.432-.432.936-.72t.864-.648.216-.936q-.072-.576.288-.936.144-.144.432-.288t.504-.288a11.5 11.5 0 0 0 1.584-1.296q.648-.648 1.8-.936a20 20 0 0 0 1.8-1.584 23 23 0 0 1 1.728-1.44 7 7 0 0 1 1.872-1.008q1.008-.432 2.52-.432.288 0 .576.072h.576q2.952 2.736 3.672 6.696a10 10 0 0 0-1.296 2.16 24 24 0 0 1-1.008 2.304 7.9 7.9 0 0 0-2.304 1.296q-1.08.792-2.16 1.656a13.4 13.4 0 0 1-2.16 1.512q-1.08.648-2.448.648-.576.504-1.872 1.656-1.224 1.08-2.592 2.304-1.296 1.224-2.448 2.304-1.08 1.08-1.368 1.512-.216.36-.36.648a9 9 0 0 0-.288.648l-1.872 3.168a201 201 0 0 1-3.24 5.401 37 37 0 0 0-2.88 5.472 19 19 0 0 0-.936 2.592q-.36 1.296-.72 2.736a7 7 0 0 1-.36.864q-.216.432-.36.792a28 28 0 0 0-1.296 2.808q-.504 1.296-.576 3.024-1.8 4.032-3.384 8.136a49 49 0 0 0-2.304 8.352q.432 1.44.36 2.952v2.88q0 1.8.216 2.952.288 1.224.72 2.16.504 1.008 1.08 2.016.576 1.08 1.224 2.52 1.08.865 1.944 1.801a26 26 0 0 1 1.656 2.16q2.736 1.368 5.544 1.368 2.016 0 4.104-.648a24.6 24.6 0 0 0 4.032-1.656 38 38 0 0 0 3.888-2.088 667 667 0 0 0 3.6-2.233q3.024-1.8 5.256-3.888a38 38 0 0 0 4.032-4.392 45 45 0 0 0 3.456-4.896 900 900 0 0 0 3.313-5.616 4.5 4.5 0 0 1 .288-.864l.432-1.08q.216-.576.36-1.008.216-.504.216-.648 0-.576-.288-.792-.216-.288-.216-.576 0-.576.288-.792t.648-.432a2.7 2.7 0 0 0 .72-.504q.36-.288.36-1.08-.144-.072-.504-.072t-.72.072-.72.072q-.864 0-1.44-.576-.36.144-.72.504-.36.288-.721.648-.288.36-.576.648t-.504.288q-.36 0-.576-.144-.144-.144-.432-.144-1.224 0-2.16.576a9.7 9.7 0 0 1-2.016.936h-.432a1.4 1.4 0 0 0-.432-.072q-.792 0-1.584.288-.72.216-1.44.504-.648.288-1.368.504t-1.44.144q-1.584.576-2.952 1.224-1.296.648-3.024.504-.504.216-1.08.504a5.4 5.4 0 0 0-1.008.576q-.432.144-.648.144-.36 0-.576-.36-.576.648-1.512.936-.936.216-1.944.432-1.008.144-1.944.432a2.3 2.3 0 0 0-1.368.936q-.792-.648-1.872-.648t-2.088.432q-1.008.36-2.16.36-.432 0-.576-.144a22 22 0 0 0-.648-1.584 2.25 2.25 0 0 0-1.152-1.152 88 88 0 0 0-.288-1.512 17 17 0 0 1-.072-1.512q0-1.944 1.152-3.528a16 16 0 0 1 2.016-.576 27 27 0 0 0 2.088-.648 18 18 0 0 0 3.168.288q2.952 0 5.76-.72a187 187 0 0 0 5.544-1.656 94 94 0 0 1 5.256-1.44q2.664-.648 5.328-1.44a85 85 0 0 0 4.968-1.44 20.2 20.2 0 0 1 5.113-1.08q1.728-1.224 4.176-1.656a71 71 0 0 0 4.608-.936q3.312-.792 6.552-1.584c2.16-.576-3.227 1.008-.971.576a70 70 0 0 0 7.272-1.944q3.6-1.152 7.2-2.448h.72q1.224 0 2.52-.288a12 12 0 0 1 2.592-.288q.36 0 .576.072h.576q.216 0 1.08-.288.864-.36 1.224-.504.936 1.008 2.088 1.8a10.4 10.4 0 0 1 2.016 1.8"/><path fill="#ebfd00" d="M405.682 102.198a7.599 7.599 0 1 1-15.198 0 7.599 7.599 0 0 1 15.198 0"/><path fill="#0c284a" d="M400.077 102.199a1.991 1.991 0 1 1-3.983.001 1.991 1.991 0 0 1 3.983-.001"/><path fill="#ebfd00" d="M235.332 2.354c-.835-1.041-2.409-2.562-4.672-2.33-2.199.225-3.916 1.461-5.196 3.069-.665-.393-1.591-.76-2.691-.67-1.367.111-2.362.868-2.979 1.676-.567.742-.885 1.599-1.085 2.345q-.148.558-.25 1.174-.106-.058-.214-.112c-.919-.445-2.456-.79-3.927.18-.914.602-1.386 1.463-1.642 2.156a11 11 0 0 0-1.204-1.168 5.5 5.5 0 0 0-1.419-.866c-.578-.233-1.539-.469-2.617-.1-1.132.385-1.773 1.222-2.095 1.887-.301.623-.406 1.249-.45 1.71-.088.933.007 2.017.171 3.114.133.886.206 1.615.235 2.2a5.9 5.9 0 0 0-3.923 2.2c-.754.935-1.23 2.033-1.517 3.202-2.898-2.232-5.677-3.877-8.173-4.3-2.041-.344-4.019-.356-5.868.081-2.389.565-4.12 2.138-4.959 4.423-.884 2.408-.324 5.307.645 8.084q.653 1.871 1.266 3.613c-1.696-.8-3.343-1.41-4.733-1.495-.812-.05-2.308.035-3.438 1.254-1.155 1.247-1.097 2.773-.955 3.602q.293 1.71.706 3.42c-1.509-.31-2.918-.481-4.183-.453-1.258.029-2.643.259-3.845.998l-.238.155-.181.13a4.13 4.13 0 0 0-1.611 2.83c-.128 1.092.175 2.07.493 2.784.51 1.148 1.394 2.344 2.467 3.553-.797.268-1.852.838-2.44 2.076-.693 1.459-.26 2.838.085 3.58.179.385.404.753.652 1.103q-.23.099-.454.225c-.991.566-1.975 1.663-2.023 3.28-.033 1.126.421 2.047.821 2.657q-.305.039-.594.088c-.771.134-1.65.365-2.433.824-.828.486-1.793 1.391-2.044 2.846-.198 1.147.145 2.126.517 2.813-.618.526-1.251 1.325-1.438 2.466-.232 1.418.354 2.559.866 3.248.742 1 1.914 1.849 3.187 2.591q-.429.287-.802.628c-.897.825-1.572 1.985-1.62 3.353-.402.22-1.057.515-2.061.846-.857.282-1.799.661-2.551 1.221-.686.51-2.207 2.014-1.473 4.223.282.849.815 1.418 1.206 1.755.406.349.847.608 1.237.804.496.25 1.062.47 1.672.67a3.09 3.09 0 0 0 2.434 1.961c.375.056.743.037 1.094-.037l1.628.07h.066c.253 0 .577-.008.905-.056.161-.024.418-.07.709-.171a3.26 3.26 0 0 0 1.392-.94 3.14 3.14 0 0 0 .605-3.054 3.25 3.25 0 0 0-.938-1.405 4.3 4.3 0 0 0-1.023-.652 11 11 0 0 0-.995-.395 8 8 0 0 0 .261-.193c.931-.72 2.042-1.987 2.089-3.709.241-.114.562-.245.979-.38.752-.245 1.762-.666 2.536-1.483a3.94 3.94 0 0 0 1.001-1.858 3.87 3.87 0 0 0-.152-2.175c-.409-1.123-1.245-1.903-1.852-2.386-.678-.54-1.509-1.046-2.419-1.524q-.467-.248-.833-.464a5 5 0 0 0 .673-1.763 5.1 5.1 0 0 0 .007-1.709q.187-.008.394-.013c.995-.02 1.98-.11 2.846-.344.748-.203 2.093-.692 2.872-2.04.922-1.594.41-3.16-.072-4.024a6.4 6.4 0 0 0-.711-1.01c.854-.526 1.664-1.407 1.922-2.703.249-1.251-.133-2.345-.497-3.066l-.065-.125q.23-.067.458-.158a4.06 4.06 0 0 0 1.687-1.263 3.84 3.84 0 0 0 .798-2.198c.056-1.307-.529-2.411-.954-3.085-.486-.77-1.146-1.56-1.898-2.353a28 28 0 0 1-.689-.757q.707.094 1.619.292c.881.193 1.742.323 2.546.343.769.02 1.713-.053 2.616-.452 1.014-.447 1.915-1.29 2.316-2.535.355-1.106.193-2.158-.025-2.915a49 49 0 0 1-.427-1.595l.388.19c1.072.537 2.066.974 2.955 1.271.819.274 1.851.536 2.886.45a4.1 4.1 0 0 0 1.95-.664 3.75 3.75 0 0 0 1.476-1.953c.434-1.322.075-2.591-.178-3.303q-1.208-3.397-2.601-7.39c-.892-2.56-.773-3.66-.678-3.918.096-.262.187-.354.219-.383.032-.028.119-.098.358-.154.863-.204 1.981-.244 3.416-.001.93.157 2.736 1.006 5.591 3.224.801.623 1.578 1.16 2.317 1.568.695.383 1.576.775 2.54.878 1.081.116 2.49-.135 3.52-1.34.87-1.017 1.026-2.228 1.045-2.995.038-1.543.341-2.197.49-2.412.056 0 .146.005.275.028 1.147.203 2.474-.032 3.52-1.03.884-.843 1.221-1.914 1.371-2.669q.135-.692.161-1.49c.626.457 1.506.944 2.572 1.008a3.76 3.76 0 0 0 2.447-.708 4.13 4.13 0 0 0 1.334-1.683c.152-.345.262-.707.341-1.07 1.007.428 2.405.6 3.743-.213 1.168-.71 1.707-1.842 1.974-2.602.291-.828.449-1.764.537-2.711q.012-.116.026-.224a5.2 5.2 0 0 0 2.027.102c1.674-.25 2.88-1.268 3.686-2.367.206-.283.39-.477.543-.615.404.58.926 1.526 1.538 2.952.42.98.919 1.949 1.543 2.703.518.627 1.882 1.993 3.935 1.598 1.831-.352 2.703-1.871 3.035-2.534.239-.476.44-1.01.615-1.579l.756 1.263 2.143-.319a3.09 3.09 0 0 0 2.603-3.511 3.07 3.07 0 0 0-.901-1.755c-.548-.853-1.128-1.623-1.749-2.238-.698-.69-1.909-1.645-3.554-1.648-1.886-.004-3.09 1.204-3.713 2.174a7 7 0 0 0-.369.663 14 14 0 0 0-1.264-1.912"/><path fill="#ebfd00" d="M244.844 3.099a3.16 3.16 0 0 0-3.091.817 3.27 3.27 0 0 0-.844 1.516 4 4 0 0 0-.08.424l-.028.321-.011.197-.008.154.007.154.011.21a3.09 3.09 0 0 0 2.144 3.594c.171.236.362.468.579.68.68.665 1.918 1.423 3.513 1.083l.177-.037.176-.038c1.012-.216 1.756-.777 2.247-1.257a6 6 0 0 0 .198-.202 3.83 3.83 0 0 0 2.28.363c.606.47 1.275.869 2.012 1.149l.17.064.169.065a4.8 4.8 0 0 0 2.775.19c.524.45 1.222.833 2.107.936 1.249.145 2.257-.338 2.894-.778l.144-.1q.626.146 1.258.264l.355.067q.46.085.905.246l.17.061.169.062c1.056.38 2.065.31 2.929.055a4.8 4.8 0 0 0 1.993 1.24l.051.092c.275.49.724 1.056 1.429 1.46.734.422 1.52.537 2.224.463.729-.076 1.351-.353 1.844-.654.28.492.67.99 1.215 1.403a4.24 4.24 0 0 0 2.502.86l.197.003.197.004a.5.5 0 0 1 .116.013l.162.082.162.08a.9.9 0 0 1 .258.205l.124.135.002.007q.022.08.043.23l.084.579c.069.47.238 1.164.719 1.825a3.55 3.55 0 0 0 2.317 1.423 3.9 3.9 0 0 0 1.821-.154c.079.465.254 1.063.667 1.637a3.55 3.55 0 0 0 2.308 1.437 4.1 4.1 0 0 0 1.963-.177l.553-.186c.408-.136.598-.139.624-.14l.412.044q.457.049.909.112c.362.803.898 1.561 1.667 2.161l.143.111.143.112q-.007-.007-.002 0a.4.4 0 0 1 .047.078l.087.177.087.177a4.95 4.95 0 0 0 2.809 2.52l.177.063a6 6 0 0 0-.14.612c-.077.475-.162 1.433.354 2.416.637 1.21 1.772 1.723 2.706 1.829q.307.033.589.02c.255.387.605.753 1.082 1.057.226.144.456.255.683.342.003.081.005.163.014.246.107 1.086.658 2.277 1.884 2.994l.163.095.163.095q.101.06.171.118l-.011.14c-.066.792.041 1.838.715 2.8a4 4 0 0 0 1.599 1.324c.151.579.434 1.161.903 1.68.723.8 1.623 1.158 2.348 1.318l.479.106q.465.102.956.185c.071.753.317 1.541.865 2.276l.217.29q.2.266.423.492a5.8 5.8 0 0 0-.785 1.487 3.85 3.85 0 0 0-.11 2.128c.23.95.81 1.674 1.496 2.133l.336.225q.55.368 1.036.768l.152.124.152.125c.764.627 1.66 1.01 2.529 1.26q.077.364.201.72l-.066.083c-.421.52-.91 1.245-1.141 2.137-.224.865-.193 1.898.324 2.855-.324 1.042-.396 2.277.147 3.507l.071.16.071.161c.541 1.225 1.567 1.831 2.216 2.121q.195.087.397.158a3.62 3.62 0 0 0 .905 2.323 5.2 5.2 0 0 0-.478 1.235l-.056.265-.034.185-.033.187c-.417 2.306 1.095 3.808 2.225 4.502l.235.143.061.037q-.157.194-.336.392l-.353.39c-.639.706-1.454 2.1-.869 3.816.119.349.281.654.464.92a6 6 0 0 0-.488.746l-.102.192-.177.356c-.929 1.856.025 3.48.528 4.134.555.72 1.317 1.324 2.041 1.822a3.092 3.092 0 0 0 5.312-2.566l-.213-1.431-.791-.544c.604-.534 1.633-1.707 1.361-3.46a3.6 3.6 0 0 0-.855-1.831q.127-.18.247-.362l.255-.397c.394-.608.741-1.417.757-2.384a4.2 4.2 0 0 0-.833-2.575l-.122-.166-.121-.166a7.3 7.3 0 0 0-1.354-1.39c.471-.48 1.672-1.884 1.108-3.815a3.56 3.56 0 0 0-1.02-1.64c.181-.83.085-1.8-.493-2.672-.554-.838-1.325-1.235-1.778-1.42a6.2 6.2 0 0 0-1.416-.373l-.189-.029a4.5 4.5 0 0 0-.167-2.256c.405-.511.833-1.17 1.07-1.957.27-.898.308-2.057-.32-3.167l-.091-.16-.057-.1-.002-.382a3.96 3.96 0 0 0-1.304-2.927c-.732-.668-1.588-.972-2.247-1.127l-.581-.137a3 3 0 0 1-.496-.154l-.006-.004c.454-.554 1.02-1.377 1.206-2.371.138-.733.099-1.754-.557-2.701-.614-.886-1.465-1.266-2.026-1.429.146-.846.109-2.045-.742-3.123-.89-1.127-2.135-1.42-2.868-1.505l-.285-.033-.285-.032q-.534-.062-1-.14a4 4 0 0 0-.775-1.433 4.1 4.1 0 0 0-1.192-.96c-.086-.888-.39-1.827-1.084-2.656l-.114-.137-.115-.137a7 7 0 0 0-.757-.776c.114-.369.219-.826.229-1.334.013-.613-.111-1.517-.755-2.345-.765-.984-1.761-1.297-2.573-1.366a3.56 3.56 0 0 0-1.732-1.618c.024-.259.028-.526.004-.796-.058-.645-.301-1.537-1.049-2.28a3.64 3.64 0 0 0-2.329-1.035l-.467-.031a3.3 3.3 0 0 1-.754-.128 6.3 6.3 0 0 0-1.76-2.164l-.143-.112-.003-.003-.063-.174-.072-.204-.099-.257a4.5 4.5 0 0 0-1.218-1.7 4.43 4.43 0 0 0-2.206-1.013l-.203-.032-.203-.034a33 33 0 0 0-1.806-.24l-.413-.044a6 6 0 0 0-.518-.03 6 6 0 0 0-.078-.473c-.18-.833-.668-1.99-1.89-2.7l-.158-.092-.157-.093c-1.18-.687-2.388-.576-3.185-.359q-.248.07-.485.16a5 5 0 0 0-.569-.757l-.129-.143-.128-.141a7.1 7.1 0 0 0-2.072-1.577l-.324-.162a6.3 6.3 0 0 0-1.98-.602 7.5 7.5 0 0 0-1.418-1.964l-.141-.139-.141-.138-.204-.187c-1.038-.885-2.332-1.046-3.427-.772a5 5 0 0 0-1.467.652 4.6 4.6 0 0 0-1.443-.733l-.102-.17-.182-.28c-.465-.662-1.216-1.359-2.337-1.632-1.085-.263-2.041-.012-2.725.305l-.277.139-.144.079a12 12 0 0 0-1.576-.41l-.355-.067q-.635-.119-1.262-.267l-.174-.042-.175-.041-.304-.062c-1.003-.167-1.916.03-2.682.366a4 4 0 0 0-1.158-.565c-1.059-.319-2.06-.15-2.852.195a2 2 0 0 1-.328-.226l-.329-.268-.206-.16c-.791-.583-1.749-.943-2.795-.941-.553-.735-1.835-1.966-3.809-1.511a3.9 3.9 0 0 0-1.839 1.031 5 5 0 0 0-.157.162 4 4 0 0 0-.434-.52 3.3 3.3 0 0 0-1.432-.844m78.784 65.846.78.74-.061.406-.781-.74zm.329.776.39.37.061-.405-.391-.37zm-.391-.37.391.37.06-.405-.389-.37zm-2.934-11.158-.308.002.046-.199h.308zm-.262-.197-.046.199.308-.002.046-.198zm-5.491-11.811-.03.259-.281-.069.029-.258zm-.311.19.281.069.03-.26-.282-.067zm-1.915-2.829-.047.216-.252.002.047-.215zm-.252.003-.047.215.252-.002.047-.216zm-6.381-8.332-.375-.13-.079-.413.375.13zm-.375-.13.375.13-.079-.413-.375-.13zM302.25 30.4l.395 1.24-.47-.195-.396-1.242zm-.075 1.045.47.196-.197-.62-.471-.197zm-.198-.62.471.196-.198-.621-.471-.197zm-.735-.845-.036.523-.229-.095.036-.524zm-.265.428.229.095.036-.523-.229-.096zM276.361 14.57l.163.193-.364.163-.163-.193zm-.364.163.163.193.364-.163-.163-.193zm-9.134-6.45.116-.323.116.212-.117.324zm0 0 .115.213.117-.324-.116-.212zm-20.851-.84-.16.007.147-.067zm-.16.007.16-.007-.013-.06z"/><path fill="#ebfd00" d="m252.97 29.78.243.032c1.206.197 2.213.894 3.026 1.875a1 1 0 0 0 .215.204.2.2 0 0 0 .071.03c.01.002.144.021.46-.163.405-.238.933-.436 1.532-.378.634.06 1.133.385 1.483.79.613.707.883 1.78 1.031 2.843q.026.186.054.333c.327-.3.697-.578 1.11-.75.516-.214 1.224-.302 1.892.107.589.36.867.946 1.01 1.386.105.325.171.687.214 1.069q.156-.17.337-.384c.461-.551.917-1.025 1.359-1.352a3 3 0 0 1 .806-.437 1.9 1.9 0 0 1 1.235-.01c.99.343 1.223 1.317 1.29 1.743.085.54.062 1.188-.014 1.875-.112 1.028-.107 1.707-.051 2.114 1.118-.013 2.141.382 2.923 1.262.706.796 1.092 1.84 1.274 3 .229-.13.506-.308.832-.546 1.914-1.398 3.679-2.342 5.215-2.526 1.296-.155 2.519-.1 3.646.205 1.342.364 2.328 1.235 2.876 2.511.582 1.354.406 3.068-.113 4.875q-.61 2.12-1.145 3.994.415-.156.973-.419c1.273-.605 2.461-1.042 3.405-1.053.496-.005 1.186.105 1.707.662.528.564.585 1.267.535 1.768a35 35 0 0 1-.514 3.377c.213-.007.492-.035.845-.102 1.045-.196 1.998-.285 2.834-.23.826.054 1.646.255 2.314.741.473.344.796.841.9 1.437.095.548-.013 1.072-.172 1.512-.311.86-.969 1.798-1.813 2.779q-.206.241-.357.44c.363.014.721.06 1.051.157.471.14 1.069.447 1.396 1.108.326.659.208 1.32.037 1.777-.172.462-.464.907-.79 1.319q-.094.12-.164.218c.426.073.879.2 1.273.45.496.313.916.838.977 1.562.053.63-.191 1.175-.428 1.56-.2.328-.464.648-.763.962l.104.006c1.131.049 2.248.21 3.021.712.439.285.859.743.993 1.405.127.628-.056 1.194-.278 1.612a1.3 1.3 0 0 0-.132.338c-.014.065-.008.092-.008.092l.004.008.019.033c.025.035.081.1.198.186.401.293.81.75.933 1.407.123.654-.089 1.227-.35 1.644-.478.768-1.385 1.444-2.408 2.057a10 10 0 0 0-.465.297c.621.27 1.184.603 1.614 1.035.561.563.902 1.31.817 2.164q.022.022.054.05c.257.216.78.508 1.694.832.539.19 1.084.437 1.498.788.438.37.941 1.067.715 1.99-.18.735-.749 1.195-1.134 1.452-.382.256-.854.484-1.382.698l.065.674.01.1a1.415 1.415 0 0 1-2.166 1.324l-1.021-.204-.043-.012a2.5 2.5 0 0 1-.656-.27 1.7 1.7 0 0 1-.733-.886 1.63 1.63 0 0 1 .112-1.304 2.1 2.1 0 0 1 .508-.611c.306-.261.706-.487 1.113-.687q.625-.305 1.501-.643c-.747-.306-1.398-.656-1.896-1.073-.636-.532-1.203-1.348-1.066-2.393-.13-.128-.451-.343-1.108-.581-.464-.168-.991-.427-1.377-.866a2.01 2.01 0 0 1-.435-1.921c.169-.584.563-1.037.92-1.366.38-.348.861-.685 1.407-1.012a9 9 0 0 0 1.067-.729q.042-.035.079-.07c-.415-.413-.734-.927-.86-1.554-.125-.621-.035-1.223.171-1.775a8 8 0 0 0-1.115-.115c-.616-.027-1.198-.1-1.695-.255-.466-.146-1.094-.438-1.46-1.078-.41-.718-.266-1.455-.03-1.965.226-.488.598-.93.997-1.322l.072-.075c-.78-.199-1.688-.66-1.948-1.748-.144-.599-.013-1.162.17-1.602.154-.37.377-.73.635-1.08-.456-.008-.943-.07-1.38-.27-.623-.286-1.13-.851-1.211-1.655-.065-.654.18-1.253.42-1.694.259-.474.629-.972 1.071-1.485.678-.789 1.052-1.359 1.226-1.732a3 3 0 0 0-.497-.072c-.517-.033-1.217.017-2.128.188-1.008.19-2.115.27-2.984-.152a2.23 2.23 0 0 1-1.139-1.236c-.2-.537-.172-1.08-.076-1.535q.274-1.298.437-2.581l-.036.012c-.392.127-.886.329-1.487.615-.672.32-1.287.57-1.832.731-.517.154-1.101.269-1.658.196-.64-.084-1.337-.446-1.649-1.244-.25-.64-.135-1.3-.003-1.765q.636-2.23 1.382-4.827c.475-1.654.414-2.558.234-2.979-.214-.498-.526-.764-1.02-.898-.708-.192-1.557-.248-2.57-.127-.774.092-2.042.658-3.882 2.002-.508.37-.993.68-1.448.906-.439.218-.942.405-1.463.435-.569.032-1.212-.13-1.699-.657-.438-.473-.58-1.06-.623-1.527-.103-1.105-.382-1.707-.657-2.017-.199-.225-.458-.365-1.007-.297a2.13 2.13 0 0 1-1.698-.511c-.448-.397-.671-.921-.79-1.37-.19-.718-.213-1.629-.137-2.656-.338.375-.67.699-.995.955-.4.315-.987.689-1.69.706a1.93 1.93 0 0 1-1.138-.333 2.15 2.15 0 0 1-.695-.8c-.266-.512-.362-1.125-.396-1.695a3.5 3.5 0 0 1-.946.576c-.548.213-1.228.26-1.87-.105-.576-.327-.899-.863-1.088-1.315-.196-.47-.32-1.018-.4-1.6a6.4 6.4 0 0 0-.209-1c-.587.272-1.238.42-1.923.316-.855-.13-1.53-.614-2.038-1.228-.481-.582-.907-.81-1.271-.879-.05.036-.137.106-.26.243-.339.38-.765 1.051-1.26 2.103-.282.598-.602 1.153-.981 1.565-.355.386-1.034.928-1.962.762-.854-.153-1.336-.819-1.581-1.25-.276-.486-.491-1.1-.67-1.775a5 5 0 0 0-.18-.563 7 7 0 0 0-.753.977l-.469.707-.843-.08-.099-.01a1.415 1.415 0 0 1-.678-2.565c.364-.51.735-.954 1.122-1.297.459-.408 1.108-.826 1.904-.825.885.002 1.522.51 1.918 1.055.377.519.629 1.183.813 1.88l.001.006c.51-1.057 1.042-1.939 1.61-2.575.541-.604 1.333-1.223 2.344-1.202z"/><path fill="#ebfd00" d="M236.714 31.516a16.4 16.4 0 0 1 3.064-.09c1.134.072 2.208.468 3.215 1.118l.629-.06.099-.01a1.413 1.413 0 0 1 1.524 1.648l.022.108v.144c0 .192-.031.486-.199.788a1.53 1.53 0 0 1-.811.694c-.548.202-1.045.038-1.21-.02-.435-.15-.921-.457-1.385-.784-.748-.526-1.432-.765-2.064-.805a13.6 13.6 0 0 0-2.537.075q-1.283.16-2.533.517c-.645.184-1.286.556-1.923 1.175-.887.864-1.856 1.523-2.91 1.932a7.9 7.9 0 0 1-3.303.507 12 12 0 0 0-2.536.123c-.558.087-1.059.358-1.526.903-.797.931-1.74 1.632-2.83 2.051a14.4 14.4 0 0 0-2.213 1.076q-1.357.808-2.938 1.189-1.379.333-2.798.684a4.6 4.6 0 0 0-1.91.96c-.434.368-.799.94-1.021 1.836-.2.808-.617 1.548-1.336 2.055-.706.497-1.541.656-2.368.628-.892-.03-1.145.235-1.278.48A6.86 6.86 0 0 1 201.246 53c-.403.254-.691.652-.797 1.386-.217 1.505-1.019 2.69-2.396 3.349-.526.252-.796.6-.91 1.14-.269 1.273-.9 2.352-1.893 3.174a46 46 0 0 1-2.409 1.856c-.433.311-.637.691-.632 1.303.009 1.182-.147 2.299-.491 3.336a8.8 8.8 0 0 1-1.599 2.868q-.85 1.026-1.528 2.146c-.31.512-.437 1.09-.344 1.8q.21 1.598.183 3.108c-.022 1.23-.413 2.371-1.132 3.396-.439.626-.674 1.257-.738 1.91-.065.667.034 1.376.336 2.146.582 1.481.272 2.924-.728 4.138-.313.38-.566 1.175-.254 2.795l.038.2-.019.2-.009.1a1.414 1.414 0 0 1-2.82-.154c-.33-1.87-.19-3.639.882-4.94.42-.509.446-.88.279-1.305-.446-1.137-.632-2.295-.518-3.456.115-1.175.539-2.266 1.236-3.259.417-.593.609-1.191.62-1.821a18 18 0 0 0-.16-2.692c-.169-1.296.062-2.529.73-3.63a21 21 0 0 1 1.767-2.485 6 6 0 0 0 1.094-1.953c.233-.704.355-1.508.348-2.425-.013-1.488.597-2.75 1.807-3.621a43 43 0 0 0 2.259-1.74c.476-.394.785-.9.929-1.58.299-1.414 1.152-2.481 2.456-3.106.453-.217.723-.55.817-1.202.205-1.423.879-2.612 2.088-3.374a4.03 4.03 0 0 0 1.417-1.522c.796-1.464 2.255-2.01 3.856-1.956.418.015.588-.073.644-.113.042-.03.144-.116.221-.424.331-1.334.953-2.478 1.937-3.312a7.4 7.4 0 0 1 3.061-1.547q1.424-.352 2.809-.687a7.7 7.7 0 0 0 2.156-.87 17 17 0 0 1 2.646-1.287c.598-.23 1.165-.63 1.697-1.25.862-1.007 1.95-1.657 3.238-1.86q1.537-.24 3.127-.151a5.05 5.05 0 0 0 2.127-.32c.636-.247 1.291-.672 1.959-1.322.919-.895 1.959-1.537 3.12-1.868q1.459-.418 2.961-.604m1.825 22.655c-.69.072-1.295.404-1.812.922-.13.13-.23.169-.303.18-.076.01-.197.003-.386-.09a1.4 1.4 0 0 0-.777-.153 1.26 1.26 0 0 0-.74.352c-.357.34-.551.87-.674 1.42a2 2 0 0 1-.122.387c-.028-.02-.065-.043-.103-.077a2.1 2.1 0 0 0-.696-.42 1.14 1.14 0 0 0-.911.064c-.288.155-.461.412-.566.646a3 3 0 0 0-.217.808l-.005.031a4 4 0 0 1-.381-.376c-.245-.273-.492-.507-.737-.665-.22-.142-.599-.324-1.019-.182-.442.149-.618.546-.689.807-.077.28-.096.616-.085.97.019.633-.038 1.006-.109 1.191l-.003.007c-.664-.017-1.265.19-1.746.651-.463.446-.754 1.056-.921 1.762q-.04-.012-.089-.031a3.4 3.4 0 0 1-.537-.31c-1.003-.682-1.934-1.123-2.757-1.178a5.6 5.6 0 0 0-1.974.193 2.62 2.62 0 0 0-1.591 1.282c-.378.685-.408 1.574-.246 2.547q.213 1.281.385 2.405l-.021-.004a4.5 4.5 0 0 1-.717-.274c-.652-.301-1.267-.51-1.773-.491-.271.01-.588.09-.837.337-.25.248-.331.565-.34.84a20 20 0 0 0 .039 2.022v.02a1 1 0 0 1-.123.016 2.4 2.4 0 0 1-.504-.039c-1.039-.173-2.007-.147-2.677.342a1.26 1.26 0 0 0-.474.674 1.6 1.6 0 0 0-.014.777c.098.475.373.998.745 1.545.131.192.217.347.271.466h-.025a2.5 2.5 0 0 0-.798.11 1.22 1.22 0 0 0-.688.538c-.166.292-.17.605-.116.866.053.255.17.506.311.744.087.147.132.256.154.33q-.05.017-.142.034c-.459.076-1.1.31-1.237.998-.059.299.007.582.103.812.097.234.244.466.419.692q.043.055.075.102a3 3 0 0 1-.335.035c-.589.024-1.159.119-1.564.395a1.23 1.23 0 0 0-.501.672c-.084.29-.045.572.038.812.067.196.058.312.039.378-.018.063-.064.152-.204.258-.209.158-.396.38-.476.679a1.28 1.28 0 0 0 .067.825c.185.447.593.863 1.074 1.248.179.144.305.264.388.36-.823.314-1.603.876-1.555 1.842l-.002.002a.4.4 0 0 1-.099.11c-.146.124-.422.279-.884.437-.283.097-.564.227-.781.415-.234.203-.439.524-.392.939.041.361.261.632.453.813.205.192.47.37.771.536q.13.073.225.136a3 3 0 0 1-.267.1 4.3 4.3 0 0 0-.865.374c-.227.136-.486.342-.62.651a1.06 1.06 0 0 0 .092 1.007c.158.249.398.442.638.594.253.161.436.295.565.4l-.041.046-.017.234-.008.1a.699.699 0 0 0 1.361.263l.062-.069.037-.042.03-.048a.9.9 0 0 0 .079-.796 1.4 1.4 0 0 0-.313-.488c-.225-.241-.559-.491-.96-.749q.153-.07.392-.148c.333-.109.639-.24.88-.41.235-.167.505-.442.55-.852.046-.414-.162-.742-.361-.953-.202-.215-.477-.403-.78-.571a4 4 0 0 1-.269-.164c.531-.182.993-.404 1.33-.692.352-.3.616-.72.588-1.243l.008-.05a.3.3 0 0 1 .059-.083c.088-.09.271-.215.61-.342.249-.093.51-.232.705-.456.217-.25.318-.567.269-.903-.043-.301-.195-.56-.359-.766a4 4 0 0 0-.644-.625 4 4 0 0 1-.48-.44 1.4 1.4 0 0 1-.134-.175c.291-.241.515-.546.621-.92a1.97 1.97 0 0 0-.035-1.134q.053-.02.141-.042a3.4 3.4 0 0 1 .598-.07c.318-.013.619-.054.879-.142.256-.086.547-.242.731-.539.197-.317.193-.661.11-.947-.078-.27-.234-.526-.413-.758a2.4 2.4 0 0 1-.178-.266l.015-.003c.483-.08 1.059-.309 1.264-.917.182-.543-.044-1.102-.302-1.538-.031-.052-.052-.1-.072-.14q.064-.007.15-.008c.284.003.59-.032.859-.164.302-.147.537-.41.616-.77.069-.319-.003-.63-.101-.886a4.2 4.2 0 0 0-.453-.83c-.339-.499-.491-.839-.533-1.043q-.008-.042-.008-.066c.213-.122.678-.214 1.575-.065.537.09 1.098.104 1.546-.125.245-.125.448-.32.573-.58.121-.251.149-.519.132-.767q-.058-.853-.039-1.69.088.015.221.054.298.085.748.294c.342.158.66.28.946.356.276.073.579.118.867.067a1.09 1.09 0 0 0 .806-.576c.154-.3.151-.627.111-.891q-.181-1.203-.411-2.581c-.143-.86-.061-1.367.091-1.642.177-.321.422-.517.763-.618.428-.127.92-.177 1.484-.139.442.03 1.118.295 2.064.94.499.34 1.035.617 1.541.619.288 0 .583-.089.822-.312.225-.21.337-.482.391-.731.127-.576.328-.932.548-1.144.197-.188.441-.285.801-.263.288.019.576-.057.819-.246a1.5 1.5 0 0 0 .463-.653c.176-.454.223-1.057.203-1.736v-.057l.094.1c.247.276.492.509.734.678.229.16.532.317.879.313.407-.005.714-.226.903-.512.167-.254.249-.565.293-.864q.025-.166.053-.273l.04.03c.379.327.984.682 1.62.362a1.43 1.43 0 0 0 .6-.616 3.2 3.2 0 0 0 .283-.81c.052-.23.108-.402.163-.525a1 1 0 0 1 .071-.134c.372.179.773.27 1.186.207.425-.063.788-.276 1.085-.574.339-.339.659-.487.966-.519-.037.004.03-.028.227.16.194.185.434.513.712 1.026.161.3.346.574.562.774s.554.403.975.336c.4-.064.662-.34.822-.572.167-.243.3-.55.412-.89.075-.226.146-.357.196-.426a1 1 0 0 1 .088.06c.134.101.309.28.525.562l.229.301.378-.028.1-.008a.7.7 0 0 0 .644-.748.7.7 0 0 0-.417-.584c-.2-.24-.403-.448-.612-.607-.266-.203-.6-.375-.983-.373-.414.002-.745.203-.981.474-.222.254-.378.586-.494.939a4 4 0 0 1-.112.3 3 3 0 0 1-.103-.174c-.308-.57-.63-1.043-.977-1.374-.345-.328-.798-.593-1.334-.537"/><path fill="#ebfd00" d="M246.502 55.271a1.7 1.7 0 0 0-1.125.122 27 27 0 0 1-.508.228l.028-.085-.889-.066-.1-.007a.7.7 0 0 0-.749.644.7.7 0 0 0 .017.197l-.019.057v.111a.9.9 0 0 0 .186.556.86.86 0 0 0 .542.314c.294.048.589-.048.791-.126q.59-.232 1.288-.554c.103-.048.163-.044.205-.033.053.013.152.056.293.202.5.517 1.109.847 1.813.811q.723-.037 1.466-.195a2.65 2.65 0 0 1 1.066-.017q.654.128 1.312.252.663.124 1.334.234c.268.044.527.179.783.455.411.443.882.773 1.417.962.578.203 1.201.186 1.834.012.437-.12.79-.12 1.08-.038q.596.165 1.146.434.561.273 1.079.628c.264.18.502.45.702.833.281.539.635.992 1.071 1.338.431.342.929.574 1.481.701a6 6 0 0 1 1.171.395c.244.111.441.3.588.616.253.546.609 1 1.077 1.334q.49.349.916.773a4.9 4.9 0 0 0 1.263.904q.62.311 1.258.625c.333.164.596.38.8.646.164.214.279.521.293.973.013.408.138.809.44 1.125.295.309.687.46 1.088.52.432.063.52.211.557.327.181.564.493 1.049.932 1.44.166.148.27.356.261.716-.021.748.277 1.387.904 1.806.232.156.335.337.35.599.039.639.273 1.207.708 1.669q.497.526 1.062 1.038c.186.168.261.355.224.644a4.8 4.8 0 0 0 .057 1.649q.177.79.651 1.47.37.531.658 1.098c.129.254.169.534.098.871a9.5 9.5 0 0 0-.195 1.51 2.85 2.85 0 0 0 .471 1.692c.201.313.301.622.32.936.019.322-.04.663-.2 1.032a1.9 1.9 0 0 0-.142 1.066c.061.363.229.689.46.973.151.185.267.552.111 1.287l-.022.097.016.2a.698.698 0 1 0 1.392-.104l-.001-.012c.169-.879.104-1.717-.412-2.35a.7.7 0 0 1-.166-.32.5.5 0 0 1 .046-.282 3.6 3.6 0 0 0 .314-1.67 3.3 3.3 0 0 0-.541-1.61 1.44 1.44 0 0 1-.25-.873q.026-.615.167-1.285a2.67 2.67 0 0 0-.22-1.79 11 11 0 0 0-.758-1.264 2.7 2.7 0 0 1-.433-.974 3.4 3.4 0 0 1-.035-1.169c.093-.722-.131-1.37-.673-1.86q-.526-.475-.982-.958a1.2 1.2 0 0 1-.33-.795 2.1 2.1 0 0 0-.969-1.677c-.193-.129-.291-.295-.283-.607.019-.702-.207-1.331-.729-1.796a1.8 1.8 0 0 1-.531-.823c-.25-.78-.909-1.17-1.682-1.285-.202-.03-.268-.085-.284-.101-.009-.01-.047-.052-.052-.204-.022-.67-.199-1.28-.58-1.779a3.6 3.6 0 0 0-1.292-1.05q-.635-.311-1.248-.62a3.5 3.5 0 0 1-.906-.646 9 9 0 0 0-1.089-.92c-.246-.176-.456-.429-.622-.785-.272-.586-.697-1.035-1.276-1.299a7.5 7.5 0 0 0-1.437-.484 2.3 2.3 0 0 1-.926-.436c-.255-.201-.492-.49-.7-.889-.288-.553-.669-1.009-1.152-1.34a10 10 0 0 0-1.257-.73 8 8 0 0 0-1.381-.524c-.583-.163-1.2-.136-1.828.037-.431.119-.753.103-.998.017-.288-.102-.574-.29-.856-.594-.437-.471-.966-.783-1.582-.884q-.654-.107-1.301-.228-.653-.123-1.304-.25a4 4 0 0 0-1.623.022q-.64.135-1.247.166c-.181.01-.422-.06-.737-.387-.267-.276-.586-.496-.965-.589"/><path fill="#fff" d="m160.091 172.689-15.762-10.946v-30.759l-4.05-4.706-4.378 2.627-1.533-2.08 14.668-9.961 8.428 9.961v28.022l12.698 7.99v-1.423l-.11-30.43-5.801-7.005 10.508-7.115 9.961 11.712v28.898q0 4.488.766 6.567.766 2.08 1.533 3.284.875 1.204.875 3.175 0 2.408-1.313 3.721a10.6 10.6 0 0 1-3.065 2.299 40 40 0 0 0-3.175 1.97l-20.25 14.23q-1.751-2.517-4.597-4.269-2.737-1.642-6.568-1.642-4.597 0-8.319 2.737l-1.532-1.095q1.861-4.816 6.458-8.428t10.946-3.613q8.1 0 13.573 5.692 1.751-.109 2.846-1.532 1.095-1.314 1.095-3.174 0-2.299-.766-3.722-.657-1.314-1.533-2.956-.875-1.75-1.313-5.144zm-37.448 0-11.493-9.961-4.269 2.627-1.532-2.08 7.333-4.707v-47.724q0-3.831-.875-5.254-.766-1.533-4.379-2.628v-1.641l17.842-12.588h2.08v70.82l4.269 4.269 3.065-2.627 1.642 2.08zm-65.705-7.444-1.97-2.298 5.582-4.598v-28.131l24.629-14.12 15.762 12.04v29.883L76.86 172.689l-15.434-11.056zm30.43-.875v-31.525l-12.588-8.428v31.524zm-70.073 8.319L6.02 163.166l-4.16 2.627L0 163.275l7.334-4.707v-49.914q0-1.313-.657-2.846-.657-1.641-4.597-2.846v-1.641l17.842-12.588h2.08v40.609l13.682-12.806 11.603 9.742 4.269-3.503 1.97 2.298-4.707 3.832v31.305q0 4.27-.985 8.648-.876 4.269-3.393 7.99-2.409 3.722-6.896 5.911-4.488 2.299-11.603 2.299-1.752 0-3.393-.329v-2.627q4.05 0 6.677-3.174 2.736-3.065 4.05-7.991 1.314-5.034 1.313-10.727v-27.912l-6.458-5.364-6.13 5.692v26.927l3.613 3.613 3.393-2.408 1.97 2.517z"/></svg>