<svg width="487" height="104" viewBox="0 0 487 104" fill="none" xmlns="http://www.w3.org/2000/svg">
<path d="M486.026 64.9082C486.026 65.7242 485.81 66.4442 485.378 67.0682C484.994 67.6443 484.85 68.3643 484.946 69.2283C484.274 69.6123 483.722 70.1163 483.29 70.7403C482.858 71.3643 482.45 72.0123 482.066 72.6843C478.898 74.7484 475.49 76.4044 471.842 77.6524C468.242 78.9485 464.522 79.5965 460.681 79.5965C460.441 79.5965 460.225 79.4765 460.033 79.2365C459.841 79.0445 459.649 78.8285 459.457 78.5885C459.265 78.3484 459.049 78.1084 458.809 77.8684C458.617 77.6764 458.377 77.5804 458.089 77.5804C457.753 77.5804 457.489 77.6524 457.297 77.7964C457.297 77.7004 457.297 77.6044 457.297 77.5084C457.345 77.4604 457.369 77.3884 457.369 77.2924C457.369 76.7164 457.297 76.1164 457.153 75.4924C457.009 74.9164 456.937 74.3404 456.937 73.7644C456.937 73.0924 457.057 72.5403 457.297 72.1083H458.161C458.641 72.1083 459.097 72.0843 459.529 72.0363C460.009 71.9403 460.513 71.8923 461.042 71.8923C461.57 71.8923 462.049 72.0363 462.482 72.3243C465.122 72.2283 467.618 71.7483 469.97 70.8843C472.37 69.9723 474.794 69.0843 477.242 68.2203C477.626 67.6923 477.842 67.1162 477.89 66.4922C477.986 65.8202 478.178 65.1962 478.466 64.6202C477.218 63.5642 475.946 62.7482 474.65 62.1721C473.402 61.5481 471.938 61.3321 470.258 61.5241C469.25 60.9001 468.17 60.5401 467.018 60.4441C465.914 60.3481 464.786 60.2041 463.634 60.0121C463.346 59.9641 463.034 59.9161 462.698 59.8681C462.41 59.7721 462.097 59.7241 461.761 59.7241C461.521 59.7241 461.281 59.7961 461.042 59.9401C460.849 60.0361 460.801 60.2041 460.897 60.4441C460.657 60.0601 460.321 59.8441 459.889 59.7961C459.505 59.7001 459.169 59.5081 458.881 59.2201C457.345 59.1241 456.001 58.8601 454.849 58.4281C453.697 57.9481 452.425 57.4201 451.033 56.844C450.649 56.7 450.265 56.604 449.881 56.556C449.545 56.46 449.209 56.316 448.873 56.124C448.009 55.692 447.313 55.116 446.785 54.396C446.257 53.676 445.849 52.884 445.561 52.02C445.225 51.1079 444.985 50.1719 444.841 49.2119C444.697 48.2519 444.553 47.3639 444.409 46.5479C444.841 45.7798 445.249 44.9878 445.633 44.1718C445.969 43.3558 446.257 42.4918 446.497 41.5798C446.785 41.4358 447.073 41.3158 447.361 41.2198C447.649 41.1238 447.961 41.0038 448.297 40.8598C448.249 40.7638 448.225 40.6437 448.225 40.4997C448.225 40.2597 448.297 40.0197 448.441 39.7797C448.633 39.5397 448.681 39.2997 448.585 39.0597C449.641 38.0997 450.649 37.1157 451.609 36.1077C452.617 35.0516 453.481 33.8996 454.201 32.6516C454.921 32.4116 455.497 32.0516 455.929 31.5716C456.361 31.0916 456.793 30.6116 457.225 30.1316C457.657 29.6035 458.137 29.1475 458.665 28.7635C459.193 28.3315 459.865 28.0675 460.681 27.9715C460.873 27.6355 461.138 27.3715 461.474 27.1795C461.81 26.9395 462.146 26.7235 462.482 26.5315C462.818 26.3395 463.13 26.1235 463.418 25.8835C463.706 25.6435 463.922 25.3075 464.066 24.8755C464.834 24.8755 465.53 24.7315 466.154 24.4435C466.826 24.1554 467.474 23.8434 468.098 23.5074C468.722 23.1714 469.346 22.8594 469.97 22.5714C470.642 22.2834 471.362 22.1394 472.13 22.1394C472.322 22.1394 472.514 22.1634 472.706 22.2114C472.898 22.2114 473.114 22.2354 473.354 22.2834C473.69 22.6194 473.906 23.0274 474.002 23.5074C474.146 23.9394 474.242 24.4195 474.29 24.9475C474.338 25.4755 474.362 26.0035 474.362 26.5315C474.41 27.0595 474.506 27.5395 474.65 27.9715C474.218 28.7875 473.738 29.6035 473.21 30.4196C472.73 31.2356 472.082 31.8596 471.266 32.2916H471.122C470.786 32.3396 470.474 32.2676 470.186 32.0756C469.898 31.8836 469.562 31.7876 469.178 31.7876C468.938 31.7876 468.746 31.8596 468.602 32.0036L468.242 32.3636C468.146 32.4596 468.002 32.5556 467.81 32.6516C467.666 32.7476 467.45 32.7476 467.162 32.6516C466.49 32.8916 466.226 33.2996 466.37 33.8756C465.458 33.9716 464.69 34.2596 464.066 34.7396C463.442 35.1716 462.866 35.6757 462.338 36.2517C461.81 36.7797 461.281 37.2837 460.753 37.7637C460.225 38.1957 459.601 38.4357 458.881 38.4837C458.065 39.9237 457.057 41.1958 455.857 42.2998C454.705 43.4038 453.745 44.6518 452.977 46.0438C453.121 46.4279 453.217 46.8359 453.265 47.2679C453.313 47.6999 453.385 48.1559 453.481 48.6359C453.913 49.2119 454.417 49.7159 454.993 50.1479C455.617 50.5799 456.217 51.0119 456.793 51.444H457.009C457.969 51.444 458.857 51.636 459.673 52.02C460.489 52.356 461.353 52.524 462.266 52.524C462.746 52.524 463.154 52.428 463.49 52.236C464.738 52.524 465.962 52.764 467.162 52.956C468.41 53.148 469.658 53.292 470.906 53.388C471.53 53.484 472.154 53.532 472.778 53.532C473.45 53.532 474.074 53.604 474.65 53.748C475.178 53.892 475.706 54.084 476.234 54.324C476.762 54.516 477.29 54.732 477.818 54.972C478.922 55.452 479.954 55.98 480.914 56.556C481.922 57.1321 482.81 57.8281 483.578 58.6441C484.346 59.4121 484.946 60.3241 485.378 61.3801C485.81 62.3882 486.026 63.5642 486.026 64.9082Z" fill="white"/>
<path d="M452.127 55.4762C452.127 56.0042 451.935 56.4122 451.551 56.7002C451.167 56.9402 450.975 57.2762 450.975 57.7082C450.975 57.9002 451.071 58.1402 451.263 58.4282C450.591 58.4282 450.135 58.6442 449.895 59.0762C449.655 59.5082 449.415 59.9882 449.175 60.5163H448.239C447.999 60.5163 447.807 60.5643 447.663 60.6603C447.519 60.7563 447.375 60.9003 447.231 61.0923C447.135 61.2363 446.991 61.4763 446.799 61.8123C445.887 62.0043 444.999 62.3163 444.135 62.7483C443.319 63.1323 442.503 63.5643 441.687 64.0443C440.919 64.4763 440.127 64.9323 439.311 65.4123C438.495 65.8443 437.655 66.2044 436.791 66.4924C436.359 67.2124 435.735 67.7884 434.919 68.2204H434.703C434.463 68.2684 434.247 68.2444 434.055 68.1484C433.911 68.0044 433.719 67.9324 433.479 67.9324C433.335 67.9324 433.239 67.9564 433.191 68.0044C431.751 68.9644 430.143 69.4444 428.367 69.4444C427.887 69.4444 427.431 69.4204 426.999 69.3724C426.567 69.2764 426.111 69.2284 425.631 69.2284C425.487 69.2284 425.391 69.2764 425.343 69.3724L425.199 69.6604C425.151 69.7564 425.079 69.8524 424.983 69.9484C424.935 70.0444 424.767 70.0924 424.479 70.0924C423.951 70.0924 423.423 70.0204 422.895 69.8764C422.367 69.7324 421.815 69.7084 421.239 69.8044C420.135 69.1804 419.271 68.5804 418.647 68.0044C418.023 67.4284 417.447 66.5644 416.919 65.4123C416.679 64.8843 416.343 64.3803 415.911 63.9003C415.527 63.4203 415.239 62.8923 415.047 62.3163C414.999 62.1243 414.927 61.7883 414.831 61.3083C414.735 60.7803 414.639 60.2282 414.543 59.6522C414.447 59.0762 414.351 58.5242 414.255 57.9962C414.207 57.4682 414.183 57.1082 414.183 56.9162C414.183 56.3402 414.207 55.7882 414.255 55.2602C414.351 54.6841 414.447 54.1081 414.543 53.5321C414.831 51.7081 415.023 49.8841 415.119 48.06C415.263 46.188 415.671 44.388 416.343 42.6599C416.247 42.1319 416.199 41.6279 416.199 41.1479V39.5639C416.199 38.6518 416.079 37.8838 415.839 37.2598C416.223 36.6358 416.415 35.9398 416.415 35.1718C416.415 34.3078 416.055 33.8038 415.335 33.6598V33.4437C415.335 32.4357 414.999 31.6437 414.327 31.0677C414.327 29.3877 414.735 28.1397 415.551 27.3236C416.415 26.4596 417.543 25.7156 418.935 25.0916C419.127 24.8036 419.199 24.5636 419.151 24.3716C419.487 24.4676 419.799 24.5636 420.087 24.6596C420.375 24.7556 420.663 24.8036 420.951 24.8036C421.431 24.8036 421.863 24.7316 422.247 24.5876C422.391 25.1636 422.751 25.5236 423.327 25.6676C423.951 25.7636 424.455 25.9076 424.839 26.0996V27.0356C424.839 28.5237 425.199 29.9397 425.919 31.2837C425.727 31.6677 425.607 32.0757 425.559 32.5077C425.511 32.9397 425.487 33.3477 425.487 33.7318C425.487 34.3078 425.511 34.8838 425.559 35.4598C425.607 36.0358 425.631 36.5878 425.631 37.1158C425.631 37.6918 425.559 38.2678 425.415 38.8438C425.319 39.4199 425.055 39.9239 424.623 40.3559C424.575 40.9799 424.527 41.6999 424.479 42.5159C424.479 43.2839 424.431 44.076 424.335 44.892C424.287 45.708 424.167 46.5 423.975 47.268C423.783 48.036 423.495 48.66 423.111 49.14C423.063 49.8601 423.015 50.6041 422.967 51.3721C422.967 52.0921 422.967 52.7881 422.967 53.4601C422.967 54.5161 423.015 55.7642 423.111 57.2042C423.255 58.6442 423.591 59.8442 424.119 60.8043C424.359 61.1883 424.815 61.4763 425.487 61.6683C426.207 61.8603 426.783 61.9563 427.215 61.9563C427.743 61.9563 428.271 61.8843 428.799 61.7403C429.375 61.5483 429.783 61.2363 430.023 60.8043C430.311 60.8523 430.503 60.9963 430.599 61.2363C430.695 61.4763 430.863 61.6683 431.103 61.8123C433.839 60.6603 436.575 59.5562 439.311 58.5002C442.047 57.4442 444.735 56.2202 447.375 54.8281C447.759 55.0201 448.167 55.1162 448.599 55.1162C449.079 55.1162 449.559 55.0681 450.039 54.9721C450.519 54.8761 450.999 54.8281 451.479 54.8281H451.983C452.079 55.1161 452.127 55.3322 452.127 55.4762Z" fill="white"/>
<path d="M408.259 64.1163C408.019 64.5003 407.731 64.8603 407.395 65.1963C407.059 65.4843 406.747 65.7963 406.459 66.1324C406.123 66.2764 405.739 66.3484 405.307 66.3484C404.923 66.3484 404.539 66.3484 404.155 66.3484C403.819 66.3004 403.483 66.3004 403.147 66.3484C402.859 66.3484 402.619 66.4444 402.427 66.6364C402.043 66.5404 401.755 66.3724 401.562 66.1324C401.37 65.8444 401.034 65.6763 400.554 65.6283C400.362 65.5803 400.17 65.5803 399.978 65.6283C399.258 64.8123 398.586 63.9483 397.962 63.0363C397.386 62.1243 396.834 61.2603 396.306 60.4442C396.258 58.6682 396.114 56.8682 395.874 55.0441C395.826 54.6121 395.754 54.1801 395.658 53.7481C395.562 53.3161 395.49 52.9081 395.442 52.5241C395.442 52.0441 395.466 51.5881 395.514 51.1561C395.61 50.6761 395.682 50.2441 395.73 49.8601C395.922 48.468 396.138 47.1 396.378 45.756C396.618 44.4119 396.834 43.0439 397.026 41.6519C397.218 40.4039 397.314 39.1078 397.314 37.7638C397.314 36.3718 397.098 35.0758 396.666 33.8758L396.594 33.5157C396.69 33.1317 396.786 32.8197 396.882 32.5797C397.026 32.2917 397.122 31.9797 397.17 31.6437C397.266 31.1157 397.146 30.7317 396.81 30.4917C396.954 30.1077 397.194 29.8677 397.53 29.7717C397.866 29.6277 398.058 29.3397 398.106 28.9077C398.154 28.7157 398.154 28.5237 398.106 28.3316C398.49 28.1876 398.874 28.0676 399.258 27.9716C399.69 27.8276 400.098 27.8036 400.482 27.8996C401.107 27.9956 401.659 28.2116 402.139 28.5477C402.619 28.8357 403.075 29.1717 403.507 29.5557C404.275 31.8597 404.587 34.3078 404.443 36.8998C404.299 39.4439 404.059 42.0119 403.723 44.604C403.387 47.196 403.171 49.74 403.075 52.2361C402.979 54.6841 403.363 56.9642 404.227 59.0762L404.371 59.1482C404.611 59.1962 404.803 59.1242 404.947 58.9322C405.091 58.6922 405.283 58.5962 405.523 58.6442C405.715 58.7402 405.835 58.7882 405.883 58.7882C406.075 59.7482 406.387 60.6603 406.819 61.5243C407.251 62.3883 407.731 63.2523 408.259 64.1163Z" fill="white"/>
<path d="M394.019 68.7245C393.875 69.3965 393.563 69.9485 393.083 70.3805C392.651 70.7645 392.123 71.0765 391.499 71.3165C390.875 71.5565 390.227 71.7245 389.555 71.8205C388.931 71.8685 388.355 71.8925 387.827 71.8925C387.587 71.8925 387.347 71.8925 387.107 71.8925C386.915 71.8445 386.699 71.8205 386.459 71.8205C386.219 71.8205 386.099 71.9406 386.099 72.1806C386.099 72.4206 385.979 72.5886 385.739 72.6846C385.499 72.5886 385.259 72.5166 385.019 72.4686C384.779 72.4205 384.539 72.3966 384.299 72.3966C383.963 72.3966 383.627 72.4205 383.291 72.4686C383.003 72.5166 382.715 72.5406 382.427 72.5406C382.043 72.5406 381.755 72.4926 381.563 72.3966C381.419 72.3006 381.275 72.2046 381.131 72.1086C381.035 71.9645 380.915 71.8205 380.771 71.6765C380.675 71.5325 380.507 71.4125 380.267 71.3165C379.931 71.1725 379.643 71.1485 379.403 71.2445C379.211 71.3405 378.899 71.1965 378.467 70.8125C377.891 70.3325 377.387 69.7565 376.955 69.0845C376.571 68.3645 376.187 67.6205 375.803 66.8524C375.419 66.0844 375.011 65.3164 374.579 64.5484C374.147 63.7804 373.643 63.1084 373.067 62.5324H372.491C371.627 62.5324 371.027 62.8924 370.691 63.6124C370.451 63.4684 370.211 63.3004 369.971 63.1084C369.731 62.8684 369.467 62.6764 369.179 62.5324C368.075 62.8684 366.923 63.1564 365.723 63.3964C364.523 63.6364 363.323 63.7564 362.123 63.7564H361.115C360.827 63.7564 360.515 63.7084 360.179 63.6124C359.699 63.8044 359.267 64.0444 358.883 64.3324C358.499 64.5724 358.067 64.6924 357.587 64.6924C357.299 64.6924 356.963 64.5964 356.579 64.4044C356.291 64.4044 356.147 64.5244 356.147 64.7644C356.195 65.0044 356.051 65.1244 355.715 65.1244H355.067C354.395 65.1244 353.723 65.1484 353.051 65.1964C352.427 65.2444 351.779 65.2684 351.107 65.2684C350.195 65.2684 349.259 65.1484 348.299 64.9084C348.059 65.0524 347.795 65.1244 347.507 65.1244C347.315 65.2204 347.171 65.3884 347.075 65.6284C346.979 65.8204 346.883 66.0124 346.787 66.2044C346.691 66.3484 346.547 66.4924 346.355 66.6364C346.211 66.7324 345.995 66.7565 345.707 66.7085C345.611 67.2845 345.371 67.7405 344.987 68.0765C344.603 68.4125 344.41 68.9165 344.41 69.5885C343.882 69.8765 343.45 70.2365 343.114 70.6685C342.778 71.1005 342.442 71.5565 342.106 72.0365C341.77 72.5166 341.41 72.9726 341.026 73.4046C340.69 73.8366 340.258 74.1726 339.73 74.4126C339.49 74.7006 339.418 75.1566 339.514 75.7806C338.986 76.2126 338.338 76.5966 337.57 76.9326C336.802 77.2687 336.082 77.4366 335.41 77.4366C334.018 77.4366 333.058 76.6926 332.53 75.2046C332.53 74.7246 332.578 74.2206 332.674 73.6926C332.722 73.1166 332.818 72.5886 332.962 72.1086C333.106 71.5805 333.322 71.1245 333.61 70.7405C333.898 70.3085 334.306 69.9965 334.834 69.8045C334.834 69.3725 334.69 69.0845 334.402 68.9405C334.114 68.7485 333.994 68.4365 334.042 68.0045C335.338 67.3805 336.466 66.5644 337.426 65.5564C338.386 64.5484 339.25 63.4924 340.018 62.3884C340.834 61.2364 341.65 60.0843 342.466 58.9323C343.282 57.7803 344.194 56.7483 345.203 55.8362V54.3242C346.643 52.7882 347.579 51.0602 348.011 49.1401C348.539 49.0441 348.875 48.8041 349.019 48.4201C349.211 48.0361 349.307 47.5801 349.307 47.0521C349.547 47.0521 349.691 46.9561 349.739 46.7641C349.835 46.5241 350.051 46.4521 350.387 46.5481C350.819 45.3961 351.299 44.34 351.827 43.38C352.355 42.42 352.883 41.46 353.411 40.5C353.939 39.4919 354.395 38.4599 354.779 37.4039C355.211 36.3479 355.523 35.1719 355.715 33.8758C356.387 33.8278 356.747 33.5158 356.795 32.9398C356.891 32.3158 356.987 31.7638 357.083 31.2838C357.803 30.6118 358.331 29.8198 358.667 28.9077C359.051 27.9957 359.387 27.0597 359.675 26.0997C359.963 25.0917 360.275 24.1077 360.611 23.1476C360.995 22.1396 361.523 21.2516 362.195 20.4836V20.2676C362.195 20.0276 362.099 19.8836 361.907 19.8356C361.715 19.7396 361.619 19.5716 361.619 19.3316C361.667 19.2836 361.691 19.2356 361.691 19.1876C362.267 18.9476 362.699 18.5636 362.987 18.0355C363.275 17.4595 363.707 17.0515 364.283 16.8115C365.291 17.6275 366.179 18.1315 366.947 18.3236C367.715 18.4676 368.723 18.5876 369.971 18.6836C370.595 19.3556 370.931 20.1716 370.979 21.1316C371.075 22.0436 371.243 22.9556 371.483 23.8677C371.867 25.4037 372.275 26.9157 372.707 28.4037C373.187 29.8438 373.547 31.3318 373.787 32.8678C373.931 33.7798 374.195 34.6439 374.579 35.4599C374.963 36.2759 375.227 37.1159 375.371 37.9799C375.467 38.6519 375.467 39.4199 375.371 40.284C375.275 41.1 375.371 41.82 375.659 42.444L376.163 43.596C376.403 44.124 376.595 44.676 376.739 45.2521C376.931 45.8281 377.099 46.4041 377.243 46.9801C377.627 48.4201 377.963 49.9801 378.251 51.6602C378.587 53.2922 379.091 54.7802 379.763 56.1243C380.003 56.6043 380.363 56.9403 380.843 57.1323C381.371 57.3243 381.947 57.4683 382.571 57.5643C383.195 57.6123 383.795 57.6363 384.371 57.6363C384.995 57.5883 385.523 57.5643 385.955 57.5643H386.675C386.963 57.5643 387.251 57.6123 387.539 57.7083C387.731 58.0923 387.827 58.4283 387.827 58.7163C387.827 59.2923 387.635 59.7483 387.251 60.0843C386.867 60.4203 386.675 60.8043 386.675 61.2363C386.675 61.4764 386.771 61.7404 386.963 62.0284C386.771 61.9804 386.483 61.9564 386.099 61.9564C384.995 61.9564 383.915 62.1484 382.859 62.5324C383.243 63.3484 383.747 64.0444 384.371 64.6204C385.043 65.1484 385.739 65.6524 386.459 66.1324C386.939 65.7484 387.443 65.5564 387.971 65.5564C388.547 65.5564 389.075 65.7004 389.555 65.9884C390.083 66.2284 390.635 66.3484 391.211 66.3484C391.643 66.3484 391.955 66.2765 392.147 66.1324C392.531 66.5645 392.843 67.0205 393.083 67.5005C393.323 67.9325 393.635 68.3405 394.019 68.7245ZM371.483 57.2043C371.387 56.3883 371.219 55.8123 370.979 55.4762C370.787 55.0922 370.619 54.6362 370.475 54.1082C370.283 53.4362 370.139 52.7162 370.043 51.9482C369.995 51.1802 369.899 50.4361 369.755 49.7161C369.419 48.0841 369.035 46.4521 368.603 44.82C368.219 43.188 367.715 41.604 367.091 40.068C367.283 39.7799 367.379 39.5159 367.379 39.2759V39.0599C366.947 38.5799 366.635 38.0039 366.443 37.3319C366.251 36.6119 366.059 35.9159 365.867 35.2439C365.723 34.5239 365.507 33.8758 365.219 33.2998C364.979 32.6758 364.571 32.1718 363.995 31.7878C363.851 32.0758 363.779 32.4118 363.779 32.7958C363.779 33.1318 363.803 33.4438 363.851 33.7318C363.947 34.0198 363.995 34.3319 363.995 34.6679C363.515 34.9079 363.155 35.2919 362.915 35.8199C362.723 36.2999 362.387 36.6839 361.907 36.9719C361.523 38.5079 360.971 39.972 360.251 41.364C359.531 42.708 358.763 44.052 357.947 45.3961C357.179 46.7401 356.435 48.1081 355.715 49.5001C354.995 50.8442 354.419 52.2602 353.987 53.7482C353.363 54.1802 352.931 54.7322 352.691 55.4042C352.499 56.0763 352.403 56.7483 352.403 57.4203C352.835 57.6603 353.315 57.8043 353.843 57.8523C354.419 57.8523 354.971 57.8523 355.499 57.8523C356.027 57.8523 356.531 57.9003 357.011 57.9963C357.491 58.0923 357.923 58.3323 358.307 58.7163C358.931 58.5243 359.603 58.4043 360.323 58.3563C361.091 58.2603 361.715 58.0443 362.195 57.7083C363.155 58.0443 364.187 58.2123 365.291 58.2123C365.867 58.2123 366.419 58.1643 366.947 58.0683C367.523 57.9723 368.075 57.8523 368.603 57.7083C369.035 57.8043 369.371 57.9723 369.611 58.2123C369.851 58.4043 370.211 58.4763 370.691 58.4283C370.931 58.2363 371.075 58.0443 371.123 57.8523C371.171 57.6123 371.291 57.3963 371.483 57.2043Z" fill="white"/>
<path d="M366.797 61.4524C366.701 62.1724 366.437 62.7244 366.005 63.1084C365.621 63.4924 365.165 63.8524 364.637 64.1884C364.397 64.1404 364.157 64.1164 363.917 64.1164C363.725 64.0684 363.509 64.0444 363.269 64.0444C361.781 63.9964 360.365 64.1884 359.021 64.6204C357.725 65.0524 356.381 65.3644 354.989 65.5564C354.509 65.6524 354.053 65.7004 353.621 65.7004C353.237 65.6524 352.829 65.6764 352.397 65.7724C350.861 66.0124 349.229 66.2044 347.501 66.3484C345.773 66.4925 344.045 66.6844 342.317 66.9245C340.589 67.1165 338.885 67.3805 337.205 67.7165C335.573 68.0045 334.037 68.4365 332.597 69.0125C332.453 68.9165 332.309 68.8205 332.165 68.7245C332.021 68.5805 331.853 68.5085 331.661 68.5085C331.181 68.5085 330.725 68.5805 330.293 68.7245C329.861 68.8685 329.429 68.9165 328.997 68.8685C328.517 69.1565 327.989 69.3725 327.413 69.5165C326.885 69.6125 326.333 69.7085 325.757 69.8045C325.229 69.8525 324.701 69.9485 324.173 70.0925C323.645 70.2365 323.141 70.5005 322.66 70.8845C322.276 70.6925 321.796 70.5965 321.22 70.5965C320.692 70.5485 320.332 70.3565 320.14 70.0205C319.036 70.5485 317.86 70.8845 316.612 71.0285C315.412 71.1725 314.188 71.2205 312.94 71.1725C312.124 71.1245 311.188 71.0045 310.132 70.8125C309.076 70.6205 308.02 70.3565 306.964 70.0205C305.908 69.6365 304.924 69.2045 304.012 68.7245C303.1 68.1965 302.404 67.5725 301.924 66.8524C301.588 66.3724 301.348 65.8444 301.204 65.2684C301.06 64.6924 300.724 64.2604 300.196 63.9724C300.34 62.8684 300.508 61.7884 300.7 60.7323C300.892 59.6763 301.084 58.5963 301.276 57.4923C302.236 56.6763 303.148 55.8123 304.012 54.9002C304.876 53.9882 305.692 53.0282 306.46 52.0202C307.372 51.5882 308.212 51.0602 308.98 50.4361C309.796 49.8121 310.588 49.1881 311.356 48.5641C312.172 47.8921 312.964 47.2441 313.732 46.6201C314.548 45.9961 315.412 45.4441 316.324 44.964C316.468 44.628 316.66 44.364 316.9 44.172C317.188 43.932 317.476 43.716 317.764 43.524C318.052 43.284 318.316 43.044 318.556 42.804C318.796 42.516 318.964 42.18 319.06 41.796C320.74 40.788 322.204 39.5159 323.453 37.9799C324.701 36.4439 325.517 34.7159 325.901 32.7958C325.085 32.1238 324.149 31.6918 323.092 31.4998C322.084 31.2598 321.028 31.0918 319.924 30.9958C318.964 30.9478 317.956 30.9478 316.9 30.9958C315.892 31.0438 314.86 31.0198 313.804 30.9238C312.748 31.2598 311.644 31.4758 310.492 31.5718C309.388 31.6678 308.284 31.7638 307.18 31.8598C306.076 31.9078 304.972 32.0518 303.868 32.2918C302.812 32.4838 301.78 32.8678 300.772 33.4438C300.58 33.4438 300.388 33.4198 300.196 33.3718C300.052 33.3238 299.884 33.2998 299.692 33.2998C298.156 33.2518 296.716 33.5638 295.372 34.2358C294.028 34.8599 292.708 35.4839 291.412 36.1079C291.316 36.2999 291.268 36.4439 291.268 36.5399C291.268 36.8279 291.316 37.1159 291.412 37.4039C291.556 37.6439 291.628 37.9079 291.628 38.1959C291.58 38.2439 291.556 38.2919 291.556 38.3399C291.556 38.3879 291.532 38.4359 291.484 38.4839C291.436 38.7239 291.364 38.9399 291.268 39.1319C291.22 39.3239 291.148 39.5399 291.052 39.78C290.524 41.316 290.236 42.828 290.188 44.316C290.14 45.5641 290.14 46.7881 290.188 47.9881C290.236 49.1881 290.236 50.4122 290.188 51.6602C290.092 53.1962 289.852 54.6362 289.468 55.9803C289.708 57.1323 289.924 58.3563 290.116 59.6523C290.308 60.9003 290.548 62.1484 290.836 63.3964C291.124 64.6444 291.46 65.8684 291.844 67.0685C292.276 68.2205 292.828 69.3245 293.5 70.3805C293.452 70.4765 293.476 70.5485 293.572 70.5965C293.668 70.6445 293.764 70.6685 293.86 70.6685H294.436C294.676 70.6685 294.772 70.7645 294.724 70.9565C294.82 71.1005 294.892 71.2445 294.94 71.3885C294.988 71.4845 295.084 71.5805 295.228 71.6765C295.324 71.8205 295.324 72.0125 295.228 72.2525C295.18 73.2126 294.94 74.1006 294.508 74.9166C294.076 75.7326 293.812 76.6206 293.716 77.5807C293.14 77.7247 292.612 77.7967 292.132 77.7967C291.316 77.7487 290.596 77.5087 289.972 77.0766C289.348 76.6926 288.772 76.2126 288.244 75.6366C287.716 75.0606 287.212 74.4846 286.732 73.9086C286.252 73.2846 285.724 72.7566 285.148 72.3246C284.812 70.9805 284.476 69.4925 284.14 67.8605C283.852 66.2284 283.348 64.8364 282.628 63.6844C282.82 63.2524 282.916 62.7244 282.916 62.1004C282.964 61.1404 282.868 60.2043 282.628 59.2923C282.436 58.3323 282.388 57.3723 282.484 56.4123C282.484 55.8842 282.532 55.3562 282.628 54.8282C282.772 54.3002 282.868 53.7722 282.916 53.2442C282.964 52.4282 282.868 51.6362 282.628 50.8682C282.436 50.1001 282.364 49.3081 282.412 48.4921C282.46 48.1081 282.532 47.7481 282.628 47.4121C282.772 47.0281 282.964 46.6921 283.204 46.4041C282.964 45.8281 282.892 45.2761 282.988 44.748C283.036 43.932 283.132 43.164 283.276 42.444C283.42 41.724 283.516 41.004 283.564 40.284C283.564 39.9 283.54 39.5399 283.492 39.2039C283.444 38.8199 283.372 38.4599 283.276 38.1239L282.628 37.9079C282.34 37.9079 282.052 37.9799 281.764 38.1239C281.524 38.2679 281.308 38.4359 281.116 38.6279C280.924 38.8199 280.756 38.9879 280.612 39.1319C280.468 39.2279 280.324 39.2759 280.18 39.2759C280.084 39.2759 279.964 39.2759 279.82 39.2759C279.724 39.2279 279.628 39.2039 279.532 39.2039C279.436 39.2039 279.244 39.2999 278.956 39.4919C278.716 39.684 278.404 39.9 278.02 40.14C277.684 40.332 277.348 40.548 277.012 40.788C276.676 40.98 276.412 41.1 276.22 41.148C275.692 41.052 275.26 40.884 274.924 40.644C274.636 40.356 274.348 40.092 274.06 39.852C273.82 39.5639 273.556 39.3239 273.268 39.1319C272.98 38.8919 272.62 38.7959 272.188 38.8439C272.044 38.5559 271.972 38.2439 271.972 37.9079C271.924 37.5719 271.924 37.2359 271.972 36.8999V35.7479C272.308 35.1239 272.764 34.6199 273.34 34.2358C273.868 33.8038 274.444 33.4438 275.068 33.1558L276.94 32.2918C277.564 32.0038 278.14 31.6438 278.668 31.2118H279.316C280.18 31.2598 280.924 31.0918 281.548 30.7078C282.22 30.3238 282.844 29.8918 283.42 29.4118C283.996 28.8837 284.572 28.3557 285.148 27.8277C285.772 27.2997 286.444 26.8917 287.164 26.6037C287.692 26.8437 288.244 27.0597 288.82 27.2517C289.396 27.3957 289.996 27.4917 290.62 27.5397C291.244 27.5397 291.892 27.4437 292.564 27.2517C293.236 27.0597 293.764 26.6997 294.148 26.1717C294.388 26.2677 294.58 26.3397 294.724 26.3877C294.916 26.3877 295.132 26.3877 295.372 26.3877C296.092 26.4357 296.812 26.3397 297.532 26.0997C298.252 25.8117 298.948 25.4757 299.62 25.0917C300.58 25.1397 301.516 25.0917 302.428 24.9477C303.388 24.7557 304.324 24.5637 305.236 24.3717C306.196 24.1797 307.132 24.0117 308.044 23.8677C309.004 23.6757 309.964 23.6037 310.924 23.6517C312.508 23.6997 314.068 23.5556 315.604 23.2196C317.14 22.8836 318.7 22.7636 320.284 22.8596C321.388 22.9076 322.468 23.0036 323.525 23.1476C324.629 23.2436 325.733 23.2676 326.837 23.2196C327.461 23.5076 328.013 23.7717 328.493 24.0117C329.021 24.2037 329.669 24.2517 330.437 24.1557C331.973 25.4517 333.365 26.9637 334.613 28.6917V29.9158C334.565 31.0198 334.373 32.0998 334.037 33.1558C333.701 34.2118 333.293 35.2679 332.813 36.3239C332.381 37.3319 331.901 38.3399 331.373 39.3479C330.845 40.308 330.341 41.268 329.861 42.228C326.741 45.0601 323.621 47.8681 320.5 50.6522C317.38 53.4362 314.164 56.1243 310.852 58.7163C310.756 59.1963 310.612 59.6283 310.42 60.0123C310.276 60.3963 310.18 60.8043 310.132 61.2363C310.132 61.4764 310.156 61.6684 310.204 61.8124C310.54 61.9084 310.828 62.1004 311.068 62.3884C311.356 62.6284 311.452 62.9644 311.356 63.3964H312.004C312.244 63.3964 312.364 63.4924 312.364 63.6844L313.516 63.7564C315.34 63.8524 317.164 63.8044 318.988 63.6124C320.812 63.4204 322.636 63.2044 324.461 62.9644C326.333 62.7244 328.181 62.5084 330.005 62.3164C331.829 62.0764 333.653 61.9324 335.477 61.8844C335.909 61.7404 336.365 61.6204 336.845 61.5244C337.325 61.4284 337.757 61.2364 338.141 60.9483H338.357C338.693 60.9483 338.933 61.0443 339.077 61.2363C339.269 61.4284 339.533 61.5484 339.869 61.5964C340.109 61.5964 340.349 61.5484 340.589 61.4524C340.877 61.3563 341.165 61.2843 341.453 61.2363C342.125 61.0443 342.821 60.9243 343.541 60.8763C344.309 60.8283 345.053 60.7563 345.773 60.6603C348.557 60.4203 351.317 60.2763 354.053 60.2283C356.789 60.1323 359.525 59.7723 362.261 59.1483C362.501 59.4843 362.837 59.7243 363.269 59.8683C363.701 59.9643 364.157 60.0843 364.637 60.2283C365.117 60.3243 365.549 60.4443 365.933 60.5883C366.365 60.7323 366.653 61.0203 366.797 61.4524Z" fill="white"/>
<path d="M302.324 43.515C302.228 44.0911 302.06 44.7391 301.82 45.4591C301.628 46.1791 301.34 46.8511 300.956 47.4751C300.62 48.0511 300.188 48.5551 299.66 48.9872C299.132 49.3712 298.508 49.5632 297.788 49.5632C297.26 49.5632 296.732 49.5152 296.204 49.4192C295.676 49.2752 295.124 49.2032 294.548 49.2032C294.308 49.2032 294.044 49.2992 293.756 49.4912C293.516 49.6352 293.276 49.7072 293.036 49.7072C292.796 49.7072 292.58 49.6832 292.388 49.6352C292.244 49.5392 292.052 49.4912 291.812 49.4912C291.668 49.4912 291.404 49.5392 291.02 49.6352C290.636 49.7312 290.228 49.8272 289.796 49.9232C289.364 50.0192 288.956 50.1392 288.572 50.2832C288.188 50.3792 287.924 50.4512 287.78 50.4992C286.484 50.9312 285.188 51.3152 283.892 51.6512C282.596 51.9872 281.252 52.2032 279.86 52.2992C279.572 52.2032 279.14 52.1072 278.564 52.0112C277.988 51.8672 277.556 51.7952 277.268 51.7952C276.692 51.7952 276.308 52.0352 276.116 52.5152C275.972 52.9952 275.66 53.3552 275.18 53.5952C274.604 53.9312 281.479 52.0352 280.615 52.0832C279.751 52.1312 278.887 52.2032 278.023 52.2992C277.159 52.3952 276.343 52.5872 275.575 52.8752C274.855 53.1152 274.327 53.5952 273.991 54.3153C273.751 54.2673 273.487 54.2432 273.199 54.2432C272.959 54.1952 272.695 54.1712 272.407 54.1712C270.871 54.1712 269.431 54.4833 268.087 55.1073C266.743 55.6833 265.375 56.2113 263.983 56.6913C264.223 57.1233 264.391 57.6513 264.487 58.2753C264.583 58.8993 264.679 59.5233 264.775 60.1474C264.871 60.7234 264.991 61.2994 265.135 61.8754C265.327 62.4034 265.639 62.8114 266.071 63.0994C266.071 63.3874 265.999 63.6274 265.855 63.8194C265.759 64.0114 265.639 64.1794 265.495 64.3234L264.991 64.8274C264.847 64.9715 264.751 65.1875 264.703 65.4755C264.559 66.0515 264.487 66.6515 264.487 67.2755C264.487 67.8515 264.151 68.2835 263.479 68.5715C263.527 68.7155 263.551 68.9795 263.551 69.3635C263.551 69.8435 263.479 70.2996 263.335 70.7316C263.191 71.1636 263.143 71.6436 263.191 72.1716C262.375 73.0836 261.679 74.0196 261.103 74.9796C260.575 75.9397 260.167 76.9717 259.879 78.0757C258.103 79.8517 256.278 81.6278 254.406 83.4038C252.582 85.2278 250.686 86.9799 248.718 88.6599C246.798 90.3399 244.806 91.924 242.742 93.412C240.678 94.948 238.542 96.292 236.334 97.4441H235.83C234.726 97.4441 233.862 97.6361 233.238 98.0201C232.614 98.4041 231.822 98.7401 230.862 99.0281C230.142 98.8361 229.278 98.7401 228.27 98.7401C227.694 98.7401 227.094 98.7641 226.47 98.8121C225.894 98.8601 225.294 98.8841 224.67 98.8841C223.854 98.8841 223.11 98.7881 222.438 98.5961C221.814 98.4041 221.19 98.1881 220.566 97.9481C219.99 97.7081 219.39 97.4681 218.766 97.2281C218.142 96.988 217.47 96.82 216.75 96.724C213.774 93.748 211.422 90.2679 209.694 86.2838C207.966 82.3478 207.102 78.2917 207.102 74.1156C207.102 72.1956 207.366 70.3236 207.894 68.4995C208.422 66.6275 208.686 64.7554 208.686 62.8834C209.55 61.1554 210.294 59.3793 210.918 57.5553C211.59 55.7313 212.262 53.9072 212.934 52.0832C213.606 50.2592 214.326 48.4831 215.094 46.7551C215.91 44.9791 216.87 43.299 217.974 41.715C218.214 40.467 218.598 39.387 219.126 38.475C219.654 37.5629 220.23 36.5549 220.854 35.4509C220.854 34.3949 221.07 33.4349 221.502 32.5708C221.982 31.6588 222.27 30.6508 222.366 29.5468C223.134 28.8268 223.758 28.0108 224.238 27.0987C224.718 26.1867 225.174 25.2507 225.606 24.2907C226.038 23.3307 226.518 22.4187 227.046 21.5546C227.622 20.6426 228.39 19.8746 229.35 19.2506C229.446 18.9146 229.494 18.5546 229.494 18.1706C229.542 17.7386 229.662 17.4026 229.854 17.1626L231.366 15.5065C231.846 14.8825 232.278 14.2585 232.662 13.6345C233.094 12.9625 233.55 12.3625 234.03 11.8345C234.318 11.5465 234.63 11.3065 234.966 11.1144C235.302 10.9224 235.59 10.7064 235.83 10.4664C236.07 10.2264 236.142 9.91443 236.046 9.53042C235.998 9.14641 236.094 8.83441 236.334 8.5944C236.43 8.4984 236.574 8.4024 236.766 8.3064C236.958 8.21039 237.126 8.11439 237.27 8.01839C237.894 7.58638 238.422 7.15437 238.854 6.72237C239.286 6.29036 239.886 5.97835 240.654 5.78635C241.326 5.25834 241.926 4.73033 242.454 4.20232C243.03 3.67431 243.606 3.1943 244.182 2.76229C244.758 2.33028 245.382 1.99428 246.054 1.75427C246.726 1.46627 247.566 1.32227 248.574 1.32227C248.766 1.32227 248.958 1.34627 249.15 1.39427C249.342 1.39427 249.534 1.39427 249.726 1.39427C251.694 3.2183 252.918 5.45034 253.398 8.09039C252.87 8.76241 252.438 9.48242 252.102 10.2504C251.814 11.0184 251.478 11.7865 251.094 12.5545C250.278 12.8425 249.51 13.2745 248.79 13.8505C248.07 14.3785 247.35 14.9305 246.63 15.5065C245.958 16.0825 245.238 16.5865 244.47 17.0186C243.75 17.4506 242.934 17.6666 242.022 17.6666C241.638 18.0026 241.014 18.5546 240.15 19.3226C239.334 20.0426 238.47 20.8106 237.558 21.6266C236.694 22.4427 235.878 23.2107 235.11 23.9307C234.39 24.6507 233.934 25.1547 233.742 25.4427C233.598 25.6827 233.478 25.8987 233.382 26.0907C233.286 26.2827 233.19 26.4987 233.094 26.7387L231.222 29.9068C230.166 31.7308 229.086 33.5309 227.982 35.3069C226.878 37.0349 225.918 38.859 225.102 40.779C224.718 41.643 224.406 42.507 224.166 43.371C223.926 44.2351 223.686 45.1471 223.446 46.1071C223.35 46.3951 223.23 46.6831 223.086 46.9711C222.942 47.2591 222.822 47.5231 222.726 47.7631C222.198 48.7711 221.766 49.7072 221.43 50.5712C221.094 51.4352 220.902 52.4432 220.854 53.5952C219.654 56.2833 218.526 58.9953 217.47 61.7314C216.462 64.4194 215.694 67.2035 215.166 70.0835C215.454 71.0436 215.574 72.0276 215.526 73.0356C215.526 73.9956 215.526 74.9556 215.526 75.9157C215.526 77.1157 215.598 78.0997 215.742 78.8677C215.934 79.6837 216.174 80.4037 216.462 81.0277C216.798 81.6998 217.158 82.3718 217.542 83.0438C217.926 83.7638 218.334 84.6038 218.766 85.5638C219.486 86.1398 220.134 86.7399 220.71 87.3639C221.286 88.0359 221.838 88.7559 222.366 89.5239C224.19 90.4359 226.038 90.8919 227.91 90.8919C229.254 90.8919 230.622 90.6759 232.014 90.2439C233.406 89.8119 234.75 89.2599 236.046 88.5879C237.39 87.9639 238.686 87.2679 239.934 86.4999C241.182 85.7318 242.382 84.9878 243.534 84.2678C245.55 83.0678 247.302 81.7718 248.79 80.3797C250.278 78.9877 251.622 77.5237 252.822 75.9877C254.07 74.4516 255.222 72.8196 256.278 71.0916C257.335 69.3155 258.439 67.4435 259.591 65.4755C259.639 65.2355 259.735 64.9474 259.879 64.6114L260.311 63.5314C260.455 63.1474 260.575 62.8114 260.671 62.5234C260.815 62.1874 260.887 61.9714 260.887 61.8754C260.887 61.4914 260.791 61.2274 260.599 61.0834C260.455 60.8914 260.383 60.6994 260.383 60.5074C260.383 60.1234 260.479 59.8594 260.671 59.7154C260.863 59.5714 261.079 59.4273 261.319 59.2833C261.607 59.1393 261.847 58.9713 262.039 58.7793C262.279 58.5873 262.399 58.2273 262.399 57.6993C262.303 57.6513 262.135 57.6273 261.895 57.6273C261.655 57.6273 261.415 57.6513 261.175 57.6993C260.935 57.7473 260.695 57.7713 260.455 57.7713C259.879 57.7713 259.399 57.5793 259.015 57.1953C258.775 57.2913 258.535 57.4593 258.295 57.6993C258.055 57.8913 257.814 58.1073 257.574 58.3473C257.382 58.5873 257.19 58.8033 256.998 58.9953C256.806 59.1873 256.638 59.2833 256.494 59.2833C256.254 59.2833 256.062 59.2353 255.918 59.1393C255.822 59.0433 255.678 58.9953 255.486 58.9953C254.67 58.9953 253.95 59.1873 253.326 59.5714C252.702 59.9554 252.03 60.2674 251.31 60.5074C251.166 60.5074 251.022 60.5074 250.878 60.5074C250.734 60.4594 250.59 60.4354 250.446 60.4354C249.918 60.4354 249.39 60.5314 248.862 60.7234C248.382 60.8674 247.902 61.0354 247.422 61.2274C246.99 61.4194 246.534 61.5874 246.054 61.7314C245.574 61.8754 245.094 61.9234 244.614 61.8754C243.558 62.2594 242.574 62.6674 241.662 63.0994C240.798 63.5314 239.79 63.6994 238.638 63.6034C238.302 63.7474 237.942 63.9154 237.558 64.1074C237.222 64.2514 236.886 64.4434 236.55 64.6834C236.262 64.7794 236.046 64.8274 235.902 64.8274C235.662 64.8274 235.47 64.7075 235.326 64.4674C234.942 64.8995 234.438 65.2115 233.814 65.4035C233.19 65.5475 232.542 65.6915 231.87 65.8355C231.198 65.9315 230.55 66.0755 229.926 66.2675C229.35 66.4115 228.894 66.7235 228.558 67.2035C228.03 66.7715 227.406 66.5555 226.686 66.5555C225.966 66.5555 225.27 66.6995 224.598 66.9875C223.926 67.2275 223.206 67.3475 222.438 67.3475C222.15 67.3475 221.958 67.2995 221.862 67.2035C221.67 66.6755 221.454 66.1475 221.214 65.6195C220.974 65.0915 220.59 64.7075 220.062 64.4674C219.966 63.9394 219.87 63.4354 219.774 62.9554C219.726 62.4274 219.702 61.9234 219.702 61.4434C219.702 60.1474 220.086 58.9713 220.854 57.9153C221.526 57.6753 222.198 57.4833 222.87 57.3393C223.59 57.1473 224.286 56.9313 224.958 56.6913C225.486 56.7873 226.014 56.8593 226.542 56.9073C227.07 56.9553 227.598 56.9793 228.126 56.9793C230.094 56.9793 232.014 56.7393 233.886 56.2593C235.758 55.7313 237.606 55.1793 239.43 54.6033C241.158 54.0752 242.91 53.5952 244.686 53.1632C246.462 52.7312 248.238 52.2512 250.014 51.7232C251.694 51.2912 253.35 50.8112 254.982 50.2832C256.614 49.7072 258.319 49.3472 260.095 49.2032C261.247 48.3871 262.639 47.8351 264.271 47.5471C265.951 47.2591 267.487 46.9471 268.879 46.6111C271.087 46.0831 273.271 45.5551 275.431 45.0271C277.591 44.4511 272.204 46.0351 274.46 45.6031C276.956 45.0751 279.38 44.4271 281.732 43.659C284.132 42.891 286.532 42.075 288.932 41.211H289.652C290.468 41.211 291.308 41.115 292.172 40.923C293.036 40.731 293.9 40.635 294.764 40.635C295.004 40.635 295.196 40.659 295.34 40.707C295.532 40.707 295.724 40.707 295.916 40.707C296.06 40.707 296.42 40.611 296.996 40.419C297.572 40.179 297.98 40.011 298.22 39.915C298.844 40.587 299.54 41.187 300.308 41.715C301.076 42.243 301.748 42.843 302.324 43.515Z" fill="white"/>
<path d="M405.682 13.4658C405.682 17.6624 402.28 21.0645 398.083 21.0645C393.886 21.0645 390.484 17.6624 390.484 13.4658C390.484 9.26921 393.886 5.86719 398.083 5.86719C402.28 5.86719 405.682 9.26921 405.682 13.4658Z" fill="#EBFD00"/>
<path d="M400.077 13.4664C400.077 14.5664 399.186 15.4582 398.086 15.4582C396.986 15.4582 396.094 14.5664 396.094 13.4664C396.094 12.3664 396.986 11.4746 398.086 11.4746C399.186 11.4746 400.077 12.3664 400.077 13.4664Z" fill="#0C284A"/>
<path d="M160.091 83.9561L144.329 73.0101V42.2517L140.279 37.5449L135.901 40.172L134.368 38.0922L149.036 28.1313L157.464 38.0922V66.1141L170.162 74.1047C170.162 73.7398 170.162 73.2655 170.162 72.6817L170.052 42.2517L164.251 35.2463L174.759 28.1313L184.72 39.8436V68.7411C184.72 71.733 184.975 73.9222 185.486 75.3087C185.997 76.6952 186.508 77.7898 187.019 78.5925C187.602 79.3952 187.894 80.4534 187.894 81.7669C187.894 83.3723 187.456 84.6128 186.581 85.4885C185.705 86.4372 184.683 87.2034 183.516 87.7872C182.348 88.444 181.29 89.1007 180.341 89.7575L160.091 103.987C158.924 102.309 157.391 100.886 155.494 99.7184C153.67 98.6238 151.48 98.0765 148.926 98.0765C145.861 98.0765 143.089 98.9886 140.607 100.813L139.075 99.7184C140.316 96.5075 142.468 93.6981 145.533 91.2899C148.598 88.8818 152.247 87.6777 156.479 87.6777C161.879 87.6777 166.404 89.5751 170.052 93.3697C171.22 93.2967 172.168 92.7859 172.898 91.8372C173.628 90.9616 173.993 89.9034 173.993 88.6629C173.993 87.1304 173.737 85.8899 173.227 84.9412C172.789 84.0656 172.278 83.0804 171.694 81.9858C171.11 80.8182 170.673 79.1033 170.381 76.8412L160.091 83.9561Z" fill="white"/>
<path d="M122.643 83.956L111.15 73.9951L106.881 76.6222L105.349 74.5424L112.682 69.8356V22.111C112.682 19.5569 112.391 17.8055 111.807 16.8569C111.296 15.8352 109.837 14.9596 107.428 14.2298V12.5879L125.27 0H127.35V70.8208L131.619 75.0897L134.684 72.4627L136.326 74.5424L122.643 83.956Z" fill="white"/>
<path d="M56.9381 76.5126L54.9678 74.214L60.5502 69.6167V41.4854L85.1788 27.365L100.941 39.4056V69.2883L76.8598 83.9559L61.4259 72.9005L56.9381 76.5126ZM87.368 75.637V44.1124L74.7801 35.684V67.2085L87.368 75.637Z" fill="white"/>
<path d="M17.2947 83.956L6.02032 74.433L1.86082 77.06L0 74.5424L7.33384 69.8356V19.9218C7.33384 19.0461 7.11492 18.0974 6.67708 17.0758C6.23924 15.9812 4.70679 15.0325 2.07975 14.2298V12.5879L19.9218 0H22.0015V40.6098L35.684 27.8029L47.2868 37.5449L51.5558 34.0421L53.5261 36.3408L48.8193 40.1719V71.4776C48.8193 74.3235 48.4909 77.206 47.8341 80.1249C47.2504 82.9709 46.1193 85.6344 44.4409 88.1155C42.8354 90.5966 40.5368 92.5669 37.5449 94.0264C34.553 95.5588 30.6854 96.325 25.9421 96.325C24.7745 96.325 23.6434 96.2156 22.5488 95.9967V93.3696C25.2488 93.3696 27.4745 92.3115 29.2259 90.1953C31.0502 88.152 32.4002 85.4885 33.2759 82.2047C34.1516 78.8479 34.5894 75.2722 34.5894 71.4776V43.5652L28.1313 38.2016L22.0015 43.8936V70.8208L25.6137 74.433L29.007 72.0249L30.9773 74.5424L17.2947 83.956Z" fill="white"/>
</svg>