<svg width="513" height="96" viewBox="0 0 513 96" fill="none" xmlns="http://www.w3.org/2000/svg">
<path fill-rule="evenodd" clip-rule="evenodd" d="M81.5186 0C86.5839 4.1443e-06 90.7579 1.03208 94.041 3.0957C97.4179 5.06557 100.092 8.06706 102.062 12.1006C104.031 16.1341 105.438 21.2465 106.282 27.4375C107.126 33.5347 107.549 40.6643 107.549 48.8252C107.549 56.1417 107.126 62.7077 106.282 68.5234C105.438 74.3393 104.031 79.3111 102.062 83.4385C100.092 87.4719 97.4179 90.5672 94.041 92.7246C90.6641 94.882 86.3964 95.9609 81.2373 95.9609C76.2658 95.9609 72.1386 94.882 68.8555 92.7246C65.5724 90.5672 62.9454 87.4251 60.9756 83.2979C59.0995 79.1705 57.7866 74.1986 57.0361 68.3828C56.2857 62.5671 55.9102 56.0479 55.9102 48.8252C55.9102 37.8504 56.6135 28.7511 58.0205 21.5283C59.5214 14.3054 62.1482 8.91121 65.9004 5.34668C69.6525 1.78223 74.8586 0 81.5186 0ZM81.5186 14.2109C79.6425 14.2109 78.1413 15.3367 77.0156 17.5879C75.9838 19.7453 75.2337 23.2631 74.7646 28.1406C74.2956 33.0184 74.0615 39.5383 74.0615 47.6992C74.0615 53.8901 74.1552 59.1899 74.3428 63.5986C74.6242 67.9135 75.0466 71.4311 75.6094 74.1514C76.1722 76.7779 76.9223 78.7483 77.8604 80.0615C78.8921 81.2808 80.1584 81.8906 81.6592 81.8906C83.6291 81.8906 85.1771 80.8118 86.3027 78.6543C87.4283 76.4031 88.2253 72.7917 88.6943 67.8203C89.1634 62.7549 89.3984 56.0945 89.3984 47.8398C89.3984 39.5851 89.1165 33.0184 88.5537 28.1406C88.0847 23.1693 87.2409 19.6047 86.0215 17.4473C84.8958 15.2898 83.3946 14.2109 81.5186 14.2109Z" fill="white"/>
<path d="M17.8691 39.3975H31.377V1.54785H49.2471V94.4131H31.377V54.3125H17.8691V94.4131H0V1.54785H17.8691V39.3975Z" fill="white"/>
<path d="M132.339 79.0762H153.585V94.4131H114.188V1.54785H132.339V79.0762Z" fill="white"/>
<path d="M170.29 46.4326H170.853L178.873 1.54785H198.009L179.295 63.0361V94.4131H160.722V63.0361L141.867 1.54785H162.27L170.29 46.4326Z" fill="white"/>
<path d="M260.176 0C265.241 4.72236e-05 269.322 0.985254 272.417 2.95508C275.606 4.83109 277.998 7.45727 279.593 10.834C281.187 14.2109 282.126 18.0103 282.407 22.2314C282.782 26.4526 282.594 30.768 281.844 35.1768L264.818 37.2871C265.381 32.5033 265.569 28.3759 265.382 24.9053C265.194 21.4347 264.584 18.7608 263.553 16.8848C262.615 14.9149 261.254 13.9297 259.472 13.9297C257.502 13.9298 255.907 15.2429 254.688 17.8691C253.562 20.4018 252.765 24.0139 252.296 28.7041C251.827 33.3004 251.593 38.8821 251.593 45.4482C251.593 52.1081 251.733 57.7836 252.015 62.4736C252.39 67.1635 252.906 70.9623 253.562 73.8701C254.313 76.6842 255.157 78.7483 256.095 80.0615C257.127 81.2809 258.252 81.8906 259.472 81.8906C261.16 81.8906 262.568 80.9991 263.693 79.2168C264.913 77.3408 265.85 74.8082 266.507 71.6191C267.163 68.336 267.539 64.6303 267.633 60.5029H260.316V47.5586H283.813V94.4131H271.713L272.417 67.2568H271.01C271.01 72.6036 270.587 77.4819 269.743 81.8906C268.899 86.2055 267.304 89.6294 264.959 92.1621C262.614 94.6946 259.19 95.9609 254.688 95.9609C249.153 95.9608 244.839 93.9912 241.743 90.0518C238.741 86.112 236.584 80.5773 235.271 73.4482C234.051 66.3192 233.441 57.9703 233.441 48.4023C233.441 41.0859 233.817 34.473 234.567 28.5635C235.412 22.5602 236.818 17.4477 238.788 13.2266C240.758 8.9116 243.478 5.62824 246.949 3.37695C250.42 1.12569 254.829 0 260.176 0Z" fill="white"/>
<path d="M487.443 0C493.259 0 497.996 1.21948 501.654 3.6582C505.313 6.09704 507.893 9.66155 509.394 14.3516C510.894 18.9479 511.27 24.4358 510.52 30.8145L494.197 32.9248C494.479 30.7674 494.619 28.5627 494.619 26.3115C494.619 24.0605 494.385 22.0438 493.916 20.2617C493.447 18.3857 492.65 16.8844 491.524 15.7588C490.493 14.6331 489.132 14.0703 487.443 14.0703C486.13 14.0703 485.004 14.4459 484.066 15.1963C483.128 15.8529 482.378 16.8382 481.815 18.1514C481.347 19.3707 481.111 20.8713 481.111 22.6533C481.111 25.3734 481.674 27.7187 482.8 29.6885C484.019 31.6583 485.521 33.3469 487.303 34.7539C489.179 36.161 491.008 37.5217 492.79 38.835C495.51 40.6172 498.044 42.5398 500.389 44.6035C502.827 46.5733 504.938 48.8249 506.72 51.3574C508.596 53.7963 510.05 56.6573 511.082 59.9404C512.114 63.1297 512.63 66.8355 512.63 71.0566C512.63 75.8404 511.785 80.1552 510.097 84.001C508.502 87.753 505.876 90.7078 502.218 92.8652C498.653 94.9289 493.869 95.9609 487.865 95.9609C482.706 95.9609 478.391 95.117 474.921 93.4287C471.949 91.9028 469.531 89.8929 467.659 87.4043V94.4131H428.262V1.54785H446.413V79.0762H464.018C463.722 77.7742 463.509 76.4145 463.383 74.9961C463.101 70.775 463.571 66.1785 464.79 61.207L481.394 59.0967C480.737 63.0362 480.455 66.835 480.549 70.4932C480.643 74.0575 481.252 76.9656 482.378 79.2168C483.504 81.3743 485.474 82.4531 488.288 82.4531C489.695 82.4531 490.868 82.1253 491.806 81.4688C492.744 80.7184 493.447 79.6394 493.916 78.2324C494.479 76.7317 494.76 74.9024 494.76 72.7451C494.76 68.7117 494.056 65.3814 492.649 62.7549C491.242 60.1284 489.46 57.877 487.303 56.001C485.145 54.1249 482.894 52.3896 480.549 50.7949C478.485 49.2004 476.422 47.5585 474.358 45.8701C472.295 44.1817 470.418 42.3058 468.729 40.2422C467.041 38.0847 465.681 35.6451 464.649 32.9248C463.711 30.2046 463.242 27.0624 463.242 23.498C463.242 18.8079 464.181 14.7275 466.057 11.2568C467.933 7.69245 470.652 4.92494 474.217 2.95508C477.875 0.985224 482.284 1.74785e-05 487.443 0Z" fill="white"/>
<path fill-rule="evenodd" clip-rule="evenodd" d="M312.712 1.54785C315.807 1.54785 318.715 1.9234 321.436 2.67383C324.25 3.42425 326.783 4.54992 329.034 6.05078C331.285 7.55158 333.208 9.38076 334.803 11.5381C336.491 13.6955 337.757 16.228 338.602 19.1357C339.54 22.0437 340.009 25.2802 340.009 28.8447C340.009 31.9402 339.633 34.8481 338.883 37.5684C338.226 40.2886 337.1 42.7273 335.506 44.8848C333.911 47.0422 331.895 48.8722 329.456 50.373C327.017 51.78 324.062 52.7643 320.592 53.3271V54.4531C325.188 54.6408 328.706 55.5314 331.145 57.126C333.583 58.7206 335.366 60.9721 336.491 63.8799C337.617 66.7878 338.414 70.3062 338.883 74.4336L341.697 94.4131H323.124L321.295 77.2471C321.014 74.3394 320.591 71.6663 320.028 69.2275C319.559 66.6949 318.622 64.7244 317.215 63.3174C315.808 61.9104 313.556 61.1603 310.461 61.0664H308.35V94.4131H290.48V1.54785H312.712ZM308.35 48.543H310.038C314.072 48.543 317.074 47.1832 319.044 44.4629C321.014 41.7427 321.998 37.4278 321.998 31.5186C321.998 26.0781 321.154 22.185 319.466 19.8398C317.777 17.4009 315.15 16.1816 311.586 16.1816H308.35V48.543Z" fill="white"/>
<path fill-rule="evenodd" clip-rule="evenodd" d="M398.458 94.4131H379.885L377.801 76.9658H362.567L360.608 94.4131H342.035L357.513 1.54785H382.98L398.458 94.4131ZM363.942 64.7246H376.339L370.458 15.4775H369.473L363.942 64.7246Z" fill="white"/>
<path d="M420.995 94.4131H402.703V1.54785H420.995V94.4131Z" fill="white"/>
<path fill-rule="evenodd" clip-rule="evenodd" d="M225.938 51.3389C225.938 60.0824 218.85 67.1707 210.106 67.1709C201.363 67.1709 194.274 60.0826 194.273 51.3389C194.274 42.5953 201.363 35.5071 210.106 35.5068C218.85 35.5068 225.938 42.5952 225.938 51.3389ZM206.543 51.3389C206.543 53.3065 208.139 54.9014 210.106 54.9014C212.074 54.9012 213.669 53.3064 213.669 51.3389C213.669 49.3712 212.074 47.7764 210.106 47.7764C208.139 47.7766 206.543 49.3713 206.543 51.3389Z" fill="#EBFD00"/>
</svg>
