<svg width="214" height="44" viewBox="0 0 214 44" fill="none" xmlns="http://www.w3.org/2000/svg">
<path d="M9.19613 20.7973C9.22695 20.4054 9.40829 20.083 9.7264 19.851C9.92947 19.7031 10.0207 19.5624 10.0526 19.4379C10.0839 19.3153 10.0705 19.1578 9.96371 18.9477C9.672 18.3737 9.59591 17.8079 9.8016 17.2807C9.98035 16.8226 10.2426 16.4115 10.5868 16.0493C10.8687 15.7525 11.0717 15.4075 11.1961 15.0112C11.3764 14.4371 11.8201 14.0922 12.4422 13.9594C12.6652 13.9119 12.8268 13.8296 12.9432 13.7251C13.0584 13.6215 13.1457 13.4811 13.1981 13.2905C13.2797 12.9939 13.4314 12.7439 13.6688 12.5708C13.9044 12.399 14.1929 12.3256 14.5077 12.3247C14.7104 12.324 14.8474 12.2685 14.9471 12.1792C15.0516 12.0854 15.1461 11.926 15.2069 11.6655C15.2872 11.3211 15.4455 11.0187 15.7342 10.8549C16.0251 10.6899 16.3641 10.7134 16.6952 10.8286C17.2167 11.01 17.575 10.977 17.826 10.8237C18.2284 10.5779 18.6632 10.4264 19.1278 10.3715C19.5902 10.3169 20.0552 10.3574 20.5194 10.4897C20.6776 10.5347 20.801 10.5279 20.9032 10.4897C21.0075 10.4507 21.1193 10.3678 21.2332 10.2124C21.3748 10.019 21.4914 9.87052 21.577 9.77974C21.5991 9.75623 21.6234 9.73173 21.6483 9.71041C21.6694 9.69235 21.7076 9.66177 21.7576 9.63912C21.792 9.6236 21.9532 9.55865 22.1063 9.67623C22.1292 9.69385 22.1463 9.71432 22.1619 9.73384L22.203 9.72896L22.2127 9.82564C22.2352 9.8863 22.2381 9.93712 22.2381 9.95162L22.2381 10.0551L22.2362 10.0571L22.2694 10.3676L21.95 10.4008L21.8914 10.4077C21.8514 10.4596 21.804 10.52 21.7518 10.5913C21.5833 10.8214 21.3773 10.998 21.1278 11.0913C20.8761 11.1853 20.6096 11.184 20.3426 11.1079C19.9559 10.9977 19.5767 10.9661 19.203 11.0102C18.8315 11.0541 18.4853 11.1745 18.161 11.3725C17.6852 11.6631 17.1072 11.6526 16.4842 11.436C16.243 11.3521 16.1172 11.3773 16.0516 11.4145C15.9839 11.4529 15.8932 11.5531 15.8328 11.812C15.7529 12.1547 15.6085 12.4489 15.3758 12.6577C15.1384 12.8705 14.8402 12.9662 14.5096 12.9672C14.2909 12.9679 14.1456 13.0181 14.0477 13.0893C13.9516 13.1593 13.8689 13.2734 13.8172 13.4614C13.7363 13.7553 13.5904 14.0071 13.3729 14.2026C13.1565 14.3971 12.8854 14.5214 12.576 14.5874C12.1336 14.6818 11.906 14.8928 11.8084 15.2036C11.655 15.6924 11.4027 16.123 11.0526 16.4917C10.7646 16.7948 10.548 17.1353 10.4002 17.5141C10.2794 17.8239 10.3023 18.195 10.5369 18.6567C10.6933 18.9644 10.7558 19.2837 10.6756 19.5971C10.5959 19.9086 10.3883 20.1634 10.1053 20.3696C9.93732 20.492 9.85274 20.6448 9.83675 20.8481C9.81958 21.0677 9.88196 21.3667 10.0662 21.7592L10.1043 21.8413L10.0838 22.0307C10.0644 22.207 9.90566 22.3342 9.72933 22.3149C9.55304 22.2955 9.42586 22.1367 9.44515 21.9604L9.4471 21.9487C9.26381 21.5365 9.16845 21.1492 9.19613 20.7973Z" fill="#EBFD00"/>
<path d="M10.0879 21.9957C10.088 28.3922 15.3789 33.5884 21.9189 33.5884L21.9189 34.231C15.0361 34.231 9.44544 28.7591 9.44531 21.9957L10.0879 21.9957Z" fill="#EBFD00"/>
<path d="M205.347 20.7969C205.316 20.405 205.135 20.0825 204.817 19.8506C204.613 19.7026 204.522 19.5619 204.49 19.4375C204.459 19.3149 204.472 19.1574 204.579 18.9473C204.871 18.3733 204.947 17.8075 204.741 17.2803C204.563 16.8221 204.3 16.4111 203.956 16.0488C203.674 15.7521 203.471 15.4071 203.347 15.0108C203.167 14.4367 202.723 14.0917 202.101 13.959C201.878 13.9114 201.716 13.8292 201.6 13.7246C201.485 13.6211 201.397 13.4807 201.345 13.2901C201.263 12.9935 201.112 12.7434 200.874 12.5703C200.639 12.3986 200.35 12.3252 200.035 12.3242C199.833 12.3236 199.696 12.2681 199.596 12.1787C199.491 12.085 199.397 11.9256 199.336 11.6651C199.256 11.3207 199.097 11.0183 198.809 10.8545C198.518 10.6895 198.179 10.713 197.848 10.8281C197.326 11.0095 196.968 10.9766 196.717 10.8233C196.315 10.5775 195.88 10.426 195.415 10.3711C194.953 10.3165 194.488 10.357 194.024 10.4893C193.865 10.5343 193.742 10.5275 193.64 10.4893C193.535 10.4503 193.424 10.3673 193.31 10.2119C193.168 10.0186 193.052 9.87009 192.966 9.77931C192.944 9.7558 192.92 9.7313 192.895 9.70998C192.874 9.69192 192.835 9.66135 192.785 9.63869C192.751 9.62318 192.59 9.55823 192.437 9.6758C192.414 9.69343 192.397 9.71389 192.381 9.73342L192.34 9.72853L192.33 9.82521C192.308 9.88587 192.305 9.9367 192.305 9.95119L192.305 10.0547L192.307 10.0567L192.274 10.3672L192.593 10.4004L192.652 10.4072C192.692 10.4592 192.739 10.5195 192.791 10.5908C192.96 10.821 193.166 10.9976 193.415 11.0908C193.667 11.1849 193.933 11.1835 194.2 11.1074C194.587 10.9973 194.966 10.9656 195.34 11.0098C195.711 11.0537 196.058 11.174 196.382 11.3721C196.858 11.6627 197.436 11.6522 198.059 11.4356C198.3 11.3517 198.426 11.3769 198.491 11.4141C198.559 11.4525 198.65 11.5527 198.71 11.8115C198.79 12.1543 198.934 12.4485 199.167 12.6572C199.405 12.87 199.703 12.9658 200.033 12.9668C200.252 12.9675 200.397 13.0176 200.495 13.0889C200.591 13.1589 200.674 13.273 200.726 13.461C200.807 13.7549 200.953 14.0066 201.17 14.2022C201.387 14.3967 201.658 14.5209 201.967 14.5869C202.409 14.6814 202.637 14.8924 202.735 15.2031C202.888 15.6919 203.14 16.1226 203.49 16.4912C203.778 16.7943 203.995 17.1349 204.143 17.5137C204.264 17.8235 204.241 18.1946 204.006 18.6563C203.85 18.964 203.787 19.2833 203.867 19.5967C203.947 19.9082 204.155 20.1629 204.438 20.3692C204.606 20.4916 204.69 20.6444 204.706 20.8477C204.723 21.0673 204.661 21.3663 204.477 21.7588L204.439 21.8408L204.459 22.0303C204.479 22.2066 204.637 22.3338 204.814 22.3145C204.99 22.2951 205.117 22.1363 205.098 21.96L205.096 21.9483C205.279 21.5361 205.375 21.1488 205.347 20.7969Z" fill="#EBFD00"/>
<path d="M204.455 21.9952C204.455 28.3918 199.164 33.588 192.624 33.588L192.624 34.2306C199.507 34.2306 205.098 28.7586 205.098 21.9952L204.455 21.9952Z" fill="#EBFD00"/>
<path d="M11.8464 23.2142C11.8885 23.6305 12.1283 23.9418 12.5046 24.14C12.7599 24.2745 12.8653 24.4087 12.902 24.5199C12.9376 24.6276 12.9323 24.785 12.8063 25.0209C12.4755 25.6403 12.3909 26.2458 12.6696 26.7826C12.9058 27.2374 13.2383 27.6181 13.6628 27.9232C14.0006 28.166 14.2539 28.4792 14.4265 28.8675C14.5513 29.1486 14.7485 29.3667 15.0183 29.5013C15.2823 29.633 15.5916 29.6718 15.9255 29.6449C16.1758 29.6248 16.3564 29.6642 16.487 29.7367C16.6145 29.8075 16.7235 29.9259 16.8054 30.1175C16.9329 30.416 17.1315 30.656 17.4235 30.7699C17.7104 30.8817 18.0261 30.8483 18.3395 30.7337C18.5474 30.6578 18.6884 30.6743 18.7956 30.7308C18.9135 30.7931 19.0472 30.9338 19.1726 31.2152C19.3254 31.558 19.5515 31.8601 19.8991 31.9388C20.2517 32.0186 20.5805 31.836 20.8532 31.5853C21.0931 31.3648 21.2651 31.2522 21.3757 31.2103C21.3916 31.2043 21.4048 31.202 21.4147 31.1996L21.6208 31.5502L21.7761 31.5707L21.8757 31.5843L22.194 31.6263L22.279 30.9896L22.0153 30.9535L21.9265 30.8011L21.9108 30.7748L21.8894 30.7503C21.7957 30.6453 21.6723 30.577 21.53 30.557C21.3953 30.5381 21.2646 30.5656 21.1481 30.6097C20.9207 30.6959 20.6749 30.8753 20.4177 31.1117C20.1932 31.318 20.0778 31.3203 20.0407 31.3119C19.9985 31.3022 19.8885 31.243 19.7595 30.9535C19.6028 30.602 19.3896 30.3177 19.0954 30.1625C18.7903 30.0015 18.4534 30.0079 18.1188 30.1302C17.89 30.2138 17.7463 30.2061 17.6569 30.1712C17.5728 30.1384 17.4787 30.0585 17.3962 29.8656C17.268 29.5656 17.0711 29.3265 16.7985 29.1752C16.5289 29.0255 16.2136 28.9769 15.8737 29.0043C15.6172 29.0249 15.4342 28.9903 15.3054 28.9261C15.1823 28.8647 15.0848 28.7651 15.0144 28.6068C14.7962 28.1159 14.4696 27.7121 14.0378 27.4017C13.6928 27.1538 13.4283 26.8493 13.2399 26.4867C13.0941 26.2057 13.0993 25.8356 13.3727 25.3236C13.5487 24.9941 13.6218 24.6488 13.5124 24.3177C13.4041 23.9903 13.1409 23.749 12.8044 23.5716C12.5888 23.4581 12.5024 23.3201 12.4851 23.1498C12.465 22.9512 12.5342 22.6578 12.7585 22.2494L12.8093 22.1556L12.781 21.9505C12.7561 21.7749 12.5933 21.6523 12.4177 21.6771C12.2429 21.7018 12.1212 21.8629 12.1442 22.0375C11.9278 22.4558 11.81 22.8535 11.8464 23.2142Z" fill="#EBFD00"/>
<path d="M12.7832 21.9959C12.7832 17.0597 16.8665 13.0468 21.917 13.0467L21.917 12.4041C16.5237 12.4042 12.1406 16.6928 12.1406 21.9959L12.7832 21.9959Z" fill="#EBFD00"/>
<path d="M202.625 23.2059C202.584 23.5959 202.394 23.9123 202.069 24.1317C201.864 24.2702 201.762 24.4084 201.72 24.538C201.679 24.6661 201.682 24.8291 201.768 25.0448C202.007 25.6405 202.024 26.2107 201.759 26.7177C201.528 27.1598 201.215 27.5401 200.823 27.8573C200.499 28.1192 200.24 28.4368 200.044 28.8114C199.765 29.3471 199.268 29.6097 198.633 29.6259C198.195 29.637 197.914 29.8085 197.733 30.1366C197.585 30.4046 197.38 30.6122 197.11 30.7235C196.842 30.834 196.545 30.8347 196.242 30.7597C196.046 30.7113 195.894 30.7295 195.767 30.7919C195.635 30.8567 195.497 30.9854 195.365 31.2138C195.189 31.5168 194.95 31.7582 194.627 31.829C194.303 31.9001 193.989 31.7775 193.71 31.5712C193.48 31.4014 193.311 31.3141 193.199 31.2811C193.16 31.2697 193.135 31.2676 193.121 31.2675L192.989 31.4442L192.908 31.5526L192.774 31.5702L192.674 31.5839L192.356 31.6259L192.271 30.9891L192.556 30.9501L192.647 30.829L192.666 30.8036L192.689 30.7821C192.894 30.598 193.155 30.5988 193.378 30.664C193.598 30.7282 193.838 30.8678 194.091 31.0546C194.294 31.2045 194.419 31.2165 194.49 31.2011C194.563 31.185 194.677 31.1186 194.809 30.8915C194.984 30.5898 195.205 30.3516 195.484 30.2147C195.768 30.0755 196.078 30.057 196.396 30.1356C196.606 30.1876 196.756 30.1737 196.865 30.1288C196.972 30.0848 197.077 29.9957 197.17 29.8261C197.472 29.2791 197.973 28.9996 198.617 28.9833C199.063 28.972 199.322 28.806 199.474 28.5145C199.71 28.0625 200.025 27.6763 200.419 27.3583C200.744 27.0954 201 26.7828 201.19 26.4198C201.346 26.1215 201.36 25.7553 201.171 25.2841C201.044 24.9665 201.01 24.6457 201.109 24.3407C201.207 24.0373 201.422 23.7927 201.71 23.5985C201.878 23.4851 201.965 23.3397 201.986 23.1395C202.008 22.9222 201.953 22.6214 201.779 22.2225L201.743 22.1395L201.755 22.0487L201.769 21.9501C201.794 21.7744 201.957 21.6519 202.132 21.6766C202.308 21.7015 202.431 21.8643 202.406 22.0399L202.404 22.0516C202.576 22.468 202.661 22.8569 202.625 23.2059Z" fill="#EBFD00"/>
<path d="M201.764 21.9955C201.764 17.0592 197.68 13.0463 192.63 13.0463L192.63 12.4037C198.023 12.4038 202.406 16.6924 202.406 21.9955L201.764 21.9955Z" fill="#EBFD00"/>
<path d="M14.4712 21.9126C14.3416 21.4945 14.2852 21.1116 14.3335 20.7739C14.3868 20.4015 14.5634 20.0948 14.8657 19.8813C15.0512 19.7505 15.164 19.6101 15.2251 19.4653C15.2859 19.3212 15.305 19.1488 15.2671 18.937C15.1605 18.3405 15.2595 17.8008 15.5952 17.352C15.895 16.9513 16.2644 16.6252 16.6997 16.3755C17.0709 16.1625 17.4072 15.9012 17.7085 15.5913C18.1137 15.1747 18.6382 15.0309 19.2329 15.1372C19.6527 15.2121 19.9997 15.1277 20.3013 14.894C20.5194 14.7249 20.7565 14.6069 21.0073 14.5893C21.2148 14.5748 21.4044 14.6325 21.5718 14.7417L21.7554 14.7085L22.1704 14.6342L22.2827 15.2671L22.228 15.2768C22.2203 15.3567 22.189 15.481 22.0669 15.5659C21.9173 15.6698 21.7586 15.6259 21.6968 15.604C21.5614 15.5557 21.4141 15.4415 21.2759 15.3198C21.1905 15.2446 21.1199 15.2262 21.0523 15.2309C20.9733 15.2365 20.8562 15.2775 20.6958 15.4018C20.2401 15.7552 19.7053 15.8746 19.1196 15.77C18.7087 15.6966 18.4074 15.7937 18.1685 16.0395C17.8258 16.392 17.4426 16.6901 17.0191 16.9331C16.6595 17.1393 16.3569 17.4066 16.1099 17.7368C15.8989 18.0188 15.8189 18.3702 15.8999 18.8237C15.956 19.137 15.9336 19.4385 15.8169 19.7153C15.7005 19.9913 15.4993 20.2198 15.2359 20.4057C15.0896 20.509 14.9996 20.6529 14.9693 20.8647C14.9372 21.0889 14.9724 21.3951 15.105 21.7964L15.1314 21.8755L15.1157 21.9565L15.0972 22.0551C15.0643 22.2295 14.8965 22.3439 14.7222 22.311C14.5478 22.2781 14.4334 22.1104 14.4663 21.936L14.4712 21.9126Z" fill="#EBFD00"/>
<path d="M15.1035 21.9951C15.1035 25.6714 18.1449 28.6628 21.9102 28.6631L21.9102 29.3057C17.802 29.3054 14.4609 26.0382 14.4609 21.9951L15.1035 21.9951Z" fill="#EBFD00"/>
<path d="M200.074 21.927C200.231 21.5043 200.303 21.1132 200.255 20.7678C200.2 20.3801 199.996 20.0742 199.66 19.8742C199.45 19.7494 199.333 19.6151 199.276 19.4807C199.219 19.3474 199.204 19.1784 199.262 18.9563C199.424 18.3361 199.358 17.769 199.01 17.303C198.706 16.8948 198.326 16.57 197.873 16.3303C197.495 16.1304 197.162 15.8699 196.872 15.5481C196.676 15.331 196.439 15.18 196.164 15.1086C195.891 15.0379 195.6 15.0498 195.299 15.1262C194.872 15.235 194.537 15.1541 194.253 14.9016C194.039 14.7124 193.798 14.5757 193.533 14.5608C193.319 14.5488 193.13 14.6191 192.967 14.7405L192.372 14.634L192.259 15.2668L192.312 15.2766C192.313 15.343 192.325 15.4973 192.458 15.6037C192.619 15.7325 192.797 15.6753 192.863 15.6477C192.942 15.6145 193.014 15.5608 193.076 15.51C193.141 15.4559 193.212 15.3887 193.288 15.3108C193.381 15.2141 193.448 15.1997 193.497 15.2024C193.559 15.2059 193.668 15.2426 193.827 15.383C194.285 15.7897 194.844 15.9054 195.458 15.7492C195.678 15.6931 195.857 15.693 196.003 15.7307C196.145 15.7677 196.275 15.8464 196.394 15.9787C196.734 16.3556 197.127 16.6622 197.572 16.8977C197.942 17.0933 198.249 17.3564 198.496 17.6877C198.7 17.9613 198.766 18.3147 198.641 18.7942C198.556 19.1217 198.561 19.4408 198.685 19.7326C198.809 20.0231 199.036 20.2515 199.332 20.427C199.501 20.5275 199.591 20.6632 199.619 20.8576C199.649 21.0704 199.604 21.3714 199.443 21.7785L199.409 21.8655L199.426 21.9563L199.445 22.0549C199.478 22.2293 199.646 22.3437 199.82 22.3108C199.994 22.2778 200.109 22.1101 200.076 21.9358L200.074 21.927Z" fill="#EBFD00"/>
<path d="M199.439 21.9949C199.439 25.6711 196.398 28.6626 192.633 28.6628L192.633 29.3054C196.741 29.3052 200.082 26.0379 200.082 21.9949L199.439 21.9949Z" fill="#EBFD00"/>
<path d="M6.26773 23.1908C6.29276 23.6176 6.53264 23.9433 6.91226 24.1615C7.18262 24.3168 7.27029 24.4535 7.29117 24.5472C7.31076 24.6358 7.29185 24.7814 7.11441 25.0091C6.66936 25.5804 6.46205 26.1706 6.63687 26.7445C6.78316 27.2244 7.03381 27.6562 7.3859 28.0365C7.65864 28.3311 7.81628 28.6776 7.85953 29.0873C7.89224 29.3968 8.0186 29.6657 8.24429 29.8734C8.46398 30.0754 8.75662 30.2006 9.0939 30.2699C9.3518 30.3229 9.50533 30.4136 9.5939 30.514C9.67883 30.6104 9.73433 30.7495 9.7316 30.9642C9.72726 31.2977 9.81567 31.6052 10.048 31.8285C10.2754 32.0469 10.5904 32.1355 10.9347 32.1468C11.1694 32.1547 11.2767 32.2265 11.3341 32.307C11.402 32.4023 11.454 32.5851 11.422 32.9144C11.3844 33.3023 11.432 33.6917 11.7072 33.9339C11.987 34.1801 12.3771 34.1666 12.7472 34.0658C13.3947 33.8894 13.7181 33.9916 13.881 34.1742C14.2047 34.5369 14.5956 34.7972 15.049 34.9515C15.4995 35.1048 15.9802 35.1471 16.4855 35.0834C16.6368 35.0644 16.7559 35.0974 16.8634 35.1791C16.9801 35.2677 17.103 35.4294 17.215 35.6986C17.4797 36.335 17.8347 36.8292 18.2961 37.1478C18.716 37.4378 19.1618 37.6613 19.633 37.8177C20.123 37.9805 20.6261 38.0227 21.1369 37.9427C21.6373 37.8643 22.0836 37.6383 22.1632 37.1371L22.1681 37.1009L22.1662 37.0638L22.1613 37.0003L22.2072 37.0043L22.2609 36.3636L21.9406 36.3373L21.841 36.3285L21.467 36.2972L21.5207 37.058C21.4994 37.1324 21.4169 37.2475 21.0373 37.307C20.6275 37.3711 20.2278 37.3387 19.8351 37.2084C19.4238 37.0717 19.0328 36.875 18.6613 36.6185C18.3312 36.3905 18.0411 36.0125 17.8078 35.4515C17.6707 35.1221 17.4909 34.8488 17.2521 34.6673C17.0044 34.4792 16.7148 34.4065 16.4045 34.4457C15.9861 34.4984 15.6049 34.4627 15.256 34.3441C14.9099 34.2263 14.6124 34.0277 14.3605 33.7455C13.9478 33.2831 13.2991 33.2493 12.5783 33.4457C12.2646 33.5311 12.1592 33.4754 12.132 33.4515C12.1005 33.4238 12.0289 33.3151 12.0617 32.9769C12.1002 32.58 12.0552 32.2127 11.8576 31.9349C11.6492 31.6424 11.3221 31.5173 10.9552 31.5052C10.6983 31.4967 10.5634 31.4327 10.4933 31.3656C10.4282 31.303 10.3714 31.1912 10.3742 30.973C10.3786 30.6362 10.2883 30.3306 10.0753 30.0892C9.86606 29.8519 9.56879 29.7119 9.22379 29.641C8.95826 29.5864 8.78581 29.4991 8.67886 29.4007C8.57792 29.3079 8.51594 29.1876 8.4982 29.0199C8.44067 28.4749 8.22617 27.9981 7.85758 27.6C7.56835 27.2876 7.36782 26.9406 7.25113 26.558C7.16315 26.2693 7.23815 25.8965 7.62125 25.4046C7.85776 25.1011 7.99676 24.7595 7.91812 24.4066C7.84049 24.0592 7.57301 23.7995 7.23257 23.6039C7.00164 23.4711 6.91926 23.3225 6.90933 23.1537C6.89774 22.956 6.98223 22.6669 7.23843 22.2689L7.298 22.1761L7.28824 22.0668L7.27945 21.9671C7.26378 21.7904 7.10754 21.6595 6.93082 21.6752C6.75634 21.6906 6.62803 21.843 6.6398 22.017C6.39126 22.4258 6.24619 22.8213 6.26773 23.1908Z" fill="#EBFD00"/>
<path d="M7.2832 21.9959C7.2832 14.0818 13.8292 7.65509 21.917 7.65509L21.917 7.01251C13.4863 7.01251 6.64063 13.715 6.64063 21.9959L7.2832 21.9959Z" fill="#EBFD00"/>
<path d="M207.901 22.0614C208.177 22.8863 208.172 23.6159 207.692 24.1191C207.542 24.2759 207.463 24.4273 207.433 24.5732C207.403 24.7185 207.417 24.8841 207.493 25.0771C207.705 25.6141 207.745 26.1411 207.588 26.6435C207.447 27.0954 207.24 27.5183 206.969 27.912C206.737 28.2494 206.567 28.617 206.459 29.0155C206.316 29.5453 205.972 29.9438 205.461 30.2079C205.098 30.3954 204.885 30.6648 204.796 31.0263C204.655 31.5964 204.281 31.9825 203.714 32.164C203.533 32.2219 203.4 32.3131 203.302 32.4316C203.202 32.5516 203.125 32.7161 203.082 32.9404C203.022 33.2564 202.89 33.531 202.661 33.7265C202.432 33.9224 202.14 34.0078 201.82 34.0136C201.344 34.0223 200.996 34.1509 200.745 34.37C200.398 34.6735 200.012 34.9139 199.588 35.0898C199.166 35.2649 198.721 35.3729 198.257 35.415C197.924 35.4452 197.622 35.6085 197.348 35.9443C197.002 36.367 196.604 36.6908 196.15 36.9071C195.725 37.1101 195.284 37.2685 194.829 37.3808C194.363 37.4958 193.889 37.5369 193.41 37.5038C193.174 37.4875 192.965 37.4524 192.798 37.3876C192.641 37.3266 192.461 37.2118 192.395 36.9989L192.337 37.0038L192.283 36.3632L192.604 36.3368L192.703 36.328L193.101 36.2948L193.049 36.6904L193.036 36.79C193.115 36.8198 193.25 36.848 193.455 36.8622C193.868 36.8907 194.274 36.8558 194.676 36.7568C195.088 36.655 195.487 36.5113 195.873 36.3271C196.231 36.1562 196.557 35.8959 196.851 35.537C197.215 35.091 197.666 34.8236 198.199 34.7753C198.601 34.739 198.981 34.6456 199.342 34.496C199.701 34.3471 200.028 34.1444 200.322 33.8866C200.713 33.5447 201.219 33.3827 201.809 33.372C202.022 33.3681 202.156 33.313 202.243 33.2382C202.332 33.1628 202.409 33.036 202.45 32.8202C202.509 32.5126 202.624 32.2409 202.808 32.0204C202.992 31.7984 203.234 31.6439 203.519 31.5527C203.883 31.4359 204.087 31.2155 204.172 30.872C204.308 30.3202 204.649 29.905 205.166 29.6376C205.535 29.4467 205.748 29.1843 205.839 28.8476C205.966 28.3793 206.166 27.9454 206.44 27.5478C206.674 27.2065 206.853 26.8417 206.975 26.4521C207.081 26.113 207.063 25.7377 206.896 25.3124C206.782 25.0242 206.744 24.7321 206.803 24.4452C206.861 24.1589 207.01 23.9022 207.227 23.6757C207.465 23.4265 207.549 22.9829 207.274 22.2011L207.25 22.1357L207.256 22.0663L207.265 21.9667C207.28 21.79 207.437 21.6591 207.613 21.6747C207.79 21.6904 207.921 21.8466 207.905 22.0234L207.901 22.0614Z" fill="#EBFD00"/>
<path d="M207.264 21.9955C207.264 14.0814 200.718 7.65466 192.63 7.65466L192.63 7.01208C201.061 7.01208 207.906 13.7146 207.906 21.9955L207.264 21.9955Z" fill="#EBFD00"/>
<path d="M94.4475 20.9524C96.1833 20.9524 97.5904 22.3595 97.5904 24.0952C97.5904 25.831 96.1833 27.2381 94.4475 27.2381C92.7118 27.2381 91.3047 25.831 91.3047 24.0952C91.3047 22.3595 92.7118 20.9524 94.4475 20.9524Z" fill="#EBFD00"/>
<path d="M180.017 37.8682C178.352 37.8682 176.958 37.5956 175.837 37.0504C174.717 36.4749 173.838 35.6873 173.202 34.6878C172.596 33.6579 172.233 32.4615 172.112 31.0984C172.021 29.7354 172.172 28.2512 172.566 26.6458L177.927 25.9643C177.715 27.2364 177.625 28.4632 177.655 29.6445C177.685 30.7955 177.882 31.7345 178.246 32.4615C178.609 33.1581 179.245 33.5065 180.154 33.5065C180.608 33.5065 180.987 33.4004 181.29 33.1884C181.593 32.9461 181.82 32.5978 181.971 32.1434C182.153 31.6588 182.244 31.0681 182.244 30.3715C182.244 29.069 182.017 27.9937 181.562 27.1456C181.108 26.2975 180.532 25.5705 179.836 24.9647C179.139 24.3589 178.412 23.7985 177.655 23.2836C176.989 22.7687 176.322 22.2386 175.656 21.6934C174.989 21.1482 174.384 20.5424 173.838 19.876C173.293 19.1793 172.854 18.3918 172.521 17.5134C172.218 16.635 172.066 15.6203 172.066 14.4693C172.066 12.9548 172.369 11.6372 172.975 10.5164C173.581 9.36542 174.459 8.47187 175.61 7.83578C176.792 7.1997 178.215 6.88165 179.881 6.88165C181.759 6.88165 183.289 7.27542 184.47 8.06296C185.651 8.85049 186.484 10.0015 186.969 11.516C187.454 13.0002 187.575 14.7722 187.333 16.8319L182.062 17.5134C182.153 16.8167 182.198 16.1049 182.198 15.378C182.198 14.651 182.123 13.9998 181.971 13.4243C181.82 12.8185 181.562 12.3338 181.199 11.9704C180.866 11.6069 180.426 11.4251 179.881 11.4251C179.457 11.4251 179.094 11.5463 178.791 11.7886C178.488 12.0006 178.246 12.3187 178.064 12.7427C177.912 13.1365 177.837 13.6211 177.837 14.1967C177.837 15.0751 178.018 15.8323 178.382 16.4684C178.776 17.1045 179.26 17.6497 179.836 18.1041C180.442 18.5584 181.032 18.9976 181.608 19.4217C182.486 19.9972 183.304 20.6181 184.061 21.2845C184.849 21.9206 185.53 22.6475 186.106 23.4654C186.712 24.2529 187.181 25.1767 187.514 26.2369C187.847 27.2667 188.014 28.4632 188.014 29.8262C188.014 31.371 187.741 32.7644 187.196 34.0062C186.681 35.2178 185.833 36.172 184.652 36.8686C183.501 37.535 181.956 37.8682 180.017 37.8682Z" fill="white"/>
<path d="M161.223 37.3684V7.38144H167.084V37.3684H161.223ZM162.449 37.3684V32.416H173.944V37.3684H162.449Z" fill="white"/>
<path d="M153.426 37.3684V7.38144H159.332V37.3684H153.426Z" fill="white"/>
<path d="M134.289 37.3684L139.287 7.38144H147.511L152.508 37.3684H146.511L143.467 11.8795H143.149L140.286 37.3684H134.289ZM138.514 31.7345V27.7817H148.01V31.7345H138.514Z" fill="white"/>
<path d="M118.855 37.3684V7.38144H126.034C127.034 7.38144 127.973 7.5026 128.851 7.74492C129.76 7.98724 130.578 8.35071 131.305 8.83535C132.032 9.31999 132.653 9.91064 133.167 10.6073C133.713 11.304 134.122 12.1218 134.394 13.0608C134.697 13.9998 134.849 15.0448 134.849 16.1958C134.849 17.1954 134.727 18.1343 134.485 19.0128C134.273 19.8912 133.91 20.6787 133.395 21.3754C132.88 22.072 132.228 22.6627 131.441 23.1473C130.653 23.6017 129.699 23.9197 128.579 24.1014V24.4649C130.063 24.5255 131.199 24.8133 131.986 25.3282C132.774 25.8431 133.349 26.5701 133.713 27.5091C134.076 28.448 134.334 29.5839 134.485 30.9167L135.394 37.3684H129.396L128.806 31.8254C128.715 30.8864 128.579 30.0231 128.397 29.2356C128.245 28.4178 127.942 27.7817 127.488 27.3273C127.034 26.873 126.307 26.6307 125.307 26.6004H124.626V37.3684H118.855ZM124.626 22.5567H125.171C126.473 22.5567 127.443 22.1175 128.079 21.2391C128.715 20.3607 129.033 18.9673 129.033 17.0591C129.033 15.3022 128.76 14.0452 128.215 13.288C127.67 12.5004 126.822 12.1067 125.671 12.1067H124.626V22.5567Z" fill="white"/>
<path d="M107.751 37.8682C105.964 37.8682 104.571 37.2321 103.571 35.9599C102.602 34.6878 101.905 32.9007 101.481 30.5986C101.088 28.2966 100.891 25.6008 100.891 22.5112C100.891 20.1486 101.012 18.0132 101.254 16.1049C101.527 14.1664 101.981 12.5156 102.617 11.1525C103.253 9.75919 104.132 8.69904 105.252 7.97209C106.373 7.24513 107.797 6.88165 109.523 6.88165C111.159 6.88165 112.477 7.1997 113.476 7.83578C114.506 8.44158 115.278 9.2897 115.793 10.3801C116.308 11.4706 116.611 12.6973 116.702 14.0604C116.823 15.4234 116.763 16.8167 116.52 18.2404L111.023 18.9219C111.204 17.3771 111.265 16.0443 111.204 14.9236C111.144 13.8029 110.947 12.9396 110.614 12.3338C110.311 11.6977 109.872 11.3797 109.296 11.3797C108.66 11.3797 108.145 11.8038 107.751 12.6519C107.388 13.4697 107.13 14.6359 106.979 16.1504C106.827 17.6346 106.752 19.4368 106.752 21.5571C106.752 23.7077 106.797 25.5402 106.888 27.0547C107.009 28.5692 107.176 29.7959 107.388 30.7349C107.63 31.6436 107.903 32.31 108.206 32.7341C108.539 33.1278 108.902 33.3247 109.296 33.3247C109.841 33.3247 110.296 33.037 110.659 32.4615C111.053 31.8557 111.356 31.0378 111.568 30.008C111.78 28.9478 111.901 27.7514 111.931 26.4186H109.569V22.2386H117.156V26.873V37.3684H113.249L113.476 28.5995H113.022C113.022 30.326 112.885 31.9011 112.613 33.3247C112.34 34.718 111.825 35.8236 111.068 36.6415C110.311 37.4593 109.205 37.8682 107.751 37.8682Z" fill="white"/>
<path d="M79.7211 37.3684V27.2365L73.6328 7.38144H80.2209L82.8106 21.8751H82.9924L85.5822 7.38144H91.7613L85.7185 27.2365V37.3684H79.7211Z" fill="white"/>
<path d="M65.1484 37.3684V7.38144H71.0095V37.3684H65.1484ZM66.3752 37.3684V32.416H77.8702V37.3684H66.3752Z" fill="white"/>
<path d="M54.9634 37.8682C53.3581 37.8682 52.0253 37.5199 50.9652 36.8232C49.905 36.1265 49.0569 35.1118 48.4208 33.7791C47.815 32.4463 47.391 30.8409 47.1486 28.963C46.9063 27.085 46.7852 24.9799 46.7852 22.6475C46.7852 19.1036 47.0123 16.1655 47.4667 13.8332C47.9513 11.5009 48.7994 9.75919 50.011 8.60818C51.2226 7.45716 52.9037 6.88165 55.0543 6.88165C56.6899 6.88165 58.0378 7.21484 59.098 7.88122C60.1884 8.51731 61.0517 9.48658 61.6878 10.789C62.3239 12.0915 62.7782 13.7423 63.0508 15.7414C63.3234 17.7103 63.4597 20.0123 63.4597 22.6475C63.4597 25.0101 63.3234 27.1304 63.0508 29.0084C62.7782 30.8864 62.3239 32.4917 61.6878 33.8245C61.0517 35.127 60.1884 36.1265 59.098 36.8232C58.0076 37.5199 56.6294 37.8682 54.9634 37.8682ZM55.0997 33.3247C55.7358 33.3247 56.2356 32.9764 56.5991 32.2797C56.9626 31.5528 57.22 30.3866 57.3715 28.7812C57.5229 27.1456 57.5986 24.995 57.5986 22.3295C57.5986 19.664 57.5078 17.5437 57.326 15.9686C57.1746 14.3632 56.902 13.2122 56.5082 12.5156C56.1447 11.8189 55.6601 11.4706 55.0543 11.4706C54.4485 11.4706 53.9639 11.834 53.6004 12.561C53.2672 13.2577 53.0249 14.3935 52.8734 15.9686C52.722 17.5437 52.6462 19.6488 52.6462 22.2841C52.6462 24.2832 52.6765 25.9946 52.7371 27.4182C52.828 28.8115 52.9643 29.9474 53.146 30.8258C53.3278 31.6739 53.5701 32.31 53.873 32.7341C54.2062 33.1278 54.6151 33.3247 55.0997 33.3247Z" fill="white"/>
<path d="M39.3195 37.3684V7.38144H45.0897V37.3684H39.3195ZM29.1875 37.3684V7.38144H34.9577V37.3684H29.1875ZM32.7314 24.4195V19.6034H41.7729V24.4195H32.7314Z" fill="white"/>
</svg>
