<svg xmlns="http://www.w3.org/2000/svg" viewBox="0 0 100 100" width="100" height="100" role="img" aria-label="Holy Grails Nimbus in glass (one colour)"><title>Holy Grails — Nimbus in glass (one colour)</title><path d="M76.98,22.31 A27,9 0 0,1 67.56,28.84" fill="none" stroke="currentColor" stroke-width="5" stroke-linecap="butt"/><path d="M66.09,29.23 A27,9 0 0,1 44.91,30.84" fill="none" stroke="currentColor" stroke-width="5" stroke-linecap="butt"/><path d="M43.08,30.70 A27,9 0 0,1 26.10,26.19" fill="none" stroke="currentColor" stroke-width="5" stroke-linecap="butt"/><path d="M25.28,25.62 A27,9 0 0,1 25.28,18.38" fill="none" stroke="currentColor" stroke-width="5" stroke-linecap="butt"/><path d="M26.10,17.81 A27,9 0 0,1 43.08,13.30" fill="none" stroke="currentColor" stroke-width="5" stroke-linecap="butt"/><path d="M44.91,13.16 A27,9 0 0,1 66.09,14.77" fill="none" stroke="currentColor" stroke-width="5" stroke-linecap="butt"/><path d="M67.56,15.16 A27,9 0 0,1 76.98,21.69" fill="none" stroke="currentColor" stroke-width="5" stroke-linecap="butt"/><path d="M24,60 a26,26 0 1,0 52,0 a26,26 0 1,0 -52,0 Z M45.6,60 a4.4,4.4 0 1,0 8.8,0 a4.4,4.4 0 1,0 -8.8,0 Z" fill="currentColor" fill-rule="evenodd"/><path d="M32,60 a18,18 0 1,0 36,0 a18,18 0 1,0 -36,0 Z" fill="none" stroke="var(--lead,#0A0C0F)" stroke-width="2" stroke-linecap="butt"/></svg>
